%TF.GenerationSoftware,KiCad,Pcbnew,8.0.4*%
%TF.CreationDate,2024-07-27T14:27:44+01:00*%
%TF.ProjectId,ESP-SPIDER,4553502d-5350-4494-9445-522e6b696361,rev?*%
%TF.SameCoordinates,Original*%
%TF.FileFunction,Copper,L2,Bot*%
%TF.FilePolarity,Positive*%
%FSLAX46Y46*%
G04 Gerber Fmt 4.6, Leading zero omitted, Abs format (unit mm)*
G04 Created by KiCad (PCBNEW 8.0.4) date 2024-07-27 14:27:44*
%MOMM*%
%LPD*%
G01*
G04 APERTURE LIST*
G04 Aperture macros list*
%AMRoundRect*
0 Rectangle with rounded corners*
0 $1 Rounding radius*
0 $2 $3 $4 $5 $6 $7 $8 $9 X,Y pos of 4 corners*
0 Add a 4 corners polygon primitive as box body*
4,1,4,$2,$3,$4,$5,$6,$7,$8,$9,$2,$3,0*
0 Add four circle primitives for the rounded corners*
1,1,$1+$1,$2,$3*
1,1,$1+$1,$4,$5*
1,1,$1+$1,$6,$7*
1,1,$1+$1,$8,$9*
0 Add four rect primitives between the rounded corners*
20,1,$1+$1,$2,$3,$4,$5,0*
20,1,$1+$1,$4,$5,$6,$7,0*
20,1,$1+$1,$6,$7,$8,$9,0*
20,1,$1+$1,$8,$9,$2,$3,0*%
G04 Aperture macros list end*
%TA.AperFunction,ComponentPad*%
%ADD10R,1.700000X1.700000*%
%TD*%
%TA.AperFunction,ComponentPad*%
%ADD11O,1.700000X1.700000*%
%TD*%
%TA.AperFunction,HeatsinkPad*%
%ADD12C,0.600000*%
%TD*%
%TA.AperFunction,ComponentPad*%
%ADD13R,2.400000X2.400000*%
%TD*%
%TA.AperFunction,ComponentPad*%
%ADD14C,2.400000*%
%TD*%
%TA.AperFunction,ComponentPad*%
%ADD15R,1.600000X1.600000*%
%TD*%
%TA.AperFunction,ComponentPad*%
%ADD16C,1.600000*%
%TD*%
%TA.AperFunction,ComponentPad*%
%ADD17RoundRect,0.250000X-0.625000X0.350000X-0.625000X-0.350000X0.625000X-0.350000X0.625000X0.350000X0*%
%TD*%
%TA.AperFunction,ComponentPad*%
%ADD18O,1.750000X1.200000*%
%TD*%
%TA.AperFunction,ComponentPad*%
%ADD19O,1.200000X1.900000*%
%TD*%
%TA.AperFunction,ComponentPad*%
%ADD20C,1.450000*%
%TD*%
%TA.AperFunction,ViaPad*%
%ADD21C,0.700000*%
%TD*%
%TA.AperFunction,Conductor*%
%ADD22C,0.300000*%
%TD*%
%TA.AperFunction,Conductor*%
%ADD23C,0.500000*%
%TD*%
G04 APERTURE END LIST*
D10*
%TO.P,J13,1,Pin_1*%
%TO.N,+5V*%
X124709000Y-100008000D03*
D11*
%TO.P,J13,2,Pin_2*%
%TO.N,GND*%
X127249000Y-100008000D03*
%TD*%
D12*
%TO.P,U1,39,GND*%
%TO.N,GND*%
X166564000Y-98713000D03*
X165164000Y-98713000D03*
X167264000Y-99413000D03*
X165864000Y-99413000D03*
X164464000Y-99413000D03*
X166564000Y-100088000D03*
X165164000Y-100088000D03*
X167264000Y-100813000D03*
X165864000Y-100813000D03*
X164464000Y-100813000D03*
X166564000Y-101513000D03*
X165164000Y-101513000D03*
%TD*%
D10*
%TO.P,J9,1,Pin_1*%
%TO.N,GND*%
X149504000Y-64838000D03*
D11*
%TO.P,J9,2,Pin_2*%
%TO.N,+5V*%
X149504000Y-67378000D03*
%TO.P,J9,3,Pin_3*%
%TO.N,Net-(J9-Pin_3)*%
X149504000Y-69918000D03*
%TD*%
D10*
%TO.P,J4,1,Pin_1*%
%TO.N,GND*%
X133504000Y-64863000D03*
D11*
%TO.P,J4,2,Pin_2*%
%TO.N,+5V*%
X133504000Y-67403000D03*
%TO.P,J4,3,Pin_3*%
%TO.N,Net-(J4-Pin_3)*%
X133504000Y-69943000D03*
%TD*%
D10*
%TO.P,J3,1,Pin_1*%
%TO.N,GND*%
X139004000Y-64838000D03*
D11*
%TO.P,J3,2,Pin_2*%
%TO.N,+5V*%
X139004000Y-67378000D03*
%TO.P,J3,3,Pin_3*%
%TO.N,Net-(J3-Pin_3)*%
X139004000Y-69918000D03*
%TD*%
D10*
%TO.P,J5,1,Pin_1*%
%TO.N,GND*%
X169504000Y-64813000D03*
D11*
%TO.P,J5,2,Pin_2*%
%TO.N,+5V*%
X169504000Y-67353000D03*
%TO.P,J5,3,Pin_3*%
%TO.N,Net-(J5-Pin_3)*%
X169504000Y-69893000D03*
%TD*%
D13*
%TO.P,J10,1,Pin_1*%
%TO.N,GND*%
X126204000Y-91613000D03*
D14*
%TO.P,J10,2,Pin_2*%
%TO.N,+5V*%
X126204000Y-95113000D03*
%TD*%
D10*
%TO.P,J8,1,Pin_1*%
%TO.N,GND*%
X154504000Y-64838000D03*
D11*
%TO.P,J8,2,Pin_2*%
%TO.N,+5V*%
X154504000Y-67378000D03*
%TO.P,J8,3,Pin_3*%
%TO.N,Net-(J8-Pin_3)*%
X154504000Y-69918000D03*
%TD*%
D13*
%TO.P,J11,1,Pin_1*%
%TO.N,GND*%
X126204000Y-118550000D03*
D14*
%TO.P,J11,2,Pin_2*%
%TO.N,+3.3V*%
X126204000Y-122050000D03*
%TD*%
D15*
%TO.P,C11,1*%
%TO.N,+5V*%
X127504000Y-80210349D03*
D16*
%TO.P,C11,2*%
%TO.N,GND*%
X127504000Y-83710349D03*
%TD*%
D10*
%TO.P,J2,1,Pin_1*%
%TO.N,GND*%
X144504000Y-64853000D03*
D11*
%TO.P,J2,2,Pin_2*%
%TO.N,+5V*%
X144504000Y-67393000D03*
%TO.P,J2,3,Pin_3*%
%TO.N,Net-(J2-Pin_3)*%
X144504000Y-69933000D03*
%TD*%
D17*
%TO.P,J12,1,Pin_1*%
%TO.N,+5V*%
X127954000Y-105390000D03*
D18*
%TO.P,J12,2,Pin_2*%
%TO.N,GND*%
X127954000Y-107390000D03*
%TO.P,J12,3,Pin_3*%
%TO.N,/SCL*%
X127954000Y-109390000D03*
%TO.P,J12,4,Pin_4*%
%TO.N,/SDA*%
X127954000Y-111390000D03*
%TD*%
D10*
%TO.P,J7,1,Pin_1*%
%TO.N,GND*%
X159504000Y-64853000D03*
D11*
%TO.P,J7,2,Pin_2*%
%TO.N,+5V*%
X159504000Y-67393000D03*
%TO.P,J7,3,Pin_3*%
%TO.N,Net-(J7-Pin_3)*%
X159504000Y-69933000D03*
%TD*%
D19*
%TO.P,J1,6,Shield*%
%TO.N,unconnected-(J1-Shield-Pad6)_7*%
X158215000Y-131584000D03*
D20*
%TO.N,unconnected-(J1-Shield-Pad6)_5*%
X159215000Y-128884000D03*
%TO.N,unconnected-(J1-Shield-Pad6)_1*%
X164215000Y-128884000D03*
D19*
%TO.N,unconnected-(J1-Shield-Pad6)_3*%
X165215000Y-131584000D03*
%TD*%
D10*
%TO.P,J6,1,Pin_1*%
%TO.N,GND*%
X164504000Y-64853000D03*
D11*
%TO.P,J6,2,Pin_2*%
%TO.N,+5V*%
X164504000Y-67393000D03*
%TO.P,J6,3,Pin_3*%
%TO.N,Net-(J6-Pin_3)*%
X164504000Y-69933000D03*
%TD*%
D21*
%TO.N,GND*%
X129540000Y-100008000D03*
X149352000Y-124138000D03*
X163068000Y-127440000D03*
%TO.N,Net-(D3-A2)*%
X159004000Y-126424000D03*
X169064500Y-126217000D03*
%TO.N,GND*%
X141224000Y-127762000D03*
X173486000Y-111739000D03*
X144780000Y-85598000D03*
X173482000Y-94234000D03*
X154432000Y-96012000D03*
X147574000Y-86360000D03*
X151192500Y-131863000D03*
X166374000Y-124012000D03*
X159516000Y-120629000D03*
X143510000Y-108966000D03*
X155448000Y-86868000D03*
X142752000Y-117835000D03*
X143510000Y-109982000D03*
X142240000Y-107442000D03*
X139954000Y-109220000D03*
X138938000Y-109220000D03*
X170692000Y-117327000D03*
X167406000Y-120964000D03*
X148340000Y-91419000D03*
X139954000Y-96012000D03*
X161234000Y-121197000D03*
X166370000Y-90932000D03*
%TO.N,+3.3V*%
X150876000Y-103378000D03*
X167132000Y-89408000D03*
X148336000Y-105918000D03*
X170942000Y-86868000D03*
%TO.N,/IO0*%
X152933500Y-113241500D03*
X149377500Y-116797500D03*
%TO.N,/SDA*%
X137926000Y-104881000D03*
X144784000Y-100309000D03*
X145800000Y-99293000D03*
X144784000Y-102849000D03*
%TO.N,/SCL*%
X137926000Y-101579000D03*
X143751000Y-99022000D03*
%TO.N,Net-(U2-VBUS)*%
X164596000Y-118597000D03*
X168660000Y-118597000D03*
%TO.N,/RXD*%
X165100000Y-112501000D03*
X165100000Y-114046000D03*
%TO.N,+3.3VADC*%
X157988000Y-121920000D03*
X164338000Y-124460000D03*
X145034000Y-112014000D03*
X141224000Y-116840000D03*
%TD*%
D22*
%TO.N,Net-(D3-A2)*%
X168857500Y-126424000D02*
X169064500Y-126217000D01*
X159004000Y-126424000D02*
X168857500Y-126424000D01*
%TO.N,/IO0*%
X152933500Y-113241500D02*
X149377500Y-116797500D01*
D23*
%TO.N,+3.3VADC*%
X145034000Y-113030000D02*
X145034000Y-112014000D01*
X141224000Y-116840000D02*
X145034000Y-113030000D01*
%TO.N,+3.3V*%
X167132000Y-89408000D02*
X168402000Y-89408000D01*
X168402000Y-89408000D02*
X170942000Y-86868000D01*
X148336000Y-105918000D02*
X150876000Y-103378000D01*
D22*
%TO.N,/SDA*%
X142752000Y-104881000D02*
X137926000Y-104881000D01*
X144784000Y-100309000D02*
X145800000Y-99293000D01*
X144784000Y-102849000D02*
X142752000Y-104881000D01*
%TO.N,/SCL*%
X137926000Y-101579000D02*
X141194000Y-101579000D01*
X141194000Y-101579000D02*
X143751000Y-99022000D01*
%TO.N,Net-(U2-VBUS)*%
X168660000Y-118597000D02*
X164596000Y-118597000D01*
%TO.N,/RXD*%
X165100000Y-112501000D02*
X165100000Y-114046000D01*
D23*
%TO.N,+3.3VADC*%
X160574000Y-124460000D02*
X158011000Y-121897000D01*
D22*
X158011000Y-121897000D02*
X157988000Y-121920000D01*
D23*
X164338000Y-124460000D02*
X160574000Y-124460000D01*
%TD*%
%TA.AperFunction,Conductor*%
%TO.N,GND*%
G36*
X180998539Y-61534185D02*
G01*
X181044294Y-61586989D01*
X181055500Y-61638500D01*
X181055500Y-77489000D01*
X181035815Y-77556039D01*
X180983011Y-77601794D01*
X180931500Y-77613000D01*
X174884000Y-77613000D01*
X174884000Y-125613000D01*
X180931500Y-125613000D01*
X180998539Y-125632685D01*
X181044294Y-125685489D01*
X181055500Y-125737000D01*
X181055500Y-132857500D01*
X181035815Y-132924539D01*
X180983011Y-132970294D01*
X180931500Y-132981500D01*
X165662622Y-132981500D01*
X165595583Y-132961815D01*
X165549828Y-132909011D01*
X165539884Y-132839853D01*
X165568909Y-132776297D01*
X165615170Y-132742939D01*
X165641541Y-132732016D01*
X165641544Y-132732014D01*
X165641547Y-132732013D01*
X165789035Y-132633464D01*
X165914464Y-132508035D01*
X166013013Y-132360547D01*
X166080894Y-132196666D01*
X166115500Y-132022691D01*
X166115500Y-131145309D01*
X166115500Y-131145306D01*
X166115499Y-131145304D01*
X166080896Y-130971341D01*
X166080893Y-130971332D01*
X166013016Y-130807459D01*
X166013009Y-130807446D01*
X165914464Y-130659965D01*
X165914461Y-130659961D01*
X165789038Y-130534538D01*
X165789034Y-130534535D01*
X165641553Y-130435990D01*
X165641540Y-130435983D01*
X165477667Y-130368106D01*
X165477658Y-130368103D01*
X165303694Y-130333500D01*
X165303691Y-130333500D01*
X165126309Y-130333500D01*
X165126306Y-130333500D01*
X164952341Y-130368103D01*
X164952332Y-130368106D01*
X164788459Y-130435983D01*
X164788446Y-130435990D01*
X164640965Y-130534535D01*
X164640961Y-130534538D01*
X164515538Y-130659961D01*
X164515535Y-130659965D01*
X164416990Y-130807446D01*
X164416983Y-130807459D01*
X164349106Y-130971332D01*
X164349103Y-130971341D01*
X164314500Y-131145304D01*
X164314500Y-132022695D01*
X164349103Y-132196658D01*
X164349106Y-132196667D01*
X164416983Y-132360540D01*
X164416990Y-132360553D01*
X164515535Y-132508034D01*
X164515538Y-132508038D01*
X164640961Y-132633461D01*
X164640965Y-132633464D01*
X164788446Y-132732009D01*
X164788458Y-132732016D01*
X164814830Y-132742939D01*
X164869234Y-132786779D01*
X164891299Y-132853073D01*
X164874020Y-132920773D01*
X164822883Y-132968383D01*
X164767378Y-132981500D01*
X158662622Y-132981500D01*
X158595583Y-132961815D01*
X158549828Y-132909011D01*
X158539884Y-132839853D01*
X158568909Y-132776297D01*
X158615170Y-132742939D01*
X158641541Y-132732016D01*
X158641544Y-132732014D01*
X158641547Y-132732013D01*
X158789035Y-132633464D01*
X158914464Y-132508035D01*
X159013013Y-132360547D01*
X159080894Y-132196666D01*
X159115500Y-132022691D01*
X159115500Y-131145309D01*
X159115500Y-131145306D01*
X159115499Y-131145304D01*
X159080896Y-130971341D01*
X159080893Y-130971332D01*
X159013016Y-130807459D01*
X159013009Y-130807446D01*
X158914464Y-130659965D01*
X158914461Y-130659961D01*
X158789038Y-130534538D01*
X158789034Y-130534535D01*
X158641553Y-130435990D01*
X158641540Y-130435983D01*
X158477667Y-130368106D01*
X158477658Y-130368103D01*
X158303694Y-130333500D01*
X158303691Y-130333500D01*
X158126309Y-130333500D01*
X158126306Y-130333500D01*
X157952341Y-130368103D01*
X157952332Y-130368106D01*
X157788459Y-130435983D01*
X157788446Y-130435990D01*
X157640965Y-130534535D01*
X157640961Y-130534538D01*
X157515538Y-130659961D01*
X157515535Y-130659965D01*
X157416990Y-130807446D01*
X157416983Y-130807459D01*
X157349106Y-130971332D01*
X157349103Y-130971341D01*
X157314500Y-131145304D01*
X157314500Y-132022695D01*
X157349103Y-132196658D01*
X157349106Y-132196667D01*
X157416983Y-132360540D01*
X157416990Y-132360553D01*
X157515535Y-132508034D01*
X157515538Y-132508038D01*
X157640961Y-132633461D01*
X157640965Y-132633464D01*
X157788446Y-132732009D01*
X157788458Y-132732016D01*
X157814830Y-132742939D01*
X157869234Y-132786779D01*
X157891299Y-132853073D01*
X157874020Y-132920773D01*
X157822883Y-132968383D01*
X157767378Y-132981500D01*
X121582500Y-132981500D01*
X121515461Y-132961815D01*
X121469706Y-132909011D01*
X121458500Y-132857500D01*
X121458500Y-129687713D01*
X123871500Y-129687713D01*
X123871500Y-129900286D01*
X123904753Y-130110239D01*
X123970444Y-130312414D01*
X124066951Y-130501820D01*
X124191890Y-130673786D01*
X124342213Y-130824109D01*
X124514179Y-130949048D01*
X124514181Y-130949049D01*
X124514184Y-130949051D01*
X124703588Y-131045557D01*
X124905757Y-131111246D01*
X125115713Y-131144500D01*
X125115714Y-131144500D01*
X125328286Y-131144500D01*
X125328287Y-131144500D01*
X125538243Y-131111246D01*
X125740412Y-131045557D01*
X125929816Y-130949051D01*
X125951789Y-130933086D01*
X126101786Y-130824109D01*
X126101788Y-130824106D01*
X126101792Y-130824104D01*
X126252104Y-130673792D01*
X126252106Y-130673788D01*
X126252109Y-130673786D01*
X126377048Y-130501820D01*
X126377047Y-130501820D01*
X126377051Y-130501816D01*
X126473557Y-130312412D01*
X126539246Y-130110243D01*
X126572500Y-129900287D01*
X126572500Y-129687713D01*
X126539246Y-129477757D01*
X126473557Y-129275588D01*
X126377051Y-129086184D01*
X126377049Y-129086181D01*
X126377048Y-129086179D01*
X126252109Y-128914213D01*
X126221896Y-128884000D01*
X158184538Y-128884000D01*
X158204337Y-129085031D01*
X158262978Y-129278345D01*
X158358198Y-129456488D01*
X158358201Y-129456492D01*
X158358202Y-129456494D01*
X158377688Y-129480238D01*
X158486352Y-129612647D01*
X158595016Y-129701824D01*
X158642506Y-129740798D01*
X158642509Y-129740799D01*
X158642511Y-129740801D01*
X158820654Y-129836021D01*
X158820656Y-129836021D01*
X158820659Y-129836023D01*
X159013967Y-129894662D01*
X159215000Y-129914462D01*
X159416033Y-129894662D01*
X159609341Y-129836023D01*
X159787494Y-129740798D01*
X159943647Y-129612647D01*
X160071798Y-129456494D01*
X160167023Y-129278341D01*
X160225662Y-129085033D01*
X160245462Y-128884000D01*
X163184538Y-128884000D01*
X163204337Y-129085031D01*
X163262978Y-129278345D01*
X163358198Y-129456488D01*
X163358201Y-129456492D01*
X163358202Y-129456494D01*
X163377688Y-129480238D01*
X163486352Y-129612647D01*
X163595016Y-129701824D01*
X163642506Y-129740798D01*
X163642509Y-129740799D01*
X163642511Y-129740801D01*
X163820654Y-129836021D01*
X163820656Y-129836021D01*
X163820659Y-129836023D01*
X164013967Y-129894662D01*
X164215000Y-129914462D01*
X164416033Y-129894662D01*
X164609341Y-129836023D01*
X164787494Y-129740798D01*
X164943647Y-129612647D01*
X165071798Y-129456494D01*
X165167023Y-129278341D01*
X165196941Y-129179713D01*
X175941500Y-129179713D01*
X175941500Y-129392287D01*
X175974754Y-129602243D01*
X176019774Y-129740801D01*
X176040444Y-129804414D01*
X176136951Y-129993820D01*
X176261890Y-130165786D01*
X176412213Y-130316109D01*
X176584179Y-130441048D01*
X176584181Y-130441049D01*
X176584184Y-130441051D01*
X176773588Y-130537557D01*
X176975757Y-130603246D01*
X177185713Y-130636500D01*
X177185714Y-130636500D01*
X177398286Y-130636500D01*
X177398287Y-130636500D01*
X177608243Y-130603246D01*
X177810412Y-130537557D01*
X177999816Y-130441051D01*
X178100221Y-130368103D01*
X178171786Y-130316109D01*
X178171788Y-130316106D01*
X178171792Y-130316104D01*
X178322104Y-130165792D01*
X178322106Y-130165788D01*
X178322109Y-130165786D01*
X178447048Y-129993820D01*
X178447047Y-129993820D01*
X178447051Y-129993816D01*
X178543557Y-129804412D01*
X178609246Y-129602243D01*
X178642500Y-129392287D01*
X178642500Y-129179713D01*
X178609246Y-128969757D01*
X178543557Y-128767588D01*
X178447051Y-128578184D01*
X178447049Y-128578181D01*
X178447048Y-128578179D01*
X178322109Y-128406213D01*
X178171786Y-128255890D01*
X177999820Y-128130951D01*
X177810414Y-128034444D01*
X177810413Y-128034443D01*
X177810412Y-128034443D01*
X177608243Y-127968754D01*
X177608241Y-127968753D01*
X177608240Y-127968753D01*
X177446957Y-127943208D01*
X177398287Y-127935500D01*
X177185713Y-127935500D01*
X177137042Y-127943208D01*
X176975760Y-127968753D01*
X176773585Y-128034444D01*
X176584179Y-128130951D01*
X176412213Y-128255890D01*
X176261890Y-128406213D01*
X176136951Y-128578179D01*
X176040444Y-128767585D01*
X175974753Y-128969760D01*
X175941500Y-129179713D01*
X165196941Y-129179713D01*
X165225662Y-129085033D01*
X165245462Y-128884000D01*
X165225662Y-128682967D01*
X165167023Y-128489659D01*
X165167021Y-128489656D01*
X165167021Y-128489654D01*
X165071801Y-128311511D01*
X165071799Y-128311509D01*
X165071798Y-128311506D01*
X165026155Y-128255890D01*
X164943647Y-128155352D01*
X164787495Y-128027203D01*
X164787488Y-128027198D01*
X164609345Y-127931978D01*
X164416031Y-127873337D01*
X164215000Y-127853538D01*
X164013968Y-127873337D01*
X163820654Y-127931978D01*
X163642511Y-128027198D01*
X163642504Y-128027203D01*
X163486352Y-128155352D01*
X163358203Y-128311504D01*
X163358198Y-128311511D01*
X163262978Y-128489654D01*
X163204337Y-128682968D01*
X163184538Y-128884000D01*
X160245462Y-128884000D01*
X160225662Y-128682967D01*
X160167023Y-128489659D01*
X160167021Y-128489656D01*
X160167021Y-128489654D01*
X160071801Y-128311511D01*
X160071799Y-128311509D01*
X160071798Y-128311506D01*
X160026155Y-128255890D01*
X159943647Y-128155352D01*
X159787495Y-128027203D01*
X159787488Y-128027198D01*
X159609345Y-127931978D01*
X159416031Y-127873337D01*
X159215000Y-127853538D01*
X159013968Y-127873337D01*
X158820654Y-127931978D01*
X158642511Y-128027198D01*
X158642504Y-128027203D01*
X158486352Y-128155352D01*
X158358203Y-128311504D01*
X158358198Y-128311511D01*
X158262978Y-128489654D01*
X158204337Y-128682968D01*
X158184538Y-128884000D01*
X126221896Y-128884000D01*
X126101786Y-128763890D01*
X125929820Y-128638951D01*
X125740414Y-128542444D01*
X125740413Y-128542443D01*
X125740412Y-128542443D01*
X125538243Y-128476754D01*
X125538241Y-128476753D01*
X125538240Y-128476753D01*
X125376957Y-128451208D01*
X125328287Y-128443500D01*
X125115713Y-128443500D01*
X125067042Y-128451208D01*
X124905760Y-128476753D01*
X124703585Y-128542444D01*
X124514179Y-128638951D01*
X124342213Y-128763890D01*
X124191890Y-128914213D01*
X124066951Y-129086179D01*
X123970444Y-129275585D01*
X123970443Y-129275587D01*
X123970443Y-129275588D01*
X123969547Y-129278345D01*
X123904753Y-129477760D01*
X123871500Y-129687713D01*
X121458500Y-129687713D01*
X121458500Y-126423999D01*
X158348722Y-126423999D01*
X158348722Y-126424000D01*
X158367762Y-126580818D01*
X158394580Y-126651530D01*
X158423780Y-126728523D01*
X158513517Y-126858530D01*
X158631760Y-126963283D01*
X158631762Y-126963284D01*
X158771634Y-127036696D01*
X158925014Y-127074500D01*
X158925015Y-127074500D01*
X159082985Y-127074500D01*
X159236365Y-127036696D01*
X159376240Y-126963283D01*
X159441256Y-126905683D01*
X159504490Y-126875963D01*
X159523483Y-126874500D01*
X168916806Y-126874500D01*
X168916809Y-126874500D01*
X168933014Y-126870157D01*
X168980059Y-126866837D01*
X168985513Y-126867499D01*
X168985515Y-126867500D01*
X168985517Y-126867500D01*
X169143485Y-126867500D01*
X169296865Y-126829696D01*
X169436740Y-126756283D01*
X169554983Y-126651530D01*
X169644720Y-126521523D01*
X169700737Y-126373818D01*
X169719778Y-126217000D01*
X169707937Y-126119475D01*
X169700737Y-126060181D01*
X169673920Y-125989471D01*
X169644720Y-125912477D01*
X169554983Y-125782470D01*
X169436740Y-125677717D01*
X169436738Y-125677716D01*
X169436737Y-125677715D01*
X169296865Y-125604303D01*
X169143486Y-125566500D01*
X169143485Y-125566500D01*
X168985515Y-125566500D01*
X168985514Y-125566500D01*
X168832134Y-125604303D01*
X168692262Y-125677715D01*
X168574016Y-125782471D01*
X168480019Y-125918650D01*
X168477571Y-125916960D01*
X168438507Y-125957337D01*
X168377292Y-125973500D01*
X159523483Y-125973500D01*
X159456444Y-125953815D01*
X159441256Y-125942316D01*
X159376240Y-125884717D01*
X159376238Y-125884716D01*
X159376237Y-125884715D01*
X159236365Y-125811303D01*
X159082986Y-125773500D01*
X159082985Y-125773500D01*
X158925015Y-125773500D01*
X158925014Y-125773500D01*
X158771634Y-125811303D01*
X158631762Y-125884715D01*
X158513516Y-125989471D01*
X158423781Y-126119475D01*
X158423780Y-126119476D01*
X158367762Y-126267181D01*
X158348722Y-126423999D01*
X121458500Y-126423999D01*
X121458500Y-122049994D01*
X124698357Y-122049994D01*
X124698357Y-122050005D01*
X124718890Y-122297812D01*
X124718892Y-122297824D01*
X124779936Y-122538881D01*
X124879826Y-122766606D01*
X125015833Y-122974782D01*
X125015836Y-122974785D01*
X125184256Y-123157738D01*
X125380491Y-123310474D01*
X125599190Y-123428828D01*
X125834386Y-123509571D01*
X126079665Y-123550500D01*
X126328335Y-123550500D01*
X126573614Y-123509571D01*
X126808810Y-123428828D01*
X127027509Y-123310474D01*
X127223744Y-123157738D01*
X127392164Y-122974785D01*
X127528173Y-122766607D01*
X127628063Y-122538881D01*
X127689108Y-122297821D01*
X127709643Y-122050000D01*
X127698871Y-121919999D01*
X157332722Y-121919999D01*
X157332722Y-121920000D01*
X157351762Y-122076818D01*
X157407780Y-122224523D01*
X157497517Y-122354530D01*
X157615760Y-122459283D01*
X157755635Y-122532696D01*
X157871417Y-122561232D01*
X157929423Y-122593948D01*
X160235985Y-124900510D01*
X160361515Y-124972984D01*
X160501525Y-125010500D01*
X163956569Y-125010500D01*
X164014194Y-125024703D01*
X164105635Y-125072696D01*
X164182325Y-125091598D01*
X164259014Y-125110500D01*
X164259015Y-125110500D01*
X164416985Y-125110500D01*
X164570365Y-125072696D01*
X164710240Y-124999283D01*
X164828483Y-124894530D01*
X164918220Y-124764523D01*
X164974237Y-124616818D01*
X164993278Y-124460000D01*
X164974237Y-124303182D01*
X164918220Y-124155477D01*
X164828483Y-124025470D01*
X164710240Y-123920717D01*
X164710238Y-123920716D01*
X164710237Y-123920715D01*
X164570365Y-123847303D01*
X164416986Y-123809500D01*
X164416985Y-123809500D01*
X164259015Y-123809500D01*
X164259014Y-123809500D01*
X164105636Y-123847303D01*
X164059763Y-123871379D01*
X164014194Y-123895296D01*
X163956569Y-123909500D01*
X160853387Y-123909500D01*
X160786348Y-123889815D01*
X160765706Y-123873181D01*
X158623832Y-121731307D01*
X158595571Y-121687597D01*
X158568219Y-121615475D01*
X158536330Y-121569277D01*
X158478483Y-121485470D01*
X158360240Y-121380717D01*
X158360238Y-121380716D01*
X158360237Y-121380715D01*
X158220365Y-121307303D01*
X158066986Y-121269500D01*
X158066985Y-121269500D01*
X157909015Y-121269500D01*
X157909014Y-121269500D01*
X157755634Y-121307303D01*
X157615762Y-121380715D01*
X157497516Y-121485471D01*
X157407781Y-121615475D01*
X157407780Y-121615476D01*
X157351762Y-121763181D01*
X157332722Y-121919999D01*
X127698871Y-121919999D01*
X127689108Y-121802179D01*
X127660092Y-121687597D01*
X127628063Y-121561118D01*
X127528173Y-121333393D01*
X127392166Y-121125217D01*
X127370557Y-121101744D01*
X127223744Y-120942262D01*
X127027509Y-120789526D01*
X127027507Y-120789525D01*
X127027506Y-120789524D01*
X126808811Y-120671172D01*
X126808802Y-120671169D01*
X126573616Y-120590429D01*
X126328335Y-120549500D01*
X126079665Y-120549500D01*
X125834383Y-120590429D01*
X125599197Y-120671169D01*
X125599188Y-120671172D01*
X125380493Y-120789524D01*
X125184257Y-120942261D01*
X125015833Y-121125217D01*
X124879826Y-121333393D01*
X124779936Y-121561118D01*
X124718892Y-121802175D01*
X124718890Y-121802187D01*
X124698357Y-122049994D01*
X121458500Y-122049994D01*
X121458500Y-117302155D01*
X124504000Y-117302155D01*
X124504000Y-118300000D01*
X125655518Y-118300000D01*
X125644889Y-118318409D01*
X125604000Y-118471009D01*
X125604000Y-118628991D01*
X125644889Y-118781591D01*
X125655518Y-118800000D01*
X124504000Y-118800000D01*
X124504000Y-119797844D01*
X124510401Y-119857372D01*
X124510403Y-119857379D01*
X124560645Y-119992086D01*
X124560649Y-119992093D01*
X124646809Y-120107187D01*
X124646812Y-120107190D01*
X124761906Y-120193350D01*
X124761913Y-120193354D01*
X124896620Y-120243596D01*
X124896627Y-120243598D01*
X124956155Y-120249999D01*
X124956172Y-120250000D01*
X125954000Y-120250000D01*
X125954000Y-119098482D01*
X125972409Y-119109111D01*
X126125009Y-119150000D01*
X126282991Y-119150000D01*
X126435591Y-119109111D01*
X126454000Y-119098482D01*
X126454000Y-120250000D01*
X127451828Y-120250000D01*
X127451844Y-120249999D01*
X127511372Y-120243598D01*
X127511379Y-120243596D01*
X127646086Y-120193354D01*
X127646093Y-120193350D01*
X127761187Y-120107190D01*
X127761190Y-120107187D01*
X127847350Y-119992093D01*
X127847354Y-119992086D01*
X127897596Y-119857379D01*
X127897598Y-119857372D01*
X127903999Y-119797844D01*
X127904000Y-119797827D01*
X127904000Y-118800000D01*
X126752482Y-118800000D01*
X126763111Y-118781591D01*
X126804000Y-118628991D01*
X126804000Y-118596999D01*
X163940722Y-118596999D01*
X163940722Y-118597000D01*
X163959762Y-118753818D01*
X163977277Y-118800000D01*
X164015780Y-118901523D01*
X164105517Y-119031530D01*
X164223760Y-119136283D01*
X164223762Y-119136284D01*
X164363634Y-119209696D01*
X164517014Y-119247500D01*
X164517015Y-119247500D01*
X164674985Y-119247500D01*
X164828365Y-119209696D01*
X164968240Y-119136283D01*
X165033256Y-119078683D01*
X165096490Y-119048963D01*
X165115483Y-119047500D01*
X168140517Y-119047500D01*
X168207556Y-119067185D01*
X168222741Y-119078682D01*
X168287760Y-119136283D01*
X168287762Y-119136284D01*
X168427634Y-119209696D01*
X168581014Y-119247500D01*
X168581015Y-119247500D01*
X168738985Y-119247500D01*
X168892365Y-119209696D01*
X169032240Y-119136283D01*
X169150483Y-119031530D01*
X169240220Y-118901523D01*
X169296237Y-118753818D01*
X169315278Y-118597000D01*
X169296237Y-118440182D01*
X169240220Y-118292477D01*
X169150483Y-118162470D01*
X169032240Y-118057717D01*
X169032238Y-118057716D01*
X169032237Y-118057715D01*
X168892365Y-117984303D01*
X168738986Y-117946500D01*
X168738985Y-117946500D01*
X168581015Y-117946500D01*
X168581014Y-117946500D01*
X168427634Y-117984303D01*
X168287762Y-118057715D01*
X168222744Y-118115316D01*
X168159510Y-118145037D01*
X168140517Y-118146500D01*
X165115483Y-118146500D01*
X165048444Y-118126815D01*
X165033256Y-118115316D01*
X164981970Y-118069881D01*
X164968240Y-118057717D01*
X164968238Y-118057716D01*
X164968237Y-118057715D01*
X164828365Y-117984303D01*
X164674986Y-117946500D01*
X164674985Y-117946500D01*
X164517015Y-117946500D01*
X164517014Y-117946500D01*
X164363634Y-117984303D01*
X164223762Y-118057715D01*
X164105516Y-118162471D01*
X164015781Y-118292475D01*
X164015780Y-118292476D01*
X163959762Y-118440181D01*
X163940722Y-118596999D01*
X126804000Y-118596999D01*
X126804000Y-118471009D01*
X126763111Y-118318409D01*
X126752482Y-118300000D01*
X127904000Y-118300000D01*
X127904000Y-117302172D01*
X127903999Y-117302155D01*
X127897598Y-117242627D01*
X127897596Y-117242620D01*
X127847354Y-117107913D01*
X127847350Y-117107906D01*
X127761190Y-116992812D01*
X127761187Y-116992809D01*
X127646093Y-116906649D01*
X127646086Y-116906645D01*
X127511379Y-116856403D01*
X127511372Y-116856401D01*
X127451844Y-116850000D01*
X126454000Y-116850000D01*
X126454000Y-118001517D01*
X126435591Y-117990889D01*
X126282991Y-117950000D01*
X126125009Y-117950000D01*
X125972409Y-117990889D01*
X125954000Y-118001517D01*
X125954000Y-116850000D01*
X124956155Y-116850000D01*
X124896627Y-116856401D01*
X124896620Y-116856403D01*
X124761913Y-116906645D01*
X124761906Y-116906649D01*
X124646812Y-116992809D01*
X124646809Y-116992812D01*
X124560649Y-117107906D01*
X124560645Y-117107913D01*
X124510403Y-117242620D01*
X124510401Y-117242627D01*
X124504000Y-117302155D01*
X121458500Y-117302155D01*
X121458500Y-116839999D01*
X140568722Y-116839999D01*
X140568722Y-116840000D01*
X140587762Y-116996818D01*
X140643780Y-117144523D01*
X140733517Y-117274530D01*
X140851760Y-117379283D01*
X140851762Y-117379284D01*
X140991634Y-117452696D01*
X141145014Y-117490500D01*
X141145015Y-117490500D01*
X141302985Y-117490500D01*
X141456365Y-117452696D01*
X141465312Y-117448000D01*
X141596240Y-117379283D01*
X141714483Y-117274530D01*
X141804220Y-117144523D01*
X141859677Y-116998294D01*
X141887935Y-116954588D01*
X142045024Y-116797499D01*
X148722222Y-116797499D01*
X148722222Y-116797500D01*
X148741262Y-116954318D01*
X148797280Y-117102023D01*
X148887017Y-117232030D01*
X149005260Y-117336783D01*
X149005262Y-117336784D01*
X149145134Y-117410196D01*
X149298514Y-117448000D01*
X149298515Y-117448000D01*
X149456485Y-117448000D01*
X149609865Y-117410196D01*
X149668764Y-117379283D01*
X149749740Y-117336783D01*
X149867983Y-117232030D01*
X149957720Y-117102023D01*
X150013737Y-116954318D01*
X150030132Y-116819287D01*
X150057754Y-116755111D01*
X150065536Y-116746565D01*
X152883784Y-113928319D01*
X152945107Y-113894834D01*
X152971465Y-113892000D01*
X153012485Y-113892000D01*
X153165865Y-113854196D01*
X153305740Y-113780783D01*
X153423983Y-113676030D01*
X153513720Y-113546023D01*
X153569737Y-113398318D01*
X153588778Y-113241500D01*
X153571898Y-113102475D01*
X153569737Y-113084681D01*
X153535012Y-112993120D01*
X153513720Y-112936977D01*
X153423983Y-112806970D01*
X153305740Y-112702217D01*
X153305738Y-112702216D01*
X153305737Y-112702215D01*
X153165865Y-112628803D01*
X153012486Y-112591000D01*
X153012485Y-112591000D01*
X152854515Y-112591000D01*
X152854514Y-112591000D01*
X152701134Y-112628803D01*
X152561262Y-112702215D01*
X152443016Y-112806971D01*
X152353281Y-112936975D01*
X152353280Y-112936976D01*
X152297263Y-113084680D01*
X152280867Y-113219709D01*
X152253245Y-113283887D01*
X152245452Y-113292443D01*
X149427216Y-116110681D01*
X149365893Y-116144166D01*
X149339535Y-116147000D01*
X149298514Y-116147000D01*
X149145134Y-116184803D01*
X149005262Y-116258215D01*
X148887016Y-116362971D01*
X148797281Y-116492975D01*
X148797280Y-116492976D01*
X148741262Y-116640681D01*
X148722222Y-116797499D01*
X142045024Y-116797499D01*
X145474510Y-113368014D01*
X145546984Y-113242485D01*
X145553087Y-113219709D01*
X145563141Y-113182190D01*
X145570958Y-113153012D01*
X145584500Y-113102475D01*
X145584500Y-112500999D01*
X164444722Y-112500999D01*
X164444722Y-112501000D01*
X164463762Y-112657818D01*
X164480601Y-112702217D01*
X164519780Y-112805523D01*
X164560051Y-112863865D01*
X164609518Y-112935532D01*
X164614491Y-112941145D01*
X164613044Y-112942426D01*
X164644850Y-112993120D01*
X164649500Y-113026759D01*
X164649500Y-113520240D01*
X164629815Y-113587279D01*
X164614153Y-113605556D01*
X164614491Y-113605856D01*
X164609515Y-113611472D01*
X164519781Y-113741475D01*
X164519780Y-113741476D01*
X164463762Y-113889181D01*
X164444722Y-114045999D01*
X164444722Y-114046000D01*
X164463762Y-114202818D01*
X164519780Y-114350523D01*
X164609517Y-114480530D01*
X164727760Y-114585283D01*
X164727762Y-114585284D01*
X164867634Y-114658696D01*
X165021014Y-114696500D01*
X165021015Y-114696500D01*
X165178985Y-114696500D01*
X165332365Y-114658696D01*
X165472240Y-114585283D01*
X165590483Y-114480530D01*
X165680220Y-114350523D01*
X165736237Y-114202818D01*
X165755278Y-114046000D01*
X165736237Y-113889182D01*
X165680220Y-113741477D01*
X165590483Y-113611470D01*
X165590479Y-113611466D01*
X165585509Y-113605856D01*
X165586953Y-113604576D01*
X165555145Y-113553860D01*
X165550500Y-113520240D01*
X165550500Y-113026759D01*
X165570185Y-112959720D01*
X165585846Y-112941444D01*
X165585509Y-112941145D01*
X165590481Y-112935532D01*
X165590481Y-112935531D01*
X165590483Y-112935530D01*
X165680220Y-112805523D01*
X165736237Y-112657818D01*
X165755278Y-112501000D01*
X165738350Y-112361580D01*
X165736237Y-112344181D01*
X165714992Y-112288164D01*
X165680220Y-112196477D01*
X165590483Y-112066470D01*
X165472240Y-111961717D01*
X165472238Y-111961716D01*
X165472237Y-111961715D01*
X165332365Y-111888303D01*
X165178986Y-111850500D01*
X165178985Y-111850500D01*
X165021015Y-111850500D01*
X165021014Y-111850500D01*
X164867634Y-111888303D01*
X164727762Y-111961715D01*
X164609516Y-112066471D01*
X164519781Y-112196475D01*
X164519780Y-112196476D01*
X164463762Y-112344181D01*
X164444722Y-112500999D01*
X145584500Y-112500999D01*
X145584500Y-112400219D01*
X145604185Y-112333180D01*
X145606434Y-112329802D01*
X145614220Y-112318523D01*
X145670237Y-112170818D01*
X145689278Y-112014000D01*
X145670237Y-111857182D01*
X145654828Y-111816553D01*
X145648992Y-111801164D01*
X145614220Y-111709477D01*
X145524483Y-111579470D01*
X145406240Y-111474717D01*
X145406238Y-111474716D01*
X145406237Y-111474715D01*
X145266365Y-111401303D01*
X145112986Y-111363500D01*
X145112985Y-111363500D01*
X144955015Y-111363500D01*
X144955014Y-111363500D01*
X144801634Y-111401303D01*
X144661762Y-111474715D01*
X144543516Y-111579471D01*
X144453781Y-111709475D01*
X144453780Y-111709476D01*
X144397762Y-111857181D01*
X144378722Y-112013999D01*
X144378722Y-112014000D01*
X144397762Y-112170818D01*
X144443152Y-112290499D01*
X144453780Y-112318523D01*
X144461548Y-112329777D01*
X144483433Y-112396130D01*
X144483500Y-112400219D01*
X144483500Y-112750612D01*
X144463815Y-112817651D01*
X144447181Y-112838293D01*
X141104377Y-116181096D01*
X141046372Y-116213811D01*
X140991638Y-116227302D01*
X140991634Y-116227303D01*
X140851762Y-116300715D01*
X140733516Y-116405471D01*
X140643781Y-116535475D01*
X140643780Y-116535476D01*
X140587762Y-116683181D01*
X140568722Y-116839999D01*
X121458500Y-116839999D01*
X121458500Y-107139999D01*
X126604884Y-107139999D01*
X126604885Y-107140000D01*
X127673670Y-107140000D01*
X127653925Y-107159745D01*
X127604556Y-107245255D01*
X127579000Y-107340630D01*
X127579000Y-107439370D01*
X127604556Y-107534745D01*
X127653925Y-107620255D01*
X127673670Y-107640000D01*
X126604885Y-107640000D01*
X126606085Y-107647584D01*
X126659591Y-107812255D01*
X126738195Y-107966524D01*
X126839967Y-108106602D01*
X126962397Y-108229032D01*
X127102475Y-108330804D01*
X127220833Y-108391110D01*
X127271629Y-108439084D01*
X127288424Y-108506905D01*
X127265887Y-108573040D01*
X127233430Y-108604697D01*
X127104961Y-108690538D01*
X126979538Y-108815961D01*
X126979535Y-108815965D01*
X126880990Y-108963446D01*
X126880983Y-108963459D01*
X126813106Y-109127332D01*
X126813103Y-109127341D01*
X126778500Y-109301304D01*
X126778500Y-109478695D01*
X126813103Y-109652658D01*
X126813106Y-109652667D01*
X126880983Y-109816540D01*
X126880990Y-109816553D01*
X126979535Y-109964034D01*
X126979538Y-109964038D01*
X127104961Y-110089461D01*
X127104965Y-110089464D01*
X127252446Y-110188009D01*
X127252459Y-110188016D01*
X127375363Y-110238923D01*
X127416334Y-110255894D01*
X127436594Y-110259924D01*
X127479118Y-110268383D01*
X127541028Y-110300768D01*
X127575603Y-110361484D01*
X127571863Y-110431253D01*
X127530996Y-110487925D01*
X127479118Y-110511617D01*
X127416340Y-110524104D01*
X127416332Y-110524106D01*
X127252459Y-110591983D01*
X127252446Y-110591990D01*
X127104965Y-110690535D01*
X127104961Y-110690538D01*
X126979538Y-110815961D01*
X126979535Y-110815965D01*
X126880990Y-110963446D01*
X126880983Y-110963459D01*
X126813106Y-111127332D01*
X126813103Y-111127341D01*
X126778500Y-111301304D01*
X126778500Y-111478695D01*
X126813103Y-111652658D01*
X126813106Y-111652667D01*
X126880983Y-111816540D01*
X126880990Y-111816553D01*
X126979535Y-111964034D01*
X126979538Y-111964038D01*
X127104961Y-112089461D01*
X127104965Y-112089464D01*
X127252446Y-112188009D01*
X127252459Y-112188016D01*
X127375363Y-112238923D01*
X127416334Y-112255894D01*
X127416336Y-112255894D01*
X127416341Y-112255896D01*
X127590304Y-112290499D01*
X127590307Y-112290500D01*
X127590309Y-112290500D01*
X128317693Y-112290500D01*
X128317694Y-112290499D01*
X128375682Y-112278964D01*
X128491658Y-112255896D01*
X128491661Y-112255894D01*
X128491666Y-112255894D01*
X128655547Y-112188013D01*
X128803035Y-112089464D01*
X128928464Y-111964035D01*
X129027013Y-111816547D01*
X129094894Y-111652666D01*
X129109454Y-111579471D01*
X129129499Y-111478695D01*
X129129500Y-111478693D01*
X129129500Y-111301306D01*
X129129499Y-111301304D01*
X129094896Y-111127341D01*
X129094893Y-111127332D01*
X129027016Y-110963459D01*
X129027009Y-110963446D01*
X128928464Y-110815965D01*
X128928461Y-110815961D01*
X128803038Y-110690538D01*
X128803034Y-110690535D01*
X128655553Y-110591990D01*
X128655540Y-110591983D01*
X128491667Y-110524106D01*
X128491658Y-110524103D01*
X128428882Y-110511617D01*
X128366971Y-110479232D01*
X128332397Y-110418517D01*
X128336136Y-110348747D01*
X128377003Y-110292075D01*
X128428882Y-110268383D01*
X128491658Y-110255896D01*
X128491661Y-110255894D01*
X128491666Y-110255894D01*
X128655547Y-110188013D01*
X128803035Y-110089464D01*
X128928464Y-109964035D01*
X129027013Y-109816547D01*
X129094894Y-109652666D01*
X129129500Y-109478691D01*
X129129500Y-109301309D01*
X129129500Y-109301306D01*
X129129499Y-109301304D01*
X129094896Y-109127341D01*
X129094893Y-109127332D01*
X129027016Y-108963459D01*
X129027009Y-108963446D01*
X128928464Y-108815965D01*
X128928461Y-108815961D01*
X128803038Y-108690538D01*
X128803034Y-108690535D01*
X128674570Y-108604697D01*
X128629765Y-108551084D01*
X128621058Y-108481759D01*
X128651213Y-108418732D01*
X128687167Y-108391110D01*
X128805522Y-108330805D01*
X128945602Y-108229032D01*
X129068032Y-108106602D01*
X129169804Y-107966524D01*
X129248408Y-107812255D01*
X129301914Y-107647584D01*
X129303115Y-107640000D01*
X128234330Y-107640000D01*
X128254075Y-107620255D01*
X128303444Y-107534745D01*
X128329000Y-107439370D01*
X128329000Y-107340630D01*
X128303444Y-107245255D01*
X128254075Y-107159745D01*
X128234330Y-107140000D01*
X129303115Y-107140000D01*
X129303115Y-107139999D01*
X129301914Y-107132415D01*
X129248408Y-106967744D01*
X129169804Y-106813475D01*
X129068032Y-106673397D01*
X128945596Y-106550961D01*
X128803832Y-106447965D01*
X128761166Y-106392636D01*
X128755187Y-106323022D01*
X128787792Y-106261227D01*
X128831228Y-106232292D01*
X128851342Y-106224361D01*
X128971922Y-106132922D01*
X129063361Y-106012342D01*
X129100565Y-105917999D01*
X147680722Y-105917999D01*
X147680722Y-105918000D01*
X147699762Y-106074818D01*
X147755780Y-106222523D01*
X147845517Y-106352530D01*
X147963760Y-106457283D01*
X147963762Y-106457284D01*
X148103634Y-106530696D01*
X148257014Y-106568500D01*
X148257015Y-106568500D01*
X148414985Y-106568500D01*
X148568365Y-106530696D01*
X148708240Y-106457283D01*
X148826483Y-106352530D01*
X148916220Y-106222523D01*
X148971677Y-106076294D01*
X148999935Y-106032588D01*
X150995623Y-104036900D01*
X151053628Y-104004186D01*
X151084959Y-103996464D01*
X151108362Y-103990697D01*
X151108363Y-103990696D01*
X151108365Y-103990696D01*
X151248240Y-103917283D01*
X151366483Y-103812530D01*
X151456220Y-103682523D01*
X151512237Y-103534818D01*
X151531278Y-103378000D01*
X151512237Y-103221182D01*
X151456220Y-103073477D01*
X151366483Y-102943470D01*
X151248240Y-102838717D01*
X151248238Y-102838716D01*
X151248237Y-102838715D01*
X151108365Y-102765303D01*
X150954986Y-102727500D01*
X150954985Y-102727500D01*
X150797015Y-102727500D01*
X150797014Y-102727500D01*
X150643634Y-102765303D01*
X150503762Y-102838715D01*
X150385516Y-102943471D01*
X150295781Y-103073475D01*
X150295780Y-103073476D01*
X150240325Y-103219699D01*
X150212064Y-103263409D01*
X148216377Y-105259096D01*
X148158372Y-105291811D01*
X148103638Y-105305302D01*
X148103634Y-105305303D01*
X147963762Y-105378715D01*
X147845516Y-105483471D01*
X147755781Y-105613475D01*
X147755780Y-105613476D01*
X147699762Y-105761181D01*
X147680722Y-105917999D01*
X129100565Y-105917999D01*
X129118877Y-105871564D01*
X129129500Y-105783102D01*
X129129500Y-104996898D01*
X129118877Y-104908436D01*
X129108057Y-104880999D01*
X137270722Y-104880999D01*
X137270722Y-104881000D01*
X137289762Y-105037818D01*
X137345780Y-105185523D01*
X137435517Y-105315530D01*
X137553760Y-105420283D01*
X137553762Y-105420284D01*
X137693634Y-105493696D01*
X137847014Y-105531500D01*
X137847015Y-105531500D01*
X138004985Y-105531500D01*
X138158365Y-105493696D01*
X138177849Y-105483470D01*
X138298240Y-105420283D01*
X138363256Y-105362683D01*
X138426490Y-105332963D01*
X138445483Y-105331500D01*
X142811308Y-105331500D01*
X142811309Y-105331500D01*
X142901673Y-105307286D01*
X142925887Y-105300799D01*
X143028614Y-105241489D01*
X144734284Y-103535819D01*
X144795607Y-103502334D01*
X144821965Y-103499500D01*
X144862985Y-103499500D01*
X145016365Y-103461696D01*
X145156240Y-103388283D01*
X145274483Y-103283530D01*
X145364220Y-103153523D01*
X145420237Y-103005818D01*
X145439278Y-102849000D01*
X145438030Y-102838717D01*
X145420237Y-102692181D01*
X145398992Y-102636164D01*
X145364220Y-102544477D01*
X145274483Y-102414470D01*
X145156240Y-102309717D01*
X145156238Y-102309716D01*
X145156237Y-102309715D01*
X145016365Y-102236303D01*
X144989412Y-102229660D01*
X164800892Y-102229660D01*
X164800892Y-102229661D01*
X164814692Y-102238333D01*
X164814691Y-102238333D01*
X164984861Y-102297878D01*
X165163997Y-102318062D01*
X165164003Y-102318062D01*
X165343138Y-102297878D01*
X165343141Y-102297877D01*
X165513305Y-102238334D01*
X165513306Y-102238334D01*
X165527106Y-102229661D01*
X165527106Y-102229660D01*
X166200892Y-102229660D01*
X166200892Y-102229661D01*
X166214692Y-102238333D01*
X166214691Y-102238333D01*
X166384861Y-102297878D01*
X166563997Y-102318062D01*
X166564003Y-102318062D01*
X166743138Y-102297878D01*
X166743141Y-102297877D01*
X166913305Y-102238334D01*
X166913306Y-102238334D01*
X166927106Y-102229661D01*
X166927106Y-102229660D01*
X166564001Y-101866553D01*
X166564000Y-101866553D01*
X166200892Y-102229660D01*
X165527106Y-102229660D01*
X165164001Y-101866553D01*
X165164000Y-101866553D01*
X164800892Y-102229660D01*
X144989412Y-102229660D01*
X144862986Y-102198500D01*
X144862985Y-102198500D01*
X144705015Y-102198500D01*
X144705014Y-102198500D01*
X144551634Y-102236303D01*
X144411762Y-102309715D01*
X144293516Y-102414471D01*
X144203781Y-102544475D01*
X144203780Y-102544476D01*
X144147763Y-102692180D01*
X144131367Y-102827209D01*
X144103745Y-102891387D01*
X144095952Y-102899943D01*
X142601716Y-104394181D01*
X142540393Y-104427666D01*
X142514035Y-104430500D01*
X138445483Y-104430500D01*
X138378444Y-104410815D01*
X138363256Y-104399316D01*
X138357460Y-104394181D01*
X138298240Y-104341717D01*
X138298238Y-104341716D01*
X138298237Y-104341715D01*
X138158365Y-104268303D01*
X138004986Y-104230500D01*
X138004985Y-104230500D01*
X137847015Y-104230500D01*
X137847014Y-104230500D01*
X137693634Y-104268303D01*
X137553762Y-104341715D01*
X137435516Y-104446471D01*
X137345781Y-104576475D01*
X137345780Y-104576476D01*
X137289762Y-104724181D01*
X137270722Y-104880999D01*
X129108057Y-104880999D01*
X129063361Y-104767658D01*
X129063360Y-104767657D01*
X129063360Y-104767656D01*
X128971922Y-104647077D01*
X128851343Y-104555639D01*
X128710561Y-104500122D01*
X128664926Y-104494642D01*
X128622102Y-104489500D01*
X127285898Y-104489500D01*
X127246853Y-104494188D01*
X127197438Y-104500122D01*
X127056656Y-104555639D01*
X126936077Y-104647077D01*
X126844639Y-104767656D01*
X126789122Y-104908438D01*
X126783188Y-104957853D01*
X126778500Y-104996898D01*
X126778500Y-105783102D01*
X126784126Y-105829954D01*
X126789122Y-105871561D01*
X126844639Y-106012343D01*
X126936077Y-106132922D01*
X127056656Y-106224360D01*
X127056657Y-106224360D01*
X127056658Y-106224361D01*
X127076771Y-106232292D01*
X127131914Y-106275196D01*
X127155109Y-106341103D01*
X127138990Y-106409088D01*
X127104167Y-106447965D01*
X126962404Y-106550961D01*
X126962399Y-106550965D01*
X126839967Y-106673397D01*
X126738195Y-106813475D01*
X126659591Y-106967744D01*
X126606085Y-107132415D01*
X126604884Y-107139999D01*
X121458500Y-107139999D01*
X121458500Y-101578999D01*
X137270722Y-101578999D01*
X137270722Y-101579000D01*
X137289762Y-101735818D01*
X137337733Y-101862305D01*
X137345780Y-101883523D01*
X137435517Y-102013530D01*
X137553760Y-102118283D01*
X137553762Y-102118284D01*
X137693634Y-102191696D01*
X137847014Y-102229500D01*
X137847015Y-102229500D01*
X138004985Y-102229500D01*
X138158365Y-102191696D01*
X138298240Y-102118283D01*
X138363256Y-102060683D01*
X138426490Y-102030963D01*
X138445483Y-102029500D01*
X141253308Y-102029500D01*
X141253309Y-102029500D01*
X141343673Y-102005286D01*
X141367887Y-101998799D01*
X141470614Y-101939489D01*
X141880443Y-101529660D01*
X164100892Y-101529660D01*
X164100892Y-101529661D01*
X164114692Y-101538333D01*
X164114691Y-101538333D01*
X164284862Y-101597878D01*
X164285644Y-101598057D01*
X164286097Y-101598310D01*
X164291431Y-101600177D01*
X164291104Y-101601111D01*
X164346623Y-101632166D01*
X164375952Y-101685874D01*
X164376822Y-101685570D01*
X164378670Y-101690852D01*
X164378940Y-101691346D01*
X164379121Y-101692142D01*
X164438663Y-101862300D01*
X164438663Y-101862301D01*
X164447338Y-101876107D01*
X164810446Y-101513000D01*
X164790555Y-101493109D01*
X165064000Y-101493109D01*
X165064000Y-101532891D01*
X165079224Y-101569645D01*
X165107355Y-101597776D01*
X165144109Y-101613000D01*
X165183891Y-101613000D01*
X165220645Y-101597776D01*
X165248776Y-101569645D01*
X165264000Y-101532891D01*
X165264000Y-101512999D01*
X165517553Y-101512999D01*
X165517553Y-101513000D01*
X165864000Y-101859446D01*
X165864001Y-101859446D01*
X166210446Y-101513000D01*
X166190555Y-101493109D01*
X166464000Y-101493109D01*
X166464000Y-101532891D01*
X166479224Y-101569645D01*
X166507355Y-101597776D01*
X166544109Y-101613000D01*
X166583891Y-101613000D01*
X166620645Y-101597776D01*
X166648776Y-101569645D01*
X166664000Y-101532891D01*
X166664000Y-101512999D01*
X166917553Y-101512999D01*
X166917553Y-101513000D01*
X167280660Y-101876106D01*
X167280661Y-101876106D01*
X167289334Y-101862306D01*
X167289334Y-101862305D01*
X167348876Y-101692144D01*
X167349056Y-101691358D01*
X167349311Y-101690901D01*
X167351177Y-101685570D01*
X167352110Y-101685896D01*
X167383164Y-101630379D01*
X167436875Y-101601049D01*
X167436570Y-101600177D01*
X167441870Y-101598322D01*
X167442358Y-101598056D01*
X167443144Y-101597876D01*
X167613305Y-101538334D01*
X167613306Y-101538334D01*
X167627106Y-101529661D01*
X167627106Y-101529660D01*
X167264000Y-101166553D01*
X167198240Y-101232314D01*
X167198239Y-101232314D01*
X166917553Y-101512999D01*
X166664000Y-101512999D01*
X166664000Y-101493109D01*
X166648776Y-101456355D01*
X166620645Y-101428224D01*
X166583891Y-101413000D01*
X166544109Y-101413000D01*
X166507355Y-101428224D01*
X166479224Y-101456355D01*
X166464000Y-101493109D01*
X166190555Y-101493109D01*
X165929760Y-101232314D01*
X165864000Y-101166553D01*
X165798240Y-101232314D01*
X165798239Y-101232314D01*
X165517553Y-101512999D01*
X165264000Y-101512999D01*
X165264000Y-101493109D01*
X165248776Y-101456355D01*
X165220645Y-101428224D01*
X165183891Y-101413000D01*
X165144109Y-101413000D01*
X165107355Y-101428224D01*
X165079224Y-101456355D01*
X165064000Y-101493109D01*
X164790555Y-101493109D01*
X164463999Y-101166553D01*
X164463998Y-101166553D01*
X164100892Y-101529660D01*
X141880443Y-101529660D01*
X143101104Y-100308999D01*
X144128722Y-100308999D01*
X144128722Y-100309000D01*
X144147762Y-100465818D01*
X144163760Y-100508000D01*
X144203780Y-100613523D01*
X144293517Y-100743530D01*
X144411760Y-100848283D01*
X144411762Y-100848284D01*
X144551634Y-100921696D01*
X144705014Y-100959500D01*
X144705015Y-100959500D01*
X144862985Y-100959500D01*
X145016365Y-100921696D01*
X145032934Y-100913000D01*
X145156240Y-100848283D01*
X145196070Y-100812997D01*
X163658938Y-100812997D01*
X163658938Y-100813002D01*
X163679121Y-100992138D01*
X163738665Y-101162304D01*
X163747338Y-101176107D01*
X164110446Y-100813000D01*
X164110446Y-100812999D01*
X164090556Y-100793109D01*
X164364000Y-100793109D01*
X164364000Y-100832891D01*
X164379224Y-100869645D01*
X164407355Y-100897776D01*
X164444109Y-100913000D01*
X164483891Y-100913000D01*
X164520645Y-100897776D01*
X164548776Y-100869645D01*
X164564000Y-100832891D01*
X164564000Y-100812998D01*
X164817553Y-100812998D01*
X164817553Y-100812999D01*
X165164000Y-101159446D01*
X165475164Y-100848283D01*
X165510446Y-100812999D01*
X165510446Y-100812998D01*
X165490557Y-100793109D01*
X165764000Y-100793109D01*
X165764000Y-100832891D01*
X165779224Y-100869645D01*
X165807355Y-100897776D01*
X165844109Y-100913000D01*
X165883891Y-100913000D01*
X165920645Y-100897776D01*
X165948776Y-100869645D01*
X165964000Y-100832891D01*
X165964000Y-100812998D01*
X166217553Y-100812998D01*
X166217553Y-100812999D01*
X166564000Y-101159446D01*
X166875164Y-100848283D01*
X166910446Y-100812999D01*
X166910446Y-100812998D01*
X166890557Y-100793109D01*
X167164000Y-100793109D01*
X167164000Y-100832891D01*
X167179224Y-100869645D01*
X167207355Y-100897776D01*
X167244109Y-100913000D01*
X167283891Y-100913000D01*
X167320645Y-100897776D01*
X167348776Y-100869645D01*
X167364000Y-100832891D01*
X167364000Y-100813000D01*
X167617553Y-100813000D01*
X167980660Y-101176106D01*
X167980661Y-101176106D01*
X167989334Y-101162306D01*
X167989334Y-101162305D01*
X168048877Y-100992141D01*
X168048878Y-100992138D01*
X168069062Y-100813002D01*
X168069062Y-100812997D01*
X168048878Y-100633861D01*
X167989333Y-100463692D01*
X167980661Y-100449892D01*
X167980660Y-100449892D01*
X167617553Y-100813000D01*
X167364000Y-100813000D01*
X167364000Y-100793109D01*
X167348776Y-100756355D01*
X167320645Y-100728224D01*
X167283891Y-100713000D01*
X167244109Y-100713000D01*
X167207355Y-100728224D01*
X167179224Y-100756355D01*
X167164000Y-100793109D01*
X166890557Y-100793109D01*
X166564001Y-100466553D01*
X166564000Y-100466553D01*
X166217553Y-100812998D01*
X165964000Y-100812998D01*
X165964000Y-100793109D01*
X165948776Y-100756355D01*
X165920645Y-100728224D01*
X165883891Y-100713000D01*
X165844109Y-100713000D01*
X165807355Y-100728224D01*
X165779224Y-100756355D01*
X165764000Y-100793109D01*
X165490557Y-100793109D01*
X165164001Y-100466553D01*
X165164000Y-100466553D01*
X164817553Y-100812998D01*
X164564000Y-100812998D01*
X164564000Y-100793109D01*
X164548776Y-100756355D01*
X164520645Y-100728224D01*
X164483891Y-100713000D01*
X164444109Y-100713000D01*
X164407355Y-100728224D01*
X164379224Y-100756355D01*
X164364000Y-100793109D01*
X164090556Y-100793109D01*
X163747338Y-100449891D01*
X163747337Y-100449891D01*
X163738667Y-100463691D01*
X163738662Y-100463701D01*
X163679122Y-100633858D01*
X163679121Y-100633861D01*
X163658938Y-100812997D01*
X145196070Y-100812997D01*
X145274483Y-100743530D01*
X145364220Y-100613523D01*
X145420237Y-100465818D01*
X145436632Y-100330787D01*
X145464254Y-100266611D01*
X145472025Y-100258076D01*
X145617101Y-100113000D01*
X164117553Y-100113000D01*
X164451498Y-100446946D01*
X164451499Y-100446946D01*
X164797946Y-100100500D01*
X164797946Y-100100499D01*
X164765556Y-100068109D01*
X165064000Y-100068109D01*
X165064000Y-100107891D01*
X165079224Y-100144645D01*
X165107355Y-100172776D01*
X165144109Y-100188000D01*
X165183891Y-100188000D01*
X165220645Y-100172776D01*
X165248776Y-100144645D01*
X165264000Y-100107891D01*
X165264000Y-100100500D01*
X165530053Y-100100500D01*
X165864000Y-100434446D01*
X165864001Y-100434446D01*
X166197946Y-100100501D01*
X166197946Y-100100499D01*
X166165556Y-100068109D01*
X166464000Y-100068109D01*
X166464000Y-100107891D01*
X166479224Y-100144645D01*
X166507355Y-100172776D01*
X166544109Y-100188000D01*
X166583891Y-100188000D01*
X166620645Y-100172776D01*
X166648776Y-100144645D01*
X166664000Y-100107891D01*
X166664000Y-100100500D01*
X166930053Y-100100500D01*
X167276500Y-100446946D01*
X167276501Y-100446946D01*
X167610446Y-100113001D01*
X167610446Y-100112999D01*
X167264001Y-99766553D01*
X167264000Y-99766553D01*
X166930053Y-100100500D01*
X166664000Y-100100500D01*
X166664000Y-100068109D01*
X166648776Y-100031355D01*
X166620645Y-100003224D01*
X166583891Y-99988000D01*
X166544109Y-99988000D01*
X166507355Y-100003224D01*
X166479224Y-100031355D01*
X166464000Y-100068109D01*
X166165556Y-100068109D01*
X165864001Y-99766553D01*
X165864000Y-99766553D01*
X165530053Y-100100500D01*
X165264000Y-100100500D01*
X165264000Y-100068109D01*
X165248776Y-100031355D01*
X165220645Y-100003224D01*
X165183891Y-99988000D01*
X165144109Y-99988000D01*
X165107355Y-100003224D01*
X165079224Y-100031355D01*
X165064000Y-100068109D01*
X164765556Y-100068109D01*
X164464001Y-99766553D01*
X164464000Y-99766553D01*
X164117553Y-100113000D01*
X145617101Y-100113000D01*
X145750285Y-99979816D01*
X145811607Y-99946334D01*
X145837965Y-99943500D01*
X145878985Y-99943500D01*
X146032365Y-99905696D01*
X146172240Y-99832283D01*
X146290483Y-99727530D01*
X146380220Y-99597523D01*
X146436237Y-99449818D01*
X146440708Y-99412997D01*
X163658938Y-99412997D01*
X163658938Y-99413002D01*
X163679121Y-99592138D01*
X163738665Y-99762304D01*
X163747338Y-99776107D01*
X164110446Y-99413000D01*
X164110446Y-99412999D01*
X164090556Y-99393109D01*
X164364000Y-99393109D01*
X164364000Y-99432891D01*
X164379224Y-99469645D01*
X164407355Y-99497776D01*
X164444109Y-99513000D01*
X164483891Y-99513000D01*
X164520645Y-99497776D01*
X164548776Y-99469645D01*
X164564000Y-99432891D01*
X164564000Y-99400500D01*
X164830053Y-99400500D01*
X165164000Y-99734446D01*
X165164001Y-99734446D01*
X165497946Y-99400500D01*
X165490555Y-99393109D01*
X165764000Y-99393109D01*
X165764000Y-99432891D01*
X165779224Y-99469645D01*
X165807355Y-99497776D01*
X165844109Y-99513000D01*
X165883891Y-99513000D01*
X165920645Y-99497776D01*
X165948776Y-99469645D01*
X165964000Y-99432891D01*
X165964000Y-99400500D01*
X166230053Y-99400500D01*
X166564000Y-99734446D01*
X166564001Y-99734446D01*
X166897946Y-99400500D01*
X166890555Y-99393109D01*
X167164000Y-99393109D01*
X167164000Y-99432891D01*
X167179224Y-99469645D01*
X167207355Y-99497776D01*
X167244109Y-99513000D01*
X167283891Y-99513000D01*
X167320645Y-99497776D01*
X167348776Y-99469645D01*
X167364000Y-99432891D01*
X167364000Y-99413000D01*
X167617553Y-99413000D01*
X167980660Y-99776106D01*
X167980661Y-99776106D01*
X167989334Y-99762306D01*
X167989334Y-99762305D01*
X168048877Y-99592141D01*
X168048878Y-99592138D01*
X168069062Y-99413002D01*
X168069062Y-99412997D01*
X168048878Y-99233861D01*
X167989333Y-99063692D01*
X167980661Y-99049892D01*
X167980660Y-99049892D01*
X167617553Y-99413000D01*
X167364000Y-99413000D01*
X167364000Y-99393109D01*
X167348776Y-99356355D01*
X167320645Y-99328224D01*
X167283891Y-99313000D01*
X167244109Y-99313000D01*
X167207355Y-99328224D01*
X167179224Y-99356355D01*
X167164000Y-99393109D01*
X166890555Y-99393109D01*
X166610580Y-99113134D01*
X166564000Y-99066553D01*
X166517420Y-99113134D01*
X166517419Y-99113136D01*
X166230053Y-99400500D01*
X165964000Y-99400500D01*
X165964000Y-99393109D01*
X165948776Y-99356355D01*
X165920645Y-99328224D01*
X165883891Y-99313000D01*
X165844109Y-99313000D01*
X165807355Y-99328224D01*
X165779224Y-99356355D01*
X165764000Y-99393109D01*
X165490555Y-99393109D01*
X165210580Y-99113134D01*
X165164000Y-99066553D01*
X165117420Y-99113134D01*
X165117419Y-99113136D01*
X164830053Y-99400500D01*
X164564000Y-99400500D01*
X164564000Y-99393109D01*
X164548776Y-99356355D01*
X164520645Y-99328224D01*
X164483891Y-99313000D01*
X164444109Y-99313000D01*
X164407355Y-99328224D01*
X164379224Y-99356355D01*
X164364000Y-99393109D01*
X164090556Y-99393109D01*
X163747338Y-99049891D01*
X163747337Y-99049891D01*
X163738667Y-99063691D01*
X163738662Y-99063701D01*
X163679122Y-99233858D01*
X163679121Y-99233861D01*
X163658938Y-99412997D01*
X146440708Y-99412997D01*
X146455278Y-99293000D01*
X146436237Y-99136182D01*
X146436236Y-99136180D01*
X146407135Y-99059446D01*
X146380220Y-98988477D01*
X146290483Y-98858470D01*
X146172240Y-98753717D01*
X146172238Y-98753716D01*
X146172237Y-98753715D01*
X146062915Y-98696337D01*
X164100891Y-98696337D01*
X164100891Y-98696338D01*
X164463998Y-99059446D01*
X164463999Y-99059446D01*
X164769728Y-98753718D01*
X164810446Y-98712998D01*
X164790557Y-98693109D01*
X165064000Y-98693109D01*
X165064000Y-98732891D01*
X165079224Y-98769645D01*
X165107355Y-98797776D01*
X165144109Y-98813000D01*
X165183891Y-98813000D01*
X165220645Y-98797776D01*
X165248776Y-98769645D01*
X165264000Y-98732891D01*
X165264000Y-98712998D01*
X165517553Y-98712998D01*
X165517553Y-98712999D01*
X165864000Y-99059446D01*
X166169728Y-98753718D01*
X166210446Y-98712998D01*
X166190557Y-98693109D01*
X166464000Y-98693109D01*
X166464000Y-98732891D01*
X166479224Y-98769645D01*
X166507355Y-98797776D01*
X166544109Y-98813000D01*
X166583891Y-98813000D01*
X166620645Y-98797776D01*
X166648776Y-98769645D01*
X166664000Y-98732891D01*
X166664000Y-98712998D01*
X166917553Y-98712998D01*
X166917553Y-98712999D01*
X167264000Y-99059446D01*
X167264001Y-99059446D01*
X167627107Y-98696338D01*
X167613301Y-98687663D01*
X167443142Y-98628121D01*
X167442346Y-98627940D01*
X167441883Y-98627681D01*
X167436570Y-98625822D01*
X167436895Y-98624890D01*
X167381370Y-98593827D01*
X167352049Y-98540125D01*
X167351177Y-98540431D01*
X167349321Y-98535128D01*
X167349057Y-98534644D01*
X167348878Y-98533862D01*
X167289333Y-98363692D01*
X167280661Y-98349892D01*
X167280660Y-98349892D01*
X166917553Y-98712998D01*
X166664000Y-98712998D01*
X166664000Y-98693109D01*
X166648776Y-98656355D01*
X166620645Y-98628224D01*
X166583891Y-98613000D01*
X166544109Y-98613000D01*
X166507355Y-98628224D01*
X166479224Y-98656355D01*
X166464000Y-98693109D01*
X166190557Y-98693109D01*
X165864001Y-98366553D01*
X165864000Y-98366553D01*
X165517553Y-98712998D01*
X165264000Y-98712998D01*
X165264000Y-98693109D01*
X165248776Y-98656355D01*
X165220645Y-98628224D01*
X165183891Y-98613000D01*
X165144109Y-98613000D01*
X165107355Y-98628224D01*
X165079224Y-98656355D01*
X165064000Y-98693109D01*
X164790557Y-98693109D01*
X164447338Y-98349891D01*
X164447337Y-98349891D01*
X164438667Y-98363691D01*
X164438662Y-98363701D01*
X164379119Y-98533866D01*
X164378939Y-98534656D01*
X164378682Y-98535113D01*
X164376823Y-98540429D01*
X164375891Y-98540103D01*
X164344824Y-98595631D01*
X164291124Y-98624952D01*
X164291429Y-98625823D01*
X164286145Y-98627671D01*
X164285656Y-98627939D01*
X164284866Y-98628119D01*
X164114701Y-98687662D01*
X164114691Y-98687667D01*
X164100891Y-98696337D01*
X146062915Y-98696337D01*
X146032365Y-98680303D01*
X145878986Y-98642500D01*
X145878985Y-98642500D01*
X145721015Y-98642500D01*
X145721014Y-98642500D01*
X145567634Y-98680303D01*
X145427762Y-98753715D01*
X145309516Y-98858471D01*
X145219781Y-98988475D01*
X145219780Y-98988476D01*
X145163763Y-99136180D01*
X145147367Y-99271209D01*
X145119745Y-99335387D01*
X145111953Y-99343943D01*
X144833714Y-99622182D01*
X144772394Y-99655666D01*
X144746035Y-99658500D01*
X144705014Y-99658500D01*
X144551634Y-99696303D01*
X144411762Y-99769715D01*
X144293516Y-99874471D01*
X144203781Y-100004475D01*
X144203780Y-100004476D01*
X144147762Y-100152181D01*
X144128722Y-100308999D01*
X143101104Y-100308999D01*
X143701284Y-99708819D01*
X143762607Y-99675334D01*
X143788965Y-99672500D01*
X143829985Y-99672500D01*
X143983365Y-99634696D01*
X144054191Y-99597523D01*
X144123240Y-99561283D01*
X144241483Y-99456530D01*
X144331220Y-99326523D01*
X144387237Y-99178818D01*
X144406278Y-99022000D01*
X144402208Y-98988476D01*
X144387237Y-98865181D01*
X144361673Y-98797776D01*
X144331220Y-98717477D01*
X144241483Y-98587470D01*
X144123240Y-98482717D01*
X144123238Y-98482716D01*
X144123237Y-98482715D01*
X143983365Y-98409303D01*
X143829986Y-98371500D01*
X143829985Y-98371500D01*
X143672015Y-98371500D01*
X143672014Y-98371500D01*
X143518634Y-98409303D01*
X143378762Y-98482715D01*
X143260516Y-98587471D01*
X143170781Y-98717475D01*
X143170780Y-98717476D01*
X143114763Y-98865180D01*
X143098367Y-99000209D01*
X143070745Y-99064387D01*
X143062952Y-99072943D01*
X141043716Y-101092181D01*
X140982393Y-101125666D01*
X140956035Y-101128500D01*
X138445483Y-101128500D01*
X138378444Y-101108815D01*
X138363256Y-101097316D01*
X138357460Y-101092181D01*
X138298240Y-101039717D01*
X138298238Y-101039716D01*
X138298237Y-101039715D01*
X138158365Y-100966303D01*
X138004986Y-100928500D01*
X138004985Y-100928500D01*
X137847015Y-100928500D01*
X137847014Y-100928500D01*
X137693634Y-100966303D01*
X137553762Y-101039715D01*
X137435516Y-101144471D01*
X137345781Y-101274475D01*
X137345780Y-101274476D01*
X137289762Y-101422181D01*
X137270722Y-101578999D01*
X121458500Y-101578999D01*
X121458500Y-99113131D01*
X123558500Y-99113131D01*
X123558500Y-100902856D01*
X123558502Y-100902882D01*
X123561413Y-100927987D01*
X123561415Y-100927991D01*
X123606793Y-101030764D01*
X123606794Y-101030765D01*
X123686235Y-101110206D01*
X123789009Y-101155585D01*
X123814135Y-101158500D01*
X125603864Y-101158499D01*
X125603879Y-101158497D01*
X125603882Y-101158497D01*
X125628987Y-101155586D01*
X125628988Y-101155585D01*
X125628991Y-101155585D01*
X125731765Y-101110206D01*
X125811206Y-101030765D01*
X125856585Y-100927991D01*
X125859500Y-100902865D01*
X125859499Y-100770516D01*
X125879183Y-100703480D01*
X125931987Y-100657725D01*
X126001145Y-100647781D01*
X126064701Y-100676805D01*
X126085073Y-100699395D01*
X126210890Y-100879078D01*
X126377917Y-101046105D01*
X126571421Y-101181600D01*
X126785507Y-101281429D01*
X126785516Y-101281433D01*
X126999000Y-101338634D01*
X126999000Y-100441012D01*
X127056007Y-100473925D01*
X127183174Y-100508000D01*
X127314826Y-100508000D01*
X127441993Y-100473925D01*
X127499000Y-100441012D01*
X127499000Y-101338633D01*
X127712483Y-101281433D01*
X127712492Y-101281429D01*
X127926578Y-101181600D01*
X128120082Y-101046105D01*
X128287105Y-100879082D01*
X128422600Y-100685578D01*
X128522429Y-100471492D01*
X128522432Y-100471486D01*
X128579636Y-100258000D01*
X127682012Y-100258000D01*
X127714925Y-100200993D01*
X127749000Y-100073826D01*
X127749000Y-99942174D01*
X127714925Y-99815007D01*
X127682012Y-99758000D01*
X128579636Y-99758000D01*
X128579635Y-99757999D01*
X128522432Y-99544513D01*
X128522429Y-99544507D01*
X128422600Y-99330422D01*
X128422599Y-99330420D01*
X128287113Y-99136926D01*
X128287108Y-99136920D01*
X128120082Y-98969894D01*
X127926578Y-98834399D01*
X127712492Y-98734570D01*
X127712486Y-98734567D01*
X127499000Y-98677364D01*
X127499000Y-99574988D01*
X127441993Y-99542075D01*
X127314826Y-99508000D01*
X127183174Y-99508000D01*
X127056007Y-99542075D01*
X126999000Y-99574988D01*
X126999000Y-98677364D01*
X126998999Y-98677364D01*
X126785513Y-98734567D01*
X126785507Y-98734570D01*
X126571422Y-98834399D01*
X126571420Y-98834400D01*
X126377926Y-98969886D01*
X126377920Y-98969891D01*
X126210891Y-99136920D01*
X126210890Y-99136922D01*
X126085074Y-99316606D01*
X126030497Y-99360230D01*
X125960998Y-99367423D01*
X125898644Y-99335901D01*
X125863230Y-99275671D01*
X125859499Y-99245482D01*
X125859499Y-99113135D01*
X125859497Y-99113117D01*
X125856586Y-99088012D01*
X125856585Y-99088010D01*
X125856585Y-99088009D01*
X125811206Y-98985235D01*
X125731765Y-98905794D01*
X125731763Y-98905793D01*
X125628992Y-98860415D01*
X125603865Y-98857500D01*
X123814143Y-98857500D01*
X123814117Y-98857502D01*
X123789012Y-98860413D01*
X123789008Y-98860415D01*
X123686235Y-98905793D01*
X123606794Y-98985234D01*
X123561415Y-99088006D01*
X123561415Y-99088008D01*
X123558500Y-99113131D01*
X121458500Y-99113131D01*
X121458500Y-97996337D01*
X164800891Y-97996337D01*
X164800891Y-97996338D01*
X165164000Y-98359446D01*
X165164001Y-98359446D01*
X165527107Y-97996338D01*
X165527105Y-97996337D01*
X166200891Y-97996337D01*
X166200891Y-97996338D01*
X166564000Y-98359446D01*
X166564001Y-98359446D01*
X166927107Y-97996338D01*
X166913304Y-97987665D01*
X166743138Y-97928121D01*
X166564003Y-97907938D01*
X166563997Y-97907938D01*
X166384861Y-97928121D01*
X166384858Y-97928122D01*
X166214701Y-97987662D01*
X166214691Y-97987667D01*
X166200891Y-97996337D01*
X165527105Y-97996337D01*
X165513304Y-97987665D01*
X165343138Y-97928121D01*
X165164003Y-97907938D01*
X165163997Y-97907938D01*
X164984861Y-97928121D01*
X164984858Y-97928122D01*
X164814701Y-97987662D01*
X164814691Y-97987667D01*
X164800891Y-97996337D01*
X121458500Y-97996337D01*
X121458500Y-95112994D01*
X124698357Y-95112994D01*
X124698357Y-95113005D01*
X124718890Y-95360812D01*
X124718892Y-95360824D01*
X124779936Y-95601881D01*
X124879826Y-95829606D01*
X125015833Y-96037782D01*
X125015836Y-96037785D01*
X125184256Y-96220738D01*
X125380491Y-96373474D01*
X125599190Y-96491828D01*
X125834386Y-96572571D01*
X126079665Y-96613500D01*
X126328335Y-96613500D01*
X126573614Y-96572571D01*
X126808810Y-96491828D01*
X127027509Y-96373474D01*
X127223744Y-96220738D01*
X127392164Y-96037785D01*
X127528173Y-95829607D01*
X127628063Y-95601881D01*
X127689108Y-95360821D01*
X127709643Y-95113000D01*
X127689108Y-94865179D01*
X127628063Y-94624119D01*
X127528173Y-94396393D01*
X127392166Y-94188217D01*
X127370557Y-94164744D01*
X127223744Y-94005262D01*
X127027509Y-93852526D01*
X127027507Y-93852525D01*
X127027506Y-93852524D01*
X126808811Y-93734172D01*
X126808802Y-93734169D01*
X126573616Y-93653429D01*
X126328335Y-93612500D01*
X126079665Y-93612500D01*
X125834383Y-93653429D01*
X125599197Y-93734169D01*
X125599188Y-93734172D01*
X125380493Y-93852524D01*
X125184257Y-94005261D01*
X125015833Y-94188217D01*
X124879826Y-94396393D01*
X124779936Y-94624118D01*
X124718892Y-94865175D01*
X124718890Y-94865187D01*
X124698357Y-95112994D01*
X121458500Y-95112994D01*
X121458500Y-90365155D01*
X124504000Y-90365155D01*
X124504000Y-91363000D01*
X125655518Y-91363000D01*
X125644889Y-91381409D01*
X125604000Y-91534009D01*
X125604000Y-91691991D01*
X125644889Y-91844591D01*
X125655518Y-91863000D01*
X124504000Y-91863000D01*
X124504000Y-92860844D01*
X124510401Y-92920372D01*
X124510403Y-92920379D01*
X124560645Y-93055086D01*
X124560649Y-93055093D01*
X124646809Y-93170187D01*
X124646812Y-93170190D01*
X124761906Y-93256350D01*
X124761913Y-93256354D01*
X124896620Y-93306596D01*
X124896627Y-93306598D01*
X124956155Y-93312999D01*
X124956172Y-93313000D01*
X125954000Y-93313000D01*
X125954000Y-92161482D01*
X125972409Y-92172111D01*
X126125009Y-92213000D01*
X126282991Y-92213000D01*
X126435591Y-92172111D01*
X126454000Y-92161482D01*
X126454000Y-93313000D01*
X127451828Y-93313000D01*
X127451844Y-93312999D01*
X127511372Y-93306598D01*
X127511379Y-93306596D01*
X127646086Y-93256354D01*
X127646093Y-93256350D01*
X127761187Y-93170190D01*
X127761190Y-93170187D01*
X127847350Y-93055093D01*
X127847354Y-93055086D01*
X127897596Y-92920379D01*
X127897598Y-92920372D01*
X127903999Y-92860844D01*
X127904000Y-92860827D01*
X127904000Y-91863000D01*
X126752482Y-91863000D01*
X126763111Y-91844591D01*
X126804000Y-91691991D01*
X126804000Y-91534009D01*
X126763111Y-91381409D01*
X126752482Y-91363000D01*
X127904000Y-91363000D01*
X127904000Y-90365172D01*
X127903999Y-90365155D01*
X127897598Y-90305627D01*
X127897596Y-90305620D01*
X127847354Y-90170913D01*
X127847350Y-90170906D01*
X127761190Y-90055812D01*
X127761187Y-90055809D01*
X127646093Y-89969649D01*
X127646086Y-89969645D01*
X127511379Y-89919403D01*
X127511372Y-89919401D01*
X127451844Y-89913000D01*
X126454000Y-89913000D01*
X126454000Y-91064517D01*
X126435591Y-91053889D01*
X126282991Y-91013000D01*
X126125009Y-91013000D01*
X125972409Y-91053889D01*
X125954000Y-91064517D01*
X125954000Y-89913000D01*
X124956155Y-89913000D01*
X124896627Y-89919401D01*
X124896620Y-89919403D01*
X124761913Y-89969645D01*
X124761906Y-89969649D01*
X124646812Y-90055809D01*
X124646809Y-90055812D01*
X124560649Y-90170906D01*
X124560645Y-90170913D01*
X124510403Y-90305620D01*
X124510401Y-90305627D01*
X124504000Y-90365155D01*
X121458500Y-90365155D01*
X121458500Y-89407999D01*
X166476722Y-89407999D01*
X166476722Y-89408000D01*
X166495762Y-89564818D01*
X166551780Y-89712523D01*
X166641517Y-89842530D01*
X166759760Y-89947283D01*
X166759762Y-89947284D01*
X166899634Y-90020696D01*
X167053014Y-90058500D01*
X167053015Y-90058500D01*
X167210985Y-90058500D01*
X167364365Y-90020696D01*
X167455805Y-89972703D01*
X167513431Y-89958500D01*
X168474472Y-89958500D01*
X168474474Y-89958500D01*
X168474475Y-89958500D01*
X168614485Y-89920984D01*
X168740015Y-89848510D01*
X171061623Y-87526900D01*
X171119628Y-87494186D01*
X171150959Y-87486464D01*
X171174362Y-87480697D01*
X171174363Y-87480696D01*
X171174365Y-87480696D01*
X171314240Y-87407283D01*
X171432483Y-87302530D01*
X171522220Y-87172523D01*
X171578237Y-87024818D01*
X171597278Y-86868000D01*
X171578237Y-86711182D01*
X171522220Y-86563477D01*
X171432483Y-86433470D01*
X171314240Y-86328717D01*
X171314238Y-86328716D01*
X171314237Y-86328715D01*
X171174365Y-86255303D01*
X171020986Y-86217500D01*
X171020985Y-86217500D01*
X170863015Y-86217500D01*
X170863014Y-86217500D01*
X170709634Y-86255303D01*
X170569762Y-86328715D01*
X170451516Y-86433471D01*
X170361781Y-86563475D01*
X170361780Y-86563476D01*
X170306325Y-86709699D01*
X170278064Y-86753409D01*
X168210294Y-88821181D01*
X168148971Y-88854666D01*
X168122613Y-88857500D01*
X167513431Y-88857500D01*
X167455805Y-88843296D01*
X167364365Y-88795304D01*
X167364364Y-88795303D01*
X167364363Y-88795303D01*
X167210986Y-88757500D01*
X167210985Y-88757500D01*
X167053015Y-88757500D01*
X167053014Y-88757500D01*
X166899634Y-88795303D01*
X166759762Y-88868715D01*
X166641516Y-88973471D01*
X166551781Y-89103475D01*
X166551780Y-89103476D01*
X166495762Y-89251181D01*
X166476722Y-89407999D01*
X121458500Y-89407999D01*
X121458500Y-83710346D01*
X126199034Y-83710346D01*
X126199034Y-83710351D01*
X126218858Y-83936948D01*
X126218860Y-83936959D01*
X126277730Y-84156666D01*
X126277735Y-84156680D01*
X126373863Y-84362827D01*
X126424974Y-84435821D01*
X127104000Y-83756795D01*
X127104000Y-83763010D01*
X127131259Y-83864743D01*
X127183920Y-83955955D01*
X127258394Y-84030429D01*
X127349606Y-84083090D01*
X127451339Y-84110349D01*
X127457553Y-84110349D01*
X126778526Y-84789374D01*
X126851513Y-84840481D01*
X126851521Y-84840485D01*
X127057668Y-84936613D01*
X127057682Y-84936618D01*
X127277389Y-84995488D01*
X127277400Y-84995490D01*
X127503998Y-85015315D01*
X127504002Y-85015315D01*
X127730599Y-84995490D01*
X127730610Y-84995488D01*
X127950317Y-84936618D01*
X127950331Y-84936613D01*
X128156478Y-84840485D01*
X128229471Y-84789373D01*
X127550447Y-84110349D01*
X127556661Y-84110349D01*
X127658394Y-84083090D01*
X127749606Y-84030429D01*
X127824080Y-83955955D01*
X127876741Y-83864743D01*
X127904000Y-83763010D01*
X127904000Y-83756796D01*
X128583024Y-84435820D01*
X128634136Y-84362827D01*
X128730264Y-84156680D01*
X128730269Y-84156666D01*
X128789139Y-83936959D01*
X128789141Y-83936948D01*
X128808966Y-83710351D01*
X128808966Y-83710346D01*
X128789141Y-83483749D01*
X128789139Y-83483738D01*
X128730269Y-83264031D01*
X128730264Y-83264017D01*
X128634136Y-83057870D01*
X128634132Y-83057862D01*
X128583025Y-82984875D01*
X127904000Y-83663900D01*
X127904000Y-83657688D01*
X127876741Y-83555955D01*
X127824080Y-83464743D01*
X127749606Y-83390269D01*
X127658394Y-83337608D01*
X127556661Y-83310349D01*
X127550448Y-83310349D01*
X128229472Y-82631323D01*
X128156478Y-82580212D01*
X127950331Y-82484084D01*
X127950317Y-82484079D01*
X127730610Y-82425209D01*
X127730599Y-82425207D01*
X127504002Y-82405383D01*
X127503998Y-82405383D01*
X127277400Y-82425207D01*
X127277389Y-82425209D01*
X127057682Y-82484079D01*
X127057673Y-82484083D01*
X126851516Y-82580215D01*
X126851512Y-82580217D01*
X126778526Y-82631322D01*
X126778526Y-82631323D01*
X127457553Y-83310349D01*
X127451339Y-83310349D01*
X127349606Y-83337608D01*
X127258394Y-83390269D01*
X127183920Y-83464743D01*
X127131259Y-83555955D01*
X127104000Y-83657688D01*
X127104000Y-83663901D01*
X126424974Y-82984875D01*
X126424973Y-82984875D01*
X126373868Y-83057861D01*
X126373866Y-83057865D01*
X126277734Y-83264022D01*
X126277730Y-83264031D01*
X126218860Y-83483738D01*
X126218858Y-83483749D01*
X126199034Y-83710346D01*
X121458500Y-83710346D01*
X121458500Y-79365480D01*
X126403500Y-79365480D01*
X126403500Y-81055205D01*
X126403502Y-81055231D01*
X126406413Y-81080336D01*
X126406415Y-81080340D01*
X126451793Y-81183113D01*
X126451794Y-81183114D01*
X126531235Y-81262555D01*
X126634009Y-81307934D01*
X126659135Y-81310849D01*
X128348864Y-81310848D01*
X128348879Y-81310846D01*
X128348882Y-81310846D01*
X128373987Y-81307935D01*
X128373988Y-81307934D01*
X128373991Y-81307934D01*
X128476765Y-81262555D01*
X128556206Y-81183114D01*
X128601585Y-81080340D01*
X128604500Y-81055214D01*
X128604499Y-79365485D01*
X128604497Y-79365466D01*
X128601586Y-79340361D01*
X128601585Y-79340359D01*
X128601585Y-79340358D01*
X128556206Y-79237584D01*
X128476765Y-79158143D01*
X128476763Y-79158142D01*
X128373992Y-79112764D01*
X128348865Y-79109849D01*
X126659143Y-79109849D01*
X126659117Y-79109851D01*
X126634012Y-79112762D01*
X126634008Y-79112764D01*
X126531235Y-79158142D01*
X126451794Y-79237583D01*
X126406415Y-79340355D01*
X126406415Y-79340357D01*
X126403500Y-79365480D01*
X121458500Y-79365480D01*
X121458500Y-65679713D01*
X124125500Y-65679713D01*
X124125500Y-65892286D01*
X124150544Y-66050412D01*
X124158754Y-66102243D01*
X124215045Y-66275489D01*
X124224444Y-66304414D01*
X124320951Y-66493820D01*
X124445890Y-66665786D01*
X124596213Y-66816109D01*
X124768179Y-66941048D01*
X124768181Y-66941049D01*
X124768184Y-66941051D01*
X124957588Y-67037557D01*
X125159757Y-67103246D01*
X125369713Y-67136500D01*
X125369714Y-67136500D01*
X125582286Y-67136500D01*
X125582287Y-67136500D01*
X125792243Y-67103246D01*
X125994412Y-67037557D01*
X126183816Y-66941051D01*
X126310176Y-66849246D01*
X126355786Y-66816109D01*
X126355788Y-66816106D01*
X126355792Y-66816104D01*
X126506104Y-66665792D01*
X126506106Y-66665788D01*
X126506109Y-66665786D01*
X126631048Y-66493820D01*
X126631047Y-66493820D01*
X126631051Y-66493816D01*
X126727557Y-66304412D01*
X126793246Y-66102243D01*
X126826500Y-65892287D01*
X126826500Y-65679713D01*
X126793246Y-65469757D01*
X126727557Y-65267588D01*
X126631051Y-65078184D01*
X126631049Y-65078181D01*
X126631048Y-65078179D01*
X126506109Y-64906213D01*
X126355786Y-64755890D01*
X126183820Y-64630951D01*
X125994414Y-64534444D01*
X125994413Y-64534443D01*
X125994412Y-64534443D01*
X125792243Y-64468754D01*
X125792241Y-64468753D01*
X125792240Y-64468753D01*
X125597446Y-64437901D01*
X125582287Y-64435500D01*
X125369713Y-64435500D01*
X125354554Y-64437901D01*
X125159760Y-64468753D01*
X124957585Y-64534444D01*
X124768179Y-64630951D01*
X124596213Y-64755890D01*
X124445890Y-64906213D01*
X124320951Y-65078179D01*
X124224444Y-65267585D01*
X124158753Y-65469760D01*
X124125500Y-65679713D01*
X121458500Y-65679713D01*
X121458500Y-63965155D01*
X132154000Y-63965155D01*
X132154000Y-64613000D01*
X133070988Y-64613000D01*
X133038075Y-64670007D01*
X133004000Y-64797174D01*
X133004000Y-64928826D01*
X133038075Y-65055993D01*
X133070988Y-65113000D01*
X132154000Y-65113000D01*
X132154000Y-65760844D01*
X132160401Y-65820372D01*
X132160403Y-65820379D01*
X132210645Y-65955086D01*
X132210649Y-65955093D01*
X132296809Y-66070187D01*
X132296812Y-66070190D01*
X132411906Y-66156350D01*
X132411913Y-66156354D01*
X132546620Y-66206596D01*
X132546627Y-66206598D01*
X132606155Y-66212999D01*
X132606172Y-66213000D01*
X132804634Y-66213000D01*
X132871673Y-66232685D01*
X132917428Y-66285489D01*
X132927372Y-66354647D01*
X132898347Y-66418203D01*
X132869911Y-66442427D01*
X132807701Y-66480945D01*
X132650127Y-66624593D01*
X132521632Y-66794746D01*
X132426596Y-66985605D01*
X132426596Y-66985607D01*
X132368244Y-67190689D01*
X132348571Y-67402999D01*
X132348571Y-67403000D01*
X132368244Y-67615310D01*
X132426596Y-67820392D01*
X132426596Y-67820394D01*
X132521632Y-68011253D01*
X132642576Y-68171407D01*
X132650128Y-68181407D01*
X132807698Y-68325052D01*
X132988981Y-68437298D01*
X133187802Y-68514321D01*
X133384613Y-68551111D01*
X133446893Y-68582779D01*
X133482166Y-68643092D01*
X133479232Y-68712900D01*
X133439023Y-68770040D01*
X133384613Y-68794888D01*
X133187802Y-68831679D01*
X133187799Y-68831679D01*
X133187799Y-68831680D01*
X132988982Y-68908701D01*
X132988980Y-68908702D01*
X132807699Y-69020947D01*
X132650127Y-69164593D01*
X132521632Y-69334746D01*
X132426596Y-69525605D01*
X132426596Y-69525607D01*
X132368244Y-69730689D01*
X132348571Y-69942999D01*
X132348571Y-69943000D01*
X132368244Y-70155310D01*
X132426596Y-70360392D01*
X132426596Y-70360394D01*
X132521632Y-70551253D01*
X132642576Y-70711407D01*
X132650128Y-70721407D01*
X132807698Y-70865052D01*
X132988981Y-70977298D01*
X133187802Y-71054321D01*
X133397390Y-71093500D01*
X133397392Y-71093500D01*
X133610608Y-71093500D01*
X133610610Y-71093500D01*
X133820198Y-71054321D01*
X134019019Y-70977298D01*
X134200302Y-70865052D01*
X134357872Y-70721407D01*
X134486366Y-70551255D01*
X134581405Y-70360389D01*
X134639756Y-70155310D01*
X134659429Y-69943000D01*
X134639756Y-69730690D01*
X134581405Y-69525611D01*
X134581403Y-69525606D01*
X134581403Y-69525605D01*
X134486367Y-69334746D01*
X134357872Y-69164593D01*
X134303025Y-69114593D01*
X134200302Y-69020948D01*
X134019019Y-68908702D01*
X134019017Y-68908701D01*
X133889950Y-68858701D01*
X133820198Y-68831679D01*
X133623385Y-68794888D01*
X133561106Y-68763221D01*
X133525833Y-68702908D01*
X133528767Y-68633100D01*
X133568976Y-68575960D01*
X133623384Y-68551111D01*
X133820198Y-68514321D01*
X134019019Y-68437298D01*
X134200302Y-68325052D01*
X134357872Y-68181407D01*
X134486366Y-68011255D01*
X134581405Y-67820389D01*
X134639756Y-67615310D01*
X134659429Y-67403000D01*
X134639756Y-67190690D01*
X134581405Y-66985611D01*
X134581403Y-66985606D01*
X134581403Y-66985605D01*
X134486367Y-66794746D01*
X134357872Y-66624593D01*
X134303025Y-66574593D01*
X134200302Y-66480948D01*
X134200299Y-66480946D01*
X134200298Y-66480945D01*
X134138089Y-66442427D01*
X134091453Y-66390399D01*
X134080349Y-66321418D01*
X134108302Y-66257383D01*
X134166437Y-66218627D01*
X134203366Y-66213000D01*
X134401828Y-66213000D01*
X134401844Y-66212999D01*
X134461372Y-66206598D01*
X134461379Y-66206596D01*
X134596086Y-66156354D01*
X134596093Y-66156350D01*
X134711187Y-66070190D01*
X134711190Y-66070187D01*
X134797350Y-65955093D01*
X134797354Y-65955086D01*
X134847596Y-65820379D01*
X134847598Y-65820372D01*
X134853999Y-65760844D01*
X134854000Y-65760827D01*
X134854000Y-65113000D01*
X133937012Y-65113000D01*
X133969925Y-65055993D01*
X134004000Y-64928826D01*
X134004000Y-64797174D01*
X133969925Y-64670007D01*
X133937012Y-64613000D01*
X134854000Y-64613000D01*
X134854000Y-63965172D01*
X134853999Y-63965155D01*
X134851311Y-63940155D01*
X137654000Y-63940155D01*
X137654000Y-64588000D01*
X138570988Y-64588000D01*
X138538075Y-64645007D01*
X138504000Y-64772174D01*
X138504000Y-64903826D01*
X138538075Y-65030993D01*
X138570988Y-65088000D01*
X137654000Y-65088000D01*
X137654000Y-65735844D01*
X137660401Y-65795372D01*
X137660403Y-65795379D01*
X137710645Y-65930086D01*
X137710649Y-65930093D01*
X137796809Y-66045187D01*
X137796812Y-66045190D01*
X137911906Y-66131350D01*
X137911913Y-66131354D01*
X138046620Y-66181596D01*
X138046627Y-66181598D01*
X138106155Y-66187999D01*
X138106172Y-66188000D01*
X138304634Y-66188000D01*
X138371673Y-66207685D01*
X138417428Y-66260489D01*
X138427372Y-66329647D01*
X138398347Y-66393203D01*
X138369911Y-66417427D01*
X138307701Y-66455945D01*
X138150127Y-66599593D01*
X138021632Y-66769746D01*
X137926596Y-66960605D01*
X137926596Y-66960607D01*
X137868244Y-67165689D01*
X137848571Y-67377999D01*
X137848571Y-67378000D01*
X137868244Y-67590310D01*
X137926596Y-67795392D01*
X137926596Y-67795394D01*
X138021632Y-67986253D01*
X138150127Y-68156406D01*
X138150128Y-68156407D01*
X138307698Y-68300052D01*
X138488981Y-68412298D01*
X138687802Y-68489321D01*
X138884613Y-68526111D01*
X138946893Y-68557779D01*
X138982166Y-68618092D01*
X138979232Y-68687900D01*
X138939023Y-68745040D01*
X138884613Y-68769888D01*
X138687802Y-68806679D01*
X138687799Y-68806679D01*
X138687799Y-68806680D01*
X138488982Y-68883701D01*
X138488980Y-68883702D01*
X138307699Y-68995947D01*
X138150127Y-69139593D01*
X138021632Y-69309746D01*
X137926596Y-69500605D01*
X137926596Y-69500607D01*
X137868244Y-69705689D01*
X137848571Y-69917999D01*
X137848571Y-69918000D01*
X137868244Y-70130310D01*
X137926596Y-70335392D01*
X137926596Y-70335394D01*
X138021632Y-70526253D01*
X138150127Y-70696406D01*
X138150128Y-70696407D01*
X138307698Y-70840052D01*
X138488981Y-70952298D01*
X138687802Y-71029321D01*
X138897390Y-71068500D01*
X138897392Y-71068500D01*
X139110608Y-71068500D01*
X139110610Y-71068500D01*
X139320198Y-71029321D01*
X139519019Y-70952298D01*
X139700302Y-70840052D01*
X139857872Y-70696407D01*
X139986366Y-70526255D01*
X139998815Y-70501253D01*
X140081403Y-70335394D01*
X140081403Y-70335393D01*
X140081405Y-70335389D01*
X140139756Y-70130310D01*
X140159429Y-69918000D01*
X140139756Y-69705690D01*
X140081405Y-69500611D01*
X140081403Y-69500606D01*
X140081403Y-69500605D01*
X139986367Y-69309746D01*
X139857872Y-69139593D01*
X139830448Y-69114593D01*
X139700302Y-68995948D01*
X139519019Y-68883702D01*
X139519017Y-68883701D01*
X139419608Y-68845190D01*
X139320198Y-68806679D01*
X139123385Y-68769888D01*
X139061106Y-68738221D01*
X139025833Y-68677908D01*
X139028767Y-68608100D01*
X139068976Y-68550960D01*
X139123384Y-68526111D01*
X139320198Y-68489321D01*
X139519019Y-68412298D01*
X139700302Y-68300052D01*
X139857872Y-68156407D01*
X139986366Y-67986255D01*
X139998815Y-67961253D01*
X140081403Y-67795394D01*
X140081403Y-67795393D01*
X140081405Y-67795389D01*
X140139756Y-67590310D01*
X140159429Y-67378000D01*
X140139756Y-67165690D01*
X140081405Y-66960611D01*
X140081403Y-66960606D01*
X140081403Y-66960605D01*
X139986367Y-66769746D01*
X139857872Y-66599593D01*
X139741845Y-66493820D01*
X139700302Y-66455948D01*
X139700299Y-66455946D01*
X139700298Y-66455945D01*
X139638089Y-66417427D01*
X139591453Y-66365399D01*
X139580349Y-66296418D01*
X139608302Y-66232383D01*
X139666437Y-66193627D01*
X139703366Y-66188000D01*
X139901828Y-66188000D01*
X139901844Y-66187999D01*
X139961372Y-66181598D01*
X139961379Y-66181596D01*
X140096086Y-66131354D01*
X140096093Y-66131350D01*
X140211187Y-66045190D01*
X140211190Y-66045187D01*
X140297350Y-65930093D01*
X140297354Y-65930086D01*
X140347596Y-65795379D01*
X140347598Y-65795372D01*
X140353999Y-65735844D01*
X140354000Y-65735827D01*
X140354000Y-65088000D01*
X139437012Y-65088000D01*
X139469925Y-65030993D01*
X139504000Y-64903826D01*
X139504000Y-64772174D01*
X139469925Y-64645007D01*
X139437012Y-64588000D01*
X140354000Y-64588000D01*
X140354000Y-63955155D01*
X143154000Y-63955155D01*
X143154000Y-64603000D01*
X144070988Y-64603000D01*
X144038075Y-64660007D01*
X144004000Y-64787174D01*
X144004000Y-64918826D01*
X144038075Y-65045993D01*
X144070988Y-65103000D01*
X143154000Y-65103000D01*
X143154000Y-65750844D01*
X143160401Y-65810372D01*
X143160403Y-65810379D01*
X143210645Y-65945086D01*
X143210649Y-65945093D01*
X143296809Y-66060187D01*
X143296812Y-66060190D01*
X143411906Y-66146350D01*
X143411913Y-66146354D01*
X143546620Y-66196596D01*
X143546627Y-66196598D01*
X143606155Y-66202999D01*
X143606172Y-66203000D01*
X143804634Y-66203000D01*
X143871673Y-66222685D01*
X143917428Y-66275489D01*
X143927372Y-66344647D01*
X143898347Y-66408203D01*
X143869911Y-66432427D01*
X143807701Y-66470945D01*
X143650127Y-66614593D01*
X143521632Y-66784746D01*
X143426596Y-66975605D01*
X143426596Y-66975607D01*
X143368244Y-67180689D01*
X143352278Y-67352999D01*
X143348571Y-67393000D01*
X143368244Y-67605310D01*
X143422328Y-67795394D01*
X143426596Y-67810392D01*
X143426596Y-67810394D01*
X143521632Y-68001253D01*
X143638800Y-68156407D01*
X143650128Y-68171407D01*
X143807698Y-68315052D01*
X143988981Y-68427298D01*
X144187802Y-68504321D01*
X144384613Y-68541111D01*
X144446893Y-68572779D01*
X144482166Y-68633092D01*
X144479232Y-68702900D01*
X144439023Y-68760040D01*
X144384613Y-68784888D01*
X144187802Y-68821679D01*
X144187799Y-68821679D01*
X144187799Y-68821680D01*
X143988982Y-68898701D01*
X143988980Y-68898702D01*
X143807699Y-69010947D01*
X143650127Y-69154593D01*
X143521632Y-69324746D01*
X143426596Y-69515605D01*
X143426596Y-69515607D01*
X143368244Y-69720689D01*
X143352278Y-69892999D01*
X143348571Y-69933000D01*
X143368244Y-70145310D01*
X143422328Y-70335394D01*
X143426596Y-70350392D01*
X143426596Y-70350394D01*
X143521632Y-70541253D01*
X143638800Y-70696407D01*
X143650128Y-70711407D01*
X143807698Y-70855052D01*
X143988981Y-70967298D01*
X144187802Y-71044321D01*
X144397390Y-71083500D01*
X144397392Y-71083500D01*
X144610608Y-71083500D01*
X144610610Y-71083500D01*
X144820198Y-71044321D01*
X145019019Y-70967298D01*
X145200302Y-70855052D01*
X145357872Y-70711407D01*
X145486366Y-70541255D01*
X145493836Y-70526253D01*
X145581403Y-70350394D01*
X145581403Y-70350393D01*
X145581405Y-70350389D01*
X145639756Y-70145310D01*
X145659429Y-69933000D01*
X145639756Y-69720690D01*
X145581405Y-69515611D01*
X145581403Y-69515606D01*
X145581403Y-69515605D01*
X145486367Y-69324746D01*
X145357872Y-69154593D01*
X145211271Y-69020948D01*
X145200302Y-69010948D01*
X145019019Y-68898702D01*
X145019017Y-68898701D01*
X144915764Y-68858701D01*
X144820198Y-68821679D01*
X144623385Y-68784888D01*
X144561106Y-68753221D01*
X144525833Y-68692908D01*
X144528767Y-68623100D01*
X144568976Y-68565960D01*
X144623384Y-68541111D01*
X144820198Y-68504321D01*
X145019019Y-68427298D01*
X145200302Y-68315052D01*
X145357872Y-68171407D01*
X145486366Y-68001255D01*
X145493836Y-67986253D01*
X145581403Y-67810394D01*
X145581403Y-67810393D01*
X145581405Y-67810389D01*
X145639756Y-67605310D01*
X145659429Y-67393000D01*
X145639756Y-67180690D01*
X145581405Y-66975611D01*
X145581403Y-66975606D01*
X145581403Y-66975605D01*
X145486367Y-66784746D01*
X145357872Y-66614593D01*
X145300300Y-66562109D01*
X145200302Y-66470948D01*
X145200299Y-66470946D01*
X145200298Y-66470945D01*
X145138089Y-66432427D01*
X145091453Y-66380399D01*
X145080349Y-66311418D01*
X145108302Y-66247383D01*
X145166437Y-66208627D01*
X145203366Y-66203000D01*
X145401828Y-66203000D01*
X145401844Y-66202999D01*
X145461372Y-66196598D01*
X145461379Y-66196596D01*
X145596086Y-66146354D01*
X145596093Y-66146350D01*
X145711187Y-66060190D01*
X145711190Y-66060187D01*
X145797350Y-65945093D01*
X145797354Y-65945086D01*
X145847596Y-65810379D01*
X145847598Y-65810372D01*
X145853999Y-65750844D01*
X145854000Y-65750827D01*
X145854000Y-65103000D01*
X144937012Y-65103000D01*
X144969925Y-65045993D01*
X145004000Y-64918826D01*
X145004000Y-64787174D01*
X144969925Y-64660007D01*
X144937012Y-64603000D01*
X145854000Y-64603000D01*
X145854000Y-63955172D01*
X145853999Y-63955155D01*
X145852386Y-63940155D01*
X148154000Y-63940155D01*
X148154000Y-64588000D01*
X149070988Y-64588000D01*
X149038075Y-64645007D01*
X149004000Y-64772174D01*
X149004000Y-64903826D01*
X149038075Y-65030993D01*
X149070988Y-65088000D01*
X148154000Y-65088000D01*
X148154000Y-65735844D01*
X148160401Y-65795372D01*
X148160403Y-65795379D01*
X148210645Y-65930086D01*
X148210649Y-65930093D01*
X148296809Y-66045187D01*
X148296812Y-66045190D01*
X148411906Y-66131350D01*
X148411913Y-66131354D01*
X148546620Y-66181596D01*
X148546627Y-66181598D01*
X148606155Y-66187999D01*
X148606172Y-66188000D01*
X148804634Y-66188000D01*
X148871673Y-66207685D01*
X148917428Y-66260489D01*
X148927372Y-66329647D01*
X148898347Y-66393203D01*
X148869911Y-66417427D01*
X148807701Y-66455945D01*
X148650127Y-66599593D01*
X148521632Y-66769746D01*
X148426596Y-66960605D01*
X148426596Y-66960607D01*
X148368244Y-67165689D01*
X148348571Y-67377999D01*
X148348571Y-67378000D01*
X148368244Y-67590310D01*
X148426596Y-67795392D01*
X148426596Y-67795394D01*
X148521632Y-67986253D01*
X148650127Y-68156406D01*
X148650128Y-68156407D01*
X148807698Y-68300052D01*
X148988981Y-68412298D01*
X149187802Y-68489321D01*
X149384613Y-68526111D01*
X149446893Y-68557779D01*
X149482166Y-68618092D01*
X149479232Y-68687900D01*
X149439023Y-68745040D01*
X149384613Y-68769888D01*
X149187802Y-68806679D01*
X149187799Y-68806679D01*
X149187799Y-68806680D01*
X148988982Y-68883701D01*
X148988980Y-68883702D01*
X148807699Y-68995947D01*
X148650127Y-69139593D01*
X148521632Y-69309746D01*
X148426596Y-69500605D01*
X148426596Y-69500607D01*
X148368244Y-69705689D01*
X148348571Y-69917999D01*
X148348571Y-69918000D01*
X148368244Y-70130310D01*
X148426596Y-70335392D01*
X148426596Y-70335394D01*
X148521632Y-70526253D01*
X148650127Y-70696406D01*
X148650128Y-70696407D01*
X148807698Y-70840052D01*
X148988981Y-70952298D01*
X149187802Y-71029321D01*
X149397390Y-71068500D01*
X149397392Y-71068500D01*
X149610608Y-71068500D01*
X149610610Y-71068500D01*
X149820198Y-71029321D01*
X150019019Y-70952298D01*
X150200302Y-70840052D01*
X150357872Y-70696407D01*
X150486366Y-70526255D01*
X150498815Y-70501253D01*
X150581403Y-70335394D01*
X150581403Y-70335393D01*
X150581405Y-70335389D01*
X150639756Y-70130310D01*
X150659429Y-69918000D01*
X150639756Y-69705690D01*
X150581405Y-69500611D01*
X150581403Y-69500606D01*
X150581403Y-69500605D01*
X150486367Y-69309746D01*
X150357872Y-69139593D01*
X150330448Y-69114593D01*
X150200302Y-68995948D01*
X150019019Y-68883702D01*
X150019017Y-68883701D01*
X149919608Y-68845190D01*
X149820198Y-68806679D01*
X149623385Y-68769888D01*
X149561106Y-68738221D01*
X149525833Y-68677908D01*
X149528767Y-68608100D01*
X149568976Y-68550960D01*
X149623384Y-68526111D01*
X149820198Y-68489321D01*
X150019019Y-68412298D01*
X150200302Y-68300052D01*
X150357872Y-68156407D01*
X150486366Y-67986255D01*
X150498815Y-67961253D01*
X150581403Y-67795394D01*
X150581403Y-67795393D01*
X150581405Y-67795389D01*
X150639756Y-67590310D01*
X150659429Y-67378000D01*
X150639756Y-67165690D01*
X150581405Y-66960611D01*
X150581403Y-66960606D01*
X150581403Y-66960605D01*
X150486367Y-66769746D01*
X150357872Y-66599593D01*
X150241845Y-66493820D01*
X150200302Y-66455948D01*
X150200299Y-66455946D01*
X150200298Y-66455945D01*
X150138089Y-66417427D01*
X150091453Y-66365399D01*
X150080349Y-66296418D01*
X150108302Y-66232383D01*
X150166437Y-66193627D01*
X150203366Y-66188000D01*
X150401828Y-66188000D01*
X150401844Y-66187999D01*
X150461372Y-66181598D01*
X150461379Y-66181596D01*
X150596086Y-66131354D01*
X150596093Y-66131350D01*
X150711187Y-66045190D01*
X150711190Y-66045187D01*
X150797350Y-65930093D01*
X150797354Y-65930086D01*
X150847596Y-65795379D01*
X150847598Y-65795372D01*
X150853999Y-65735844D01*
X150854000Y-65735827D01*
X150854000Y-65088000D01*
X149937012Y-65088000D01*
X149969925Y-65030993D01*
X150004000Y-64903826D01*
X150004000Y-64772174D01*
X149969925Y-64645007D01*
X149937012Y-64588000D01*
X150854000Y-64588000D01*
X150854000Y-63940172D01*
X150853999Y-63940155D01*
X153154000Y-63940155D01*
X153154000Y-64588000D01*
X154070988Y-64588000D01*
X154038075Y-64645007D01*
X154004000Y-64772174D01*
X154004000Y-64903826D01*
X154038075Y-65030993D01*
X154070988Y-65088000D01*
X153154000Y-65088000D01*
X153154000Y-65735844D01*
X153160401Y-65795372D01*
X153160403Y-65795379D01*
X153210645Y-65930086D01*
X153210649Y-65930093D01*
X153296809Y-66045187D01*
X153296812Y-66045190D01*
X153411906Y-66131350D01*
X153411913Y-66131354D01*
X153546620Y-66181596D01*
X153546627Y-66181598D01*
X153606155Y-66187999D01*
X153606172Y-66188000D01*
X153804634Y-66188000D01*
X153871673Y-66207685D01*
X153917428Y-66260489D01*
X153927372Y-66329647D01*
X153898347Y-66393203D01*
X153869911Y-66417427D01*
X153807701Y-66455945D01*
X153650127Y-66599593D01*
X153521632Y-66769746D01*
X153426596Y-66960605D01*
X153426596Y-66960607D01*
X153368244Y-67165689D01*
X153348571Y-67377999D01*
X153348571Y-67378000D01*
X153368244Y-67590310D01*
X153426596Y-67795392D01*
X153426596Y-67795394D01*
X153521632Y-67986253D01*
X153650127Y-68156406D01*
X153650128Y-68156407D01*
X153807698Y-68300052D01*
X153988981Y-68412298D01*
X154187802Y-68489321D01*
X154384613Y-68526111D01*
X154446893Y-68557779D01*
X154482166Y-68618092D01*
X154479232Y-68687900D01*
X154439023Y-68745040D01*
X154384613Y-68769888D01*
X154187802Y-68806679D01*
X154187799Y-68806679D01*
X154187799Y-68806680D01*
X153988982Y-68883701D01*
X153988980Y-68883702D01*
X153807699Y-68995947D01*
X153650127Y-69139593D01*
X153521632Y-69309746D01*
X153426596Y-69500605D01*
X153426596Y-69500607D01*
X153368244Y-69705689D01*
X153348571Y-69917999D01*
X153348571Y-69918000D01*
X153368244Y-70130310D01*
X153426596Y-70335392D01*
X153426596Y-70335394D01*
X153521632Y-70526253D01*
X153650127Y-70696406D01*
X153650128Y-70696407D01*
X153807698Y-70840052D01*
X153988981Y-70952298D01*
X154187802Y-71029321D01*
X154397390Y-71068500D01*
X154397392Y-71068500D01*
X154610608Y-71068500D01*
X154610610Y-71068500D01*
X154820198Y-71029321D01*
X155019019Y-70952298D01*
X155200302Y-70840052D01*
X155357872Y-70696407D01*
X155486366Y-70526255D01*
X155498815Y-70501253D01*
X155581403Y-70335394D01*
X155581403Y-70335393D01*
X155581405Y-70335389D01*
X155639756Y-70130310D01*
X155659429Y-69918000D01*
X155639756Y-69705690D01*
X155581405Y-69500611D01*
X155581403Y-69500606D01*
X155581403Y-69500605D01*
X155486367Y-69309746D01*
X155357872Y-69139593D01*
X155330448Y-69114593D01*
X155200302Y-68995948D01*
X155019019Y-68883702D01*
X155019017Y-68883701D01*
X154919608Y-68845190D01*
X154820198Y-68806679D01*
X154623385Y-68769888D01*
X154561106Y-68738221D01*
X154525833Y-68677908D01*
X154528767Y-68608100D01*
X154568976Y-68550960D01*
X154623384Y-68526111D01*
X154820198Y-68489321D01*
X155019019Y-68412298D01*
X155200302Y-68300052D01*
X155357872Y-68156407D01*
X155486366Y-67986255D01*
X155498815Y-67961253D01*
X155581403Y-67795394D01*
X155581403Y-67795393D01*
X155581405Y-67795389D01*
X155639756Y-67590310D01*
X155659429Y-67378000D01*
X155639756Y-67165690D01*
X155581405Y-66960611D01*
X155581403Y-66960606D01*
X155581403Y-66960605D01*
X155486367Y-66769746D01*
X155357872Y-66599593D01*
X155241845Y-66493820D01*
X155200302Y-66455948D01*
X155200299Y-66455946D01*
X155200298Y-66455945D01*
X155138089Y-66417427D01*
X155091453Y-66365399D01*
X155080349Y-66296418D01*
X155108302Y-66232383D01*
X155166437Y-66193627D01*
X155203366Y-66188000D01*
X155401828Y-66188000D01*
X155401844Y-66187999D01*
X155461372Y-66181598D01*
X155461379Y-66181596D01*
X155596086Y-66131354D01*
X155596093Y-66131350D01*
X155711187Y-66045190D01*
X155711190Y-66045187D01*
X155797350Y-65930093D01*
X155797354Y-65930086D01*
X155847596Y-65795379D01*
X155847598Y-65795372D01*
X155853999Y-65735844D01*
X155854000Y-65735827D01*
X155854000Y-65088000D01*
X154937012Y-65088000D01*
X154969925Y-65030993D01*
X155004000Y-64903826D01*
X155004000Y-64772174D01*
X154969925Y-64645007D01*
X154937012Y-64588000D01*
X155854000Y-64588000D01*
X155854000Y-63955155D01*
X158154000Y-63955155D01*
X158154000Y-64603000D01*
X159070988Y-64603000D01*
X159038075Y-64660007D01*
X159004000Y-64787174D01*
X159004000Y-64918826D01*
X159038075Y-65045993D01*
X159070988Y-65103000D01*
X158154000Y-65103000D01*
X158154000Y-65750844D01*
X158160401Y-65810372D01*
X158160403Y-65810379D01*
X158210645Y-65945086D01*
X158210649Y-65945093D01*
X158296809Y-66060187D01*
X158296812Y-66060190D01*
X158411906Y-66146350D01*
X158411913Y-66146354D01*
X158546620Y-66196596D01*
X158546627Y-66196598D01*
X158606155Y-66202999D01*
X158606172Y-66203000D01*
X158804634Y-66203000D01*
X158871673Y-66222685D01*
X158917428Y-66275489D01*
X158927372Y-66344647D01*
X158898347Y-66408203D01*
X158869911Y-66432427D01*
X158807701Y-66470945D01*
X158650127Y-66614593D01*
X158521632Y-66784746D01*
X158426596Y-66975605D01*
X158426596Y-66975607D01*
X158368244Y-67180689D01*
X158352278Y-67352999D01*
X158348571Y-67393000D01*
X158368244Y-67605310D01*
X158422328Y-67795394D01*
X158426596Y-67810392D01*
X158426596Y-67810394D01*
X158521632Y-68001253D01*
X158638800Y-68156407D01*
X158650128Y-68171407D01*
X158807698Y-68315052D01*
X158988981Y-68427298D01*
X159187802Y-68504321D01*
X159384613Y-68541111D01*
X159446893Y-68572779D01*
X159482166Y-68633092D01*
X159479232Y-68702900D01*
X159439023Y-68760040D01*
X159384613Y-68784888D01*
X159187802Y-68821679D01*
X159187799Y-68821679D01*
X159187799Y-68821680D01*
X158988982Y-68898701D01*
X158988980Y-68898702D01*
X158807699Y-69010947D01*
X158650127Y-69154593D01*
X158521632Y-69324746D01*
X158426596Y-69515605D01*
X158426596Y-69515607D01*
X158368244Y-69720689D01*
X158352278Y-69892999D01*
X158348571Y-69933000D01*
X158368244Y-70145310D01*
X158422328Y-70335394D01*
X158426596Y-70350392D01*
X158426596Y-70350394D01*
X158521632Y-70541253D01*
X158638800Y-70696407D01*
X158650128Y-70711407D01*
X158807698Y-70855052D01*
X158988981Y-70967298D01*
X159187802Y-71044321D01*
X159397390Y-71083500D01*
X159397392Y-71083500D01*
X159610608Y-71083500D01*
X159610610Y-71083500D01*
X159820198Y-71044321D01*
X160019019Y-70967298D01*
X160200302Y-70855052D01*
X160357872Y-70711407D01*
X160486366Y-70541255D01*
X160493836Y-70526253D01*
X160581403Y-70350394D01*
X160581403Y-70350393D01*
X160581405Y-70350389D01*
X160639756Y-70145310D01*
X160659429Y-69933000D01*
X160639756Y-69720690D01*
X160581405Y-69515611D01*
X160581403Y-69515606D01*
X160581403Y-69515605D01*
X160486367Y-69324746D01*
X160357872Y-69154593D01*
X160211271Y-69020948D01*
X160200302Y-69010948D01*
X160019019Y-68898702D01*
X160019017Y-68898701D01*
X159915764Y-68858701D01*
X159820198Y-68821679D01*
X159623385Y-68784888D01*
X159561106Y-68753221D01*
X159525833Y-68692908D01*
X159528767Y-68623100D01*
X159568976Y-68565960D01*
X159623384Y-68541111D01*
X159820198Y-68504321D01*
X160019019Y-68427298D01*
X160200302Y-68315052D01*
X160357872Y-68171407D01*
X160486366Y-68001255D01*
X160493836Y-67986253D01*
X160581403Y-67810394D01*
X160581403Y-67810393D01*
X160581405Y-67810389D01*
X160639756Y-67605310D01*
X160659429Y-67393000D01*
X160639756Y-67180690D01*
X160581405Y-66975611D01*
X160581403Y-66975606D01*
X160581403Y-66975605D01*
X160486367Y-66784746D01*
X160357872Y-66614593D01*
X160300300Y-66562109D01*
X160200302Y-66470948D01*
X160200299Y-66470946D01*
X160200298Y-66470945D01*
X160138089Y-66432427D01*
X160091453Y-66380399D01*
X160080349Y-66311418D01*
X160108302Y-66247383D01*
X160166437Y-66208627D01*
X160203366Y-66203000D01*
X160401828Y-66203000D01*
X160401844Y-66202999D01*
X160461372Y-66196598D01*
X160461379Y-66196596D01*
X160596086Y-66146354D01*
X160596093Y-66146350D01*
X160711187Y-66060190D01*
X160711190Y-66060187D01*
X160797350Y-65945093D01*
X160797354Y-65945086D01*
X160847596Y-65810379D01*
X160847598Y-65810372D01*
X160853999Y-65750844D01*
X160854000Y-65750827D01*
X160854000Y-65103000D01*
X159937012Y-65103000D01*
X159969925Y-65045993D01*
X160004000Y-64918826D01*
X160004000Y-64787174D01*
X159969925Y-64660007D01*
X159937012Y-64603000D01*
X160854000Y-64603000D01*
X160854000Y-63955172D01*
X160853999Y-63955155D01*
X163154000Y-63955155D01*
X163154000Y-64603000D01*
X164070988Y-64603000D01*
X164038075Y-64660007D01*
X164004000Y-64787174D01*
X164004000Y-64918826D01*
X164038075Y-65045993D01*
X164070988Y-65103000D01*
X163154000Y-65103000D01*
X163154000Y-65750844D01*
X163160401Y-65810372D01*
X163160403Y-65810379D01*
X163210645Y-65945086D01*
X163210649Y-65945093D01*
X163296809Y-66060187D01*
X163296812Y-66060190D01*
X163411906Y-66146350D01*
X163411913Y-66146354D01*
X163546620Y-66196596D01*
X163546627Y-66196598D01*
X163606155Y-66202999D01*
X163606172Y-66203000D01*
X163804634Y-66203000D01*
X163871673Y-66222685D01*
X163917428Y-66275489D01*
X163927372Y-66344647D01*
X163898347Y-66408203D01*
X163869911Y-66432427D01*
X163807701Y-66470945D01*
X163650127Y-66614593D01*
X163521632Y-66784746D01*
X163426596Y-66975605D01*
X163426596Y-66975607D01*
X163368244Y-67180689D01*
X163352278Y-67352999D01*
X163348571Y-67393000D01*
X163368244Y-67605310D01*
X163422328Y-67795394D01*
X163426596Y-67810392D01*
X163426596Y-67810394D01*
X163521632Y-68001253D01*
X163638800Y-68156407D01*
X163650128Y-68171407D01*
X163807698Y-68315052D01*
X163988981Y-68427298D01*
X164187802Y-68504321D01*
X164384613Y-68541111D01*
X164446893Y-68572779D01*
X164482166Y-68633092D01*
X164479232Y-68702900D01*
X164439023Y-68760040D01*
X164384613Y-68784888D01*
X164187802Y-68821679D01*
X164187799Y-68821679D01*
X164187799Y-68821680D01*
X163988982Y-68898701D01*
X163988980Y-68898702D01*
X163807699Y-69010947D01*
X163650127Y-69154593D01*
X163521632Y-69324746D01*
X163426596Y-69515605D01*
X163426596Y-69515607D01*
X163368244Y-69720689D01*
X163352278Y-69892999D01*
X163348571Y-69933000D01*
X163368244Y-70145310D01*
X163422328Y-70335394D01*
X163426596Y-70350392D01*
X163426596Y-70350394D01*
X163521632Y-70541253D01*
X163638800Y-70696407D01*
X163650128Y-70711407D01*
X163807698Y-70855052D01*
X163988981Y-70967298D01*
X164187802Y-71044321D01*
X164397390Y-71083500D01*
X164397392Y-71083500D01*
X164610608Y-71083500D01*
X164610610Y-71083500D01*
X164820198Y-71044321D01*
X165019019Y-70967298D01*
X165200302Y-70855052D01*
X165357872Y-70711407D01*
X165486366Y-70541255D01*
X165493836Y-70526253D01*
X165581403Y-70350394D01*
X165581403Y-70350393D01*
X165581405Y-70350389D01*
X165639756Y-70145310D01*
X165659429Y-69933000D01*
X165639756Y-69720690D01*
X165581405Y-69515611D01*
X165581403Y-69515606D01*
X165581403Y-69515605D01*
X165486367Y-69324746D01*
X165357872Y-69154593D01*
X165211271Y-69020948D01*
X165200302Y-69010948D01*
X165019019Y-68898702D01*
X165019017Y-68898701D01*
X164915764Y-68858701D01*
X164820198Y-68821679D01*
X164623385Y-68784888D01*
X164561106Y-68753221D01*
X164525833Y-68692908D01*
X164528767Y-68623100D01*
X164568976Y-68565960D01*
X164623384Y-68541111D01*
X164820198Y-68504321D01*
X165019019Y-68427298D01*
X165200302Y-68315052D01*
X165357872Y-68171407D01*
X165486366Y-68001255D01*
X165493836Y-67986253D01*
X165581403Y-67810394D01*
X165581403Y-67810393D01*
X165581405Y-67810389D01*
X165639756Y-67605310D01*
X165659429Y-67393000D01*
X165639756Y-67180690D01*
X165581405Y-66975611D01*
X165581403Y-66975606D01*
X165581403Y-66975605D01*
X165486367Y-66784746D01*
X165357872Y-66614593D01*
X165300300Y-66562109D01*
X165200302Y-66470948D01*
X165200299Y-66470946D01*
X165200298Y-66470945D01*
X165138089Y-66432427D01*
X165091453Y-66380399D01*
X165080349Y-66311418D01*
X165108302Y-66247383D01*
X165166437Y-66208627D01*
X165203366Y-66203000D01*
X165401828Y-66203000D01*
X165401844Y-66202999D01*
X165461372Y-66196598D01*
X165461379Y-66196596D01*
X165596086Y-66146354D01*
X165596093Y-66146350D01*
X165711187Y-66060190D01*
X165711190Y-66060187D01*
X165797350Y-65945093D01*
X165797354Y-65945086D01*
X165847596Y-65810379D01*
X165847598Y-65810372D01*
X165853999Y-65750844D01*
X165854000Y-65750827D01*
X165854000Y-65103000D01*
X164937012Y-65103000D01*
X164969925Y-65045993D01*
X165004000Y-64918826D01*
X165004000Y-64787174D01*
X164969925Y-64660007D01*
X164937012Y-64603000D01*
X165854000Y-64603000D01*
X165854000Y-63955172D01*
X165853999Y-63955155D01*
X165849698Y-63915155D01*
X168154000Y-63915155D01*
X168154000Y-64563000D01*
X169070988Y-64563000D01*
X169038075Y-64620007D01*
X169004000Y-64747174D01*
X169004000Y-64878826D01*
X169038075Y-65005993D01*
X169070988Y-65063000D01*
X168154000Y-65063000D01*
X168154000Y-65710844D01*
X168160401Y-65770372D01*
X168160403Y-65770379D01*
X168210645Y-65905086D01*
X168210649Y-65905093D01*
X168296809Y-66020187D01*
X168296812Y-66020190D01*
X168411906Y-66106350D01*
X168411913Y-66106354D01*
X168546620Y-66156596D01*
X168546627Y-66156598D01*
X168606155Y-66162999D01*
X168606172Y-66163000D01*
X168804634Y-66163000D01*
X168871673Y-66182685D01*
X168917428Y-66235489D01*
X168927372Y-66304647D01*
X168898347Y-66368203D01*
X168869911Y-66392427D01*
X168807701Y-66430945D01*
X168650127Y-66574593D01*
X168521632Y-66744746D01*
X168426596Y-66935605D01*
X168426596Y-66935607D01*
X168368244Y-67140689D01*
X168364538Y-67180690D01*
X168348571Y-67353000D01*
X168368244Y-67565310D01*
X168382470Y-67615310D01*
X168426596Y-67770392D01*
X168426596Y-67770394D01*
X168521632Y-67961253D01*
X168650127Y-68131406D01*
X168650128Y-68131407D01*
X168807698Y-68275052D01*
X168988981Y-68387298D01*
X169187802Y-68464321D01*
X169384613Y-68501111D01*
X169446893Y-68532779D01*
X169482166Y-68593092D01*
X169479232Y-68662900D01*
X169439023Y-68720040D01*
X169384613Y-68744888D01*
X169187802Y-68781679D01*
X169187799Y-68781679D01*
X169187799Y-68781680D01*
X168988982Y-68858701D01*
X168988980Y-68858702D01*
X168807699Y-68970947D01*
X168650127Y-69114593D01*
X168521632Y-69284746D01*
X168426596Y-69475605D01*
X168426596Y-69475607D01*
X168368244Y-69680689D01*
X168364538Y-69720690D01*
X168348571Y-69893000D01*
X168368244Y-70105310D01*
X168382470Y-70155310D01*
X168426596Y-70310392D01*
X168426596Y-70310394D01*
X168521632Y-70501253D01*
X168650127Y-70671406D01*
X168650128Y-70671407D01*
X168807698Y-70815052D01*
X168988981Y-70927298D01*
X169187802Y-71004321D01*
X169397390Y-71043500D01*
X169397392Y-71043500D01*
X169610608Y-71043500D01*
X169610610Y-71043500D01*
X169820198Y-71004321D01*
X170019019Y-70927298D01*
X170200302Y-70815052D01*
X170357872Y-70671407D01*
X170486366Y-70501255D01*
X170556507Y-70360392D01*
X170581403Y-70310394D01*
X170581403Y-70310393D01*
X170581405Y-70310389D01*
X170639756Y-70105310D01*
X170659429Y-69893000D01*
X170639756Y-69680690D01*
X170581405Y-69475611D01*
X170581403Y-69475606D01*
X170581403Y-69475605D01*
X170486367Y-69284746D01*
X170357872Y-69114593D01*
X170200302Y-68970948D01*
X170019019Y-68858702D01*
X170019017Y-68858701D01*
X169919608Y-68820190D01*
X169820198Y-68781679D01*
X169623385Y-68744888D01*
X169561106Y-68713221D01*
X169525833Y-68652908D01*
X169528767Y-68583100D01*
X169568976Y-68525960D01*
X169623384Y-68501111D01*
X169820198Y-68464321D01*
X170019019Y-68387298D01*
X170200302Y-68275052D01*
X170357872Y-68131407D01*
X170486366Y-67961255D01*
X170556507Y-67820392D01*
X170581403Y-67770394D01*
X170581403Y-67770393D01*
X170581405Y-67770389D01*
X170639756Y-67565310D01*
X170659429Y-67353000D01*
X170639756Y-67140690D01*
X170581405Y-66935611D01*
X170581403Y-66935606D01*
X170581403Y-66935605D01*
X170486367Y-66744746D01*
X170357872Y-66574593D01*
X170344172Y-66562104D01*
X170200302Y-66430948D01*
X170200299Y-66430946D01*
X170200298Y-66430945D01*
X170138089Y-66392427D01*
X170091453Y-66340399D01*
X170080349Y-66271418D01*
X170108302Y-66207383D01*
X170166437Y-66168627D01*
X170203366Y-66163000D01*
X170401828Y-66163000D01*
X170401844Y-66162999D01*
X170461372Y-66156598D01*
X170461379Y-66156596D01*
X170596086Y-66106354D01*
X170596093Y-66106350D01*
X170711187Y-66020190D01*
X170711190Y-66020187D01*
X170797350Y-65905093D01*
X170797354Y-65905086D01*
X170847596Y-65770379D01*
X170847598Y-65770372D01*
X170853999Y-65710844D01*
X170854000Y-65710827D01*
X170854000Y-65425713D01*
X175941500Y-65425713D01*
X175941500Y-65638286D01*
X175970340Y-65820379D01*
X175974754Y-65848243D01*
X176038746Y-66045190D01*
X176040444Y-66050414D01*
X176136951Y-66239820D01*
X176261890Y-66411786D01*
X176412213Y-66562109D01*
X176584179Y-66687048D01*
X176584181Y-66687049D01*
X176584184Y-66687051D01*
X176773588Y-66783557D01*
X176975757Y-66849246D01*
X177185713Y-66882500D01*
X177185714Y-66882500D01*
X177398286Y-66882500D01*
X177398287Y-66882500D01*
X177608243Y-66849246D01*
X177810412Y-66783557D01*
X177999816Y-66687051D01*
X178099547Y-66614593D01*
X178171786Y-66562109D01*
X178171788Y-66562106D01*
X178171792Y-66562104D01*
X178322104Y-66411792D01*
X178322106Y-66411788D01*
X178322109Y-66411786D01*
X178447048Y-66239820D01*
X178447047Y-66239820D01*
X178447051Y-66239816D01*
X178543557Y-66050412D01*
X178609246Y-65848243D01*
X178642500Y-65638287D01*
X178642500Y-65425713D01*
X178609246Y-65215757D01*
X178543557Y-65013588D01*
X178447051Y-64824184D01*
X178447049Y-64824181D01*
X178447048Y-64824179D01*
X178322109Y-64652213D01*
X178171786Y-64501890D01*
X177999820Y-64376951D01*
X177810414Y-64280444D01*
X177810413Y-64280443D01*
X177810412Y-64280443D01*
X177608243Y-64214754D01*
X177608241Y-64214753D01*
X177608240Y-64214753D01*
X177446957Y-64189208D01*
X177398287Y-64181500D01*
X177185713Y-64181500D01*
X177137042Y-64189208D01*
X176975760Y-64214753D01*
X176773585Y-64280444D01*
X176584179Y-64376951D01*
X176412213Y-64501890D01*
X176261890Y-64652213D01*
X176136951Y-64824179D01*
X176040444Y-65013585D01*
X175974753Y-65215760D01*
X175941500Y-65425713D01*
X170854000Y-65425713D01*
X170854000Y-65063000D01*
X169937012Y-65063000D01*
X169969925Y-65005993D01*
X170004000Y-64878826D01*
X170004000Y-64747174D01*
X169969925Y-64620007D01*
X169937012Y-64563000D01*
X170854000Y-64563000D01*
X170854000Y-63915172D01*
X170853999Y-63915155D01*
X170847598Y-63855627D01*
X170847596Y-63855620D01*
X170797354Y-63720913D01*
X170797350Y-63720906D01*
X170711190Y-63605812D01*
X170711187Y-63605809D01*
X170596093Y-63519649D01*
X170596086Y-63519645D01*
X170461379Y-63469403D01*
X170461372Y-63469401D01*
X170401844Y-63463000D01*
X169754000Y-63463000D01*
X169754000Y-64379988D01*
X169696993Y-64347075D01*
X169569826Y-64313000D01*
X169438174Y-64313000D01*
X169311007Y-64347075D01*
X169254000Y-64379988D01*
X169254000Y-63463000D01*
X168606155Y-63463000D01*
X168546627Y-63469401D01*
X168546620Y-63469403D01*
X168411913Y-63519645D01*
X168411906Y-63519649D01*
X168296812Y-63605809D01*
X168296809Y-63605812D01*
X168210649Y-63720906D01*
X168210645Y-63720913D01*
X168160403Y-63855620D01*
X168160401Y-63855627D01*
X168154000Y-63915155D01*
X165849698Y-63915155D01*
X165847598Y-63895627D01*
X165847596Y-63895620D01*
X165797354Y-63760913D01*
X165797350Y-63760906D01*
X165711190Y-63645812D01*
X165711187Y-63645809D01*
X165596093Y-63559649D01*
X165596086Y-63559645D01*
X165461379Y-63509403D01*
X165461372Y-63509401D01*
X165401844Y-63503000D01*
X164754000Y-63503000D01*
X164754000Y-64419988D01*
X164696993Y-64387075D01*
X164569826Y-64353000D01*
X164438174Y-64353000D01*
X164311007Y-64387075D01*
X164254000Y-64419988D01*
X164254000Y-63503000D01*
X163606155Y-63503000D01*
X163546627Y-63509401D01*
X163546620Y-63509403D01*
X163411913Y-63559645D01*
X163411906Y-63559649D01*
X163296812Y-63645809D01*
X163296809Y-63645812D01*
X163210649Y-63760906D01*
X163210645Y-63760913D01*
X163160403Y-63895620D01*
X163160401Y-63895627D01*
X163154000Y-63955155D01*
X160853999Y-63955155D01*
X160847598Y-63895627D01*
X160847596Y-63895620D01*
X160797354Y-63760913D01*
X160797350Y-63760906D01*
X160711190Y-63645812D01*
X160711187Y-63645809D01*
X160596093Y-63559649D01*
X160596086Y-63559645D01*
X160461379Y-63509403D01*
X160461372Y-63509401D01*
X160401844Y-63503000D01*
X159754000Y-63503000D01*
X159754000Y-64419988D01*
X159696993Y-64387075D01*
X159569826Y-64353000D01*
X159438174Y-64353000D01*
X159311007Y-64387075D01*
X159254000Y-64419988D01*
X159254000Y-63503000D01*
X158606155Y-63503000D01*
X158546627Y-63509401D01*
X158546620Y-63509403D01*
X158411913Y-63559645D01*
X158411906Y-63559649D01*
X158296812Y-63645809D01*
X158296809Y-63645812D01*
X158210649Y-63760906D01*
X158210645Y-63760913D01*
X158160403Y-63895620D01*
X158160401Y-63895627D01*
X158154000Y-63955155D01*
X155854000Y-63955155D01*
X155854000Y-63940172D01*
X155853999Y-63940155D01*
X155847598Y-63880627D01*
X155847596Y-63880620D01*
X155797354Y-63745913D01*
X155797350Y-63745906D01*
X155711190Y-63630812D01*
X155711187Y-63630809D01*
X155596093Y-63544649D01*
X155596086Y-63544645D01*
X155461379Y-63494403D01*
X155461372Y-63494401D01*
X155401844Y-63488000D01*
X154754000Y-63488000D01*
X154754000Y-64404988D01*
X154696993Y-64372075D01*
X154569826Y-64338000D01*
X154438174Y-64338000D01*
X154311007Y-64372075D01*
X154254000Y-64404988D01*
X154254000Y-63488000D01*
X153606155Y-63488000D01*
X153546627Y-63494401D01*
X153546620Y-63494403D01*
X153411913Y-63544645D01*
X153411906Y-63544649D01*
X153296812Y-63630809D01*
X153296809Y-63630812D01*
X153210649Y-63745906D01*
X153210645Y-63745913D01*
X153160403Y-63880620D01*
X153160401Y-63880627D01*
X153154000Y-63940155D01*
X150853999Y-63940155D01*
X150847598Y-63880627D01*
X150847596Y-63880620D01*
X150797354Y-63745913D01*
X150797350Y-63745906D01*
X150711190Y-63630812D01*
X150711187Y-63630809D01*
X150596093Y-63544649D01*
X150596086Y-63544645D01*
X150461379Y-63494403D01*
X150461372Y-63494401D01*
X150401844Y-63488000D01*
X149754000Y-63488000D01*
X149754000Y-64404988D01*
X149696993Y-64372075D01*
X149569826Y-64338000D01*
X149438174Y-64338000D01*
X149311007Y-64372075D01*
X149254000Y-64404988D01*
X149254000Y-63488000D01*
X148606155Y-63488000D01*
X148546627Y-63494401D01*
X148546620Y-63494403D01*
X148411913Y-63544645D01*
X148411906Y-63544649D01*
X148296812Y-63630809D01*
X148296809Y-63630812D01*
X148210649Y-63745906D01*
X148210645Y-63745913D01*
X148160403Y-63880620D01*
X148160401Y-63880627D01*
X148154000Y-63940155D01*
X145852386Y-63940155D01*
X145847598Y-63895627D01*
X145847596Y-63895620D01*
X145797354Y-63760913D01*
X145797350Y-63760906D01*
X145711190Y-63645812D01*
X145711187Y-63645809D01*
X145596093Y-63559649D01*
X145596086Y-63559645D01*
X145461379Y-63509403D01*
X145461372Y-63509401D01*
X145401844Y-63503000D01*
X144754000Y-63503000D01*
X144754000Y-64419988D01*
X144696993Y-64387075D01*
X144569826Y-64353000D01*
X144438174Y-64353000D01*
X144311007Y-64387075D01*
X144254000Y-64419988D01*
X144254000Y-63503000D01*
X143606155Y-63503000D01*
X143546627Y-63509401D01*
X143546620Y-63509403D01*
X143411913Y-63559645D01*
X143411906Y-63559649D01*
X143296812Y-63645809D01*
X143296809Y-63645812D01*
X143210649Y-63760906D01*
X143210645Y-63760913D01*
X143160403Y-63895620D01*
X143160401Y-63895627D01*
X143154000Y-63955155D01*
X140354000Y-63955155D01*
X140354000Y-63940172D01*
X140353999Y-63940155D01*
X140347598Y-63880627D01*
X140347596Y-63880620D01*
X140297354Y-63745913D01*
X140297350Y-63745906D01*
X140211190Y-63630812D01*
X140211187Y-63630809D01*
X140096093Y-63544649D01*
X140096086Y-63544645D01*
X139961379Y-63494403D01*
X139961372Y-63494401D01*
X139901844Y-63488000D01*
X139254000Y-63488000D01*
X139254000Y-64404988D01*
X139196993Y-64372075D01*
X139069826Y-64338000D01*
X138938174Y-64338000D01*
X138811007Y-64372075D01*
X138754000Y-64404988D01*
X138754000Y-63488000D01*
X138106155Y-63488000D01*
X138046627Y-63494401D01*
X138046620Y-63494403D01*
X137911913Y-63544645D01*
X137911906Y-63544649D01*
X137796812Y-63630809D01*
X137796809Y-63630812D01*
X137710649Y-63745906D01*
X137710645Y-63745913D01*
X137660403Y-63880620D01*
X137660401Y-63880627D01*
X137654000Y-63940155D01*
X134851311Y-63940155D01*
X134847598Y-63905627D01*
X134847596Y-63905620D01*
X134797354Y-63770913D01*
X134797350Y-63770906D01*
X134711190Y-63655812D01*
X134711187Y-63655809D01*
X134596093Y-63569649D01*
X134596086Y-63569645D01*
X134461379Y-63519403D01*
X134461372Y-63519401D01*
X134401844Y-63513000D01*
X133754000Y-63513000D01*
X133754000Y-64429988D01*
X133696993Y-64397075D01*
X133569826Y-64363000D01*
X133438174Y-64363000D01*
X133311007Y-64397075D01*
X133254000Y-64429988D01*
X133254000Y-63513000D01*
X132606155Y-63513000D01*
X132546627Y-63519401D01*
X132546620Y-63519403D01*
X132411913Y-63569645D01*
X132411906Y-63569649D01*
X132296812Y-63655809D01*
X132296809Y-63655812D01*
X132210649Y-63770906D01*
X132210645Y-63770913D01*
X132160403Y-63905620D01*
X132160401Y-63905627D01*
X132154000Y-63965155D01*
X121458500Y-63965155D01*
X121458500Y-61638500D01*
X121478185Y-61571461D01*
X121530989Y-61525706D01*
X121582500Y-61514500D01*
X180931500Y-61514500D01*
X180998539Y-61534185D01*
G37*
%TD.AperFunction*%
%TD*%
M02*
