%TF.GenerationSoftware,KiCad,Pcbnew,8.0.4*%
%TF.CreationDate,2024-07-27T14:27:44+01:00*%
%TF.ProjectId,ESP-SPIDER,4553502d-5350-4494-9445-522e6b696361,rev?*%
%TF.SameCoordinates,Original*%
%TF.FileFunction,Soldermask,Bot*%
%TF.FilePolarity,Negative*%
%FSLAX46Y46*%
G04 Gerber Fmt 4.6, Leading zero omitted, Abs format (unit mm)*
G04 Created by KiCad (PCBNEW 8.0.4) date 2024-07-27 14:27:44*
%MOMM*%
%LPD*%
G01*
G04 APERTURE LIST*
G04 Aperture macros list*
%AMRoundRect*
0 Rectangle with rounded corners*
0 $1 Rounding radius*
0 $2 $3 $4 $5 $6 $7 $8 $9 X,Y pos of 4 corners*
0 Add a 4 corners polygon primitive as box body*
4,1,4,$2,$3,$4,$5,$6,$7,$8,$9,$2,$3,0*
0 Add four circle primitives for the rounded corners*
1,1,$1+$1,$2,$3*
1,1,$1+$1,$4,$5*
1,1,$1+$1,$6,$7*
1,1,$1+$1,$8,$9*
0 Add four rect primitives between the rounded corners*
20,1,$1+$1,$2,$3,$4,$5,0*
20,1,$1+$1,$4,$5,$6,$7,0*
20,1,$1+$1,$6,$7,$8,$9,0*
20,1,$1+$1,$8,$9,$2,$3,0*%
G04 Aperture macros list end*
%ADD10R,1.700000X1.700000*%
%ADD11O,1.700000X1.700000*%
%ADD12C,2.200000*%
%ADD13R,2.400000X2.400000*%
%ADD14C,2.400000*%
%ADD15R,1.600000X1.600000*%
%ADD16C,1.600000*%
%ADD17RoundRect,0.250000X-0.625000X0.350000X-0.625000X-0.350000X0.625000X-0.350000X0.625000X0.350000X0*%
%ADD18O,1.750000X1.200000*%
%ADD19O,1.200000X1.900000*%
%ADD20C,1.450000*%
G04 APERTURE END LIST*
D10*
%TO.C,J13*%
X124709000Y-100008000D03*
D11*
X127249000Y-100008000D03*
%TD*%
D12*
%TO.C,H4*%
X125222000Y-129794000D03*
%TD*%
%TO.C,H3*%
X177292000Y-129286000D03*
%TD*%
%TO.C,H2*%
X177292000Y-65532000D03*
%TD*%
%TO.C,H1*%
X125476000Y-65786000D03*
%TD*%
D10*
%TO.C,J9*%
X149504000Y-64838000D03*
D11*
X149504000Y-67378000D03*
X149504000Y-69918000D03*
%TD*%
D10*
%TO.C,J4*%
X133504000Y-64863000D03*
D11*
X133504000Y-67403000D03*
X133504000Y-69943000D03*
%TD*%
D10*
%TO.C,J3*%
X139004000Y-64838000D03*
D11*
X139004000Y-67378000D03*
X139004000Y-69918000D03*
%TD*%
D10*
%TO.C,J5*%
X169504000Y-64813000D03*
D11*
X169504000Y-67353000D03*
X169504000Y-69893000D03*
%TD*%
D13*
%TO.C,J10*%
X126204000Y-91613000D03*
D14*
X126204000Y-95113000D03*
%TD*%
D10*
%TO.C,J8*%
X154504000Y-64838000D03*
D11*
X154504000Y-67378000D03*
X154504000Y-69918000D03*
%TD*%
D13*
%TO.C,J11*%
X126204000Y-118550000D03*
D14*
X126204000Y-122050000D03*
%TD*%
D15*
%TO.C,C11*%
X127504000Y-80210349D03*
D16*
X127504000Y-83710349D03*
%TD*%
D10*
%TO.C,J2*%
X144504000Y-64853000D03*
D11*
X144504000Y-67393000D03*
X144504000Y-69933000D03*
%TD*%
D17*
%TO.C,J12*%
X127954000Y-105390000D03*
D18*
X127954000Y-107390000D03*
X127954000Y-109390000D03*
X127954000Y-111390000D03*
%TD*%
D10*
%TO.C,J7*%
X159504000Y-64853000D03*
D11*
X159504000Y-67393000D03*
X159504000Y-69933000D03*
%TD*%
D19*
%TO.C,J1*%
X158215000Y-131584000D03*
D20*
X159215000Y-128884000D03*
X164215000Y-128884000D03*
D19*
X165215000Y-131584000D03*
%TD*%
D10*
%TO.C,J6*%
X164504000Y-64853000D03*
D11*
X164504000Y-67393000D03*
X164504000Y-69933000D03*
%TD*%
M02*
