%TF.GenerationSoftware,KiCad,Pcbnew,8.0.4*%
%TF.CreationDate,2024-07-27T14:27:44+01:00*%
%TF.ProjectId,ESP-SPIDER,4553502d-5350-4494-9445-522e6b696361,rev?*%
%TF.SameCoordinates,Original*%
%TF.FileFunction,Soldermask,Top*%
%TF.FilePolarity,Negative*%
%FSLAX46Y46*%
G04 Gerber Fmt 4.6, Leading zero omitted, Abs format (unit mm)*
G04 Created by KiCad (PCBNEW 8.0.4) date 2024-07-27 14:27:44*
%MOMM*%
%LPD*%
G01*
G04 APERTURE LIST*
G04 Aperture macros list*
%AMRoundRect*
0 Rectangle with rounded corners*
0 $1 Rounding radius*
0 $2 $3 $4 $5 $6 $7 $8 $9 X,Y pos of 4 corners*
0 Add a 4 corners polygon primitive as box body*
4,1,4,$2,$3,$4,$5,$6,$7,$8,$9,$2,$3,0*
0 Add four circle primitives for the rounded corners*
1,1,$1+$1,$2,$3*
1,1,$1+$1,$4,$5*
1,1,$1+$1,$6,$7*
1,1,$1+$1,$8,$9*
0 Add four rect primitives between the rounded corners*
20,1,$1+$1,$2,$3,$4,$5,0*
20,1,$1+$1,$4,$5,$6,$7,0*
20,1,$1+$1,$6,$7,$8,$9,0*
20,1,$1+$1,$8,$9,$2,$3,0*%
G04 Aperture macros list end*
%ADD10RoundRect,0.062500X0.062500X-0.412500X0.062500X0.412500X-0.062500X0.412500X-0.062500X-0.412500X0*%
%ADD11RoundRect,0.062500X0.412500X-0.062500X0.412500X0.062500X-0.412500X0.062500X-0.412500X-0.062500X0*%
%ADD12R,3.100000X3.100000*%
%ADD13R,1.700000X1.700000*%
%ADD14O,1.700000X1.700000*%
%ADD15RoundRect,0.250000X-1.000000X-0.900000X1.000000X-0.900000X1.000000X0.900000X-1.000000X0.900000X0*%
%ADD16RoundRect,0.112500X-0.187500X-0.112500X0.187500X-0.112500X0.187500X0.112500X-0.187500X0.112500X0*%
%ADD17RoundRect,0.150000X0.150000X-0.587500X0.150000X0.587500X-0.150000X0.587500X-0.150000X-0.587500X0*%
%ADD18C,2.200000*%
%ADD19R,0.900000X1.500000*%
%ADD20R,1.500000X0.900000*%
%ADD21C,0.600000*%
%ADD22R,3.800000X3.800000*%
%ADD23RoundRect,0.237500X0.300000X0.237500X-0.300000X0.237500X-0.300000X-0.237500X0.300000X-0.237500X0*%
%ADD24RoundRect,0.237500X-0.237500X0.250000X-0.237500X-0.250000X0.237500X-0.250000X0.237500X0.250000X0*%
%ADD25C,1.500000*%
%ADD26RoundRect,0.237500X0.237500X-0.250000X0.237500X0.250000X-0.237500X0.250000X-0.237500X-0.250000X0*%
%ADD27RoundRect,0.100000X-0.100000X0.637500X-0.100000X-0.637500X0.100000X-0.637500X0.100000X0.637500X0*%
%ADD28RoundRect,0.237500X-0.250000X-0.237500X0.250000X-0.237500X0.250000X0.237500X-0.250000X0.237500X0*%
%ADD29R,2.400000X2.400000*%
%ADD30C,2.400000*%
%ADD31RoundRect,0.237500X-0.300000X-0.237500X0.300000X-0.237500X0.300000X0.237500X-0.300000X0.237500X0*%
%ADD32R,1.600000X1.600000*%
%ADD33C,1.600000*%
%ADD34RoundRect,0.237500X0.250000X0.237500X-0.250000X0.237500X-0.250000X-0.237500X0.250000X-0.237500X0*%
%ADD35R,1.300000X1.550000*%
%ADD36RoundRect,0.237500X-0.237500X0.300000X-0.237500X-0.300000X0.237500X-0.300000X0.237500X0.300000X0*%
%ADD37RoundRect,0.250000X-0.625000X0.350000X-0.625000X-0.350000X0.625000X-0.350000X0.625000X0.350000X0*%
%ADD38O,1.750000X1.200000*%
%ADD39RoundRect,0.237500X0.237500X-0.300000X0.237500X0.300000X-0.237500X0.300000X-0.237500X-0.300000X0*%
%ADD40RoundRect,0.375000X-0.625000X-0.375000X0.625000X-0.375000X0.625000X0.375000X-0.625000X0.375000X0*%
%ADD41RoundRect,0.500000X-0.500000X-1.400000X0.500000X-1.400000X0.500000X1.400000X-0.500000X1.400000X0*%
%ADD42R,0.400000X1.350000*%
%ADD43O,1.200000X1.900000*%
%ADD44R,1.200000X1.900000*%
%ADD45C,1.450000*%
%ADD46R,1.500000X1.900000*%
%ADD47RoundRect,0.237500X-0.287500X-0.237500X0.287500X-0.237500X0.287500X0.237500X-0.287500X0.237500X0*%
%ADD48R,1.550000X1.300000*%
G04 APERTURE END LIST*
D10*
%TO.C,U2*%
X159564000Y-119411000D03*
X160064000Y-119411000D03*
X160564000Y-119411000D03*
X161064000Y-119411000D03*
X161564000Y-119411000D03*
X162064000Y-119411000D03*
X162564000Y-119411000D03*
D11*
X163439000Y-118536000D03*
X163439000Y-118036000D03*
X163439000Y-117536000D03*
X163439000Y-117036000D03*
X163439000Y-116536000D03*
X163439000Y-116036000D03*
X163439000Y-115536000D03*
D10*
X162564000Y-114661000D03*
X162064000Y-114661000D03*
X161564000Y-114661000D03*
X161064000Y-114661000D03*
X160564000Y-114661000D03*
X160064000Y-114661000D03*
X159564000Y-114661000D03*
D11*
X158689000Y-115536000D03*
X158689000Y-116036000D03*
X158689000Y-116536000D03*
X158689000Y-117036000D03*
X158689000Y-117536000D03*
X158689000Y-118036000D03*
X158689000Y-118536000D03*
D12*
X161064000Y-117036000D03*
%TD*%
D13*
%TO.C,J13*%
X124709000Y-100008000D03*
D14*
X127249000Y-100008000D03*
%TD*%
D15*
%TO.C,D3*%
X151520000Y-124138000D03*
X155820000Y-124138000D03*
%TD*%
D16*
%TO.C,D5*%
X151604000Y-119566000D03*
X153704000Y-119566000D03*
%TD*%
D17*
%TO.C,D4*%
X161290000Y-123122000D03*
X162240000Y-124997000D03*
X160340000Y-124997000D03*
%TD*%
D16*
%TO.C,D1*%
X137126000Y-117534000D03*
X139226000Y-117534000D03*
%TD*%
D18*
%TO.C,H4*%
X125222000Y-129794000D03*
%TD*%
%TO.C,H3*%
X177292000Y-129286000D03*
%TD*%
%TO.C,H2*%
X177292000Y-65532000D03*
%TD*%
%TO.C,H1*%
X125476000Y-65786000D03*
%TD*%
D19*
%TO.C,U1*%
X173584000Y-92863000D03*
X172314000Y-92863000D03*
X171044000Y-92863000D03*
X169774000Y-92863000D03*
X168504000Y-92863000D03*
X167234000Y-92863000D03*
X165964000Y-92863000D03*
X164694000Y-92863000D03*
X163424000Y-92863000D03*
X162154000Y-92863000D03*
X160884000Y-92863000D03*
X159614000Y-92863000D03*
X158344000Y-92863000D03*
X157074000Y-92863000D03*
D20*
X155824000Y-95903000D03*
X155824000Y-97173000D03*
X155824000Y-98443000D03*
X155824000Y-99713000D03*
X155824000Y-100983000D03*
X155824000Y-102253000D03*
X155824000Y-103523000D03*
X155824000Y-104793000D03*
X155824000Y-106063000D03*
X155824000Y-107333000D03*
D19*
X157074000Y-110363000D03*
X158344000Y-110363000D03*
X159614000Y-110363000D03*
X160884000Y-110363000D03*
X162154000Y-110363000D03*
X163424000Y-110363000D03*
X164694000Y-110363000D03*
X165964000Y-110363000D03*
X167234000Y-110363000D03*
X168504000Y-110363000D03*
X169774000Y-110363000D03*
X171044000Y-110363000D03*
X172314000Y-110363000D03*
X173584000Y-110363000D03*
D21*
X166564000Y-98713000D03*
X165164000Y-98713000D03*
X167264000Y-99413000D03*
X165864000Y-99413000D03*
X164464000Y-99413000D03*
X166564000Y-100088000D03*
X165164000Y-100088000D03*
D22*
X165864000Y-100113000D03*
D21*
X167264000Y-100813000D03*
X165864000Y-100813000D03*
X164464000Y-100813000D03*
X166564000Y-101513000D03*
X165164000Y-101513000D03*
%TD*%
D23*
%TO.C,C3*%
X169348500Y-90911000D03*
X167623500Y-90911000D03*
%TD*%
D24*
%TO.C,R2*%
X170692000Y-122764500D03*
X170692000Y-124589500D03*
%TD*%
D25*
%TO.C,TP7*%
X147832000Y-98023000D03*
%TD*%
D13*
%TO.C,J9*%
X149504000Y-64838000D03*
D14*
X149504000Y-67378000D03*
X149504000Y-69918000D03*
%TD*%
D13*
%TO.C,J4*%
X133504000Y-64863000D03*
D14*
X133504000Y-67403000D03*
X133504000Y-69943000D03*
%TD*%
D13*
%TO.C,J3*%
X139004000Y-64838000D03*
D14*
X139004000Y-67378000D03*
X139004000Y-69918000D03*
%TD*%
D13*
%TO.C,J5*%
X169504000Y-64813000D03*
D14*
X169504000Y-67353000D03*
X169504000Y-69893000D03*
%TD*%
D26*
%TO.C,R11*%
X139004000Y-75483000D03*
X139004000Y-73658000D03*
%TD*%
D27*
%TO.C,U5*%
X146304000Y-88138000D03*
X145654000Y-88138000D03*
X145004000Y-88138000D03*
X144354000Y-88138000D03*
X143704000Y-88138000D03*
X143054000Y-88138000D03*
X142404000Y-88138000D03*
X141754000Y-88138000D03*
X141104000Y-88138000D03*
X140454000Y-88138000D03*
X139804000Y-88138000D03*
X139154000Y-88138000D03*
X138504000Y-88138000D03*
X137854000Y-88138000D03*
X137854000Y-93863000D03*
X138504000Y-93863000D03*
X139154000Y-93863000D03*
X139804000Y-93863000D03*
X140454000Y-93863000D03*
X141104000Y-93863000D03*
X141754000Y-93863000D03*
X142404000Y-93863000D03*
X143054000Y-93863000D03*
X143704000Y-93863000D03*
X144354000Y-93863000D03*
X145004000Y-93863000D03*
X145654000Y-93863000D03*
X146304000Y-93863000D03*
%TD*%
D25*
%TO.C,TXD1*%
X166624000Y-114863000D03*
%TD*%
D23*
%TO.C,C6*%
X145504000Y-107363000D03*
X143779000Y-107363000D03*
%TD*%
D26*
%TO.C,R16*%
X154504000Y-75483000D03*
X154504000Y-73658000D03*
%TD*%
D28*
%TO.C,R7*%
X152249500Y-128964000D03*
X154074500Y-128964000D03*
%TD*%
D29*
%TO.C,J10*%
X126204000Y-91613000D03*
D30*
X126204000Y-95113000D03*
%TD*%
D13*
%TO.C,J8*%
X154504000Y-64838000D03*
D14*
X154504000Y-67378000D03*
X154504000Y-69918000D03*
%TD*%
D31*
%TO.C,C2*%
X171761000Y-87911000D03*
X173486000Y-87911000D03*
%TD*%
D29*
%TO.C,J11*%
X126204000Y-118550000D03*
D30*
X126204000Y-122050000D03*
%TD*%
D32*
%TO.C,C11*%
X127504000Y-80210349D03*
D33*
X127504000Y-83710349D03*
%TD*%
D13*
%TO.C,J2*%
X144504000Y-64853000D03*
D14*
X144504000Y-67393000D03*
X144504000Y-69933000D03*
%TD*%
D34*
%TO.C,R1*%
X169948500Y-87911000D03*
X168123500Y-87911000D03*
%TD*%
D35*
%TO.C,SW2*%
X142530000Y-127838000D03*
X142530000Y-119888000D03*
X147030000Y-127838000D03*
X147030000Y-119888000D03*
%TD*%
D25*
%TO.C,RXD1*%
X170504000Y-114863000D03*
%TD*%
D26*
%TO.C,R15*%
X159504000Y-75483000D03*
X159504000Y-73658000D03*
%TD*%
%TO.C,R14*%
X164504000Y-75308000D03*
X164504000Y-73483000D03*
%TD*%
D25*
%TO.C,TP6*%
X139196000Y-98531000D03*
%TD*%
D36*
%TO.C,C8*%
X155363000Y-83952500D03*
X155363000Y-85677500D03*
%TD*%
D26*
%TO.C,R10*%
X144504000Y-75483000D03*
X144504000Y-73658000D03*
%TD*%
%TO.C,R12*%
X133504000Y-75483000D03*
X133504000Y-73658000D03*
%TD*%
D37*
%TO.C,J12*%
X127954000Y-105390000D03*
D38*
X127954000Y-107390000D03*
X127954000Y-109390000D03*
X127954000Y-111390000D03*
%TD*%
D28*
%TO.C,R5*%
X141181000Y-104627000D03*
X143006000Y-104627000D03*
%TD*%
D26*
%TO.C,R9*%
X149504000Y-75483000D03*
X149504000Y-73658000D03*
%TD*%
D28*
%TO.C,R17*%
X141181000Y-101325000D03*
X143006000Y-101325000D03*
%TD*%
D39*
%TO.C,C7*%
X139504000Y-112363000D03*
X139504000Y-110638000D03*
%TD*%
D26*
%TO.C,R13*%
X169504000Y-75308000D03*
X169504000Y-73483000D03*
%TD*%
D31*
%TO.C,C5*%
X164391000Y-120936000D03*
X166116000Y-120936000D03*
%TD*%
D25*
%TO.C,+5V1*%
X132504000Y-99363000D03*
%TD*%
D40*
%TO.C,U4*%
X141704000Y-109563000D03*
X141704000Y-111863000D03*
D41*
X148004000Y-111863000D03*
D40*
X141704000Y-114163000D03*
%TD*%
D31*
%TO.C,C1*%
X171761000Y-90911000D03*
X173486000Y-90911000D03*
%TD*%
D13*
%TO.C,J7*%
X159504000Y-64853000D03*
D14*
X159504000Y-67393000D03*
X159504000Y-69933000D03*
%TD*%
D25*
%TO.C,GND1*%
X133354000Y-88625000D03*
%TD*%
D26*
%TO.C,R4*%
X166117000Y-119155000D03*
X166117000Y-117330000D03*
%TD*%
D42*
%TO.C,J1*%
X160415000Y-128884000D03*
X161065000Y-128884000D03*
X161715000Y-128884000D03*
X162365000Y-128884000D03*
X163015000Y-128884000D03*
D43*
X158215000Y-131584000D03*
D44*
X158815000Y-131584000D03*
D45*
X159215000Y-128884000D03*
D46*
X160715000Y-131584000D03*
X162715000Y-131584000D03*
D45*
X164215000Y-128884000D03*
D44*
X164615000Y-131584000D03*
D43*
X165215000Y-131584000D03*
%TD*%
D47*
%TO.C,D2*%
X152412000Y-131964000D03*
X154162000Y-131964000D03*
%TD*%
D39*
%TO.C,C10*%
X148340000Y-94313500D03*
X148340000Y-92588500D03*
%TD*%
D48*
%TO.C,SW1*%
X165269000Y-87101000D03*
X157319000Y-87101000D03*
X165269000Y-82601000D03*
X157319000Y-82601000D03*
%TD*%
D34*
%TO.C,R8*%
X142991500Y-96000500D03*
X141166500Y-96000500D03*
%TD*%
D31*
%TO.C,C4*%
X164391000Y-122936000D03*
X166116000Y-122936000D03*
%TD*%
D13*
%TO.C,J6*%
X164504000Y-64853000D03*
D14*
X164504000Y-67393000D03*
X164504000Y-69933000D03*
%TD*%
D26*
%TO.C,R3*%
X170692000Y-120264500D03*
X170692000Y-118439500D03*
%TD*%
D23*
%TO.C,C9*%
X146004000Y-117773000D03*
X144279000Y-117773000D03*
%TD*%
M02*
