%TF.GenerationSoftware,KiCad,Pcbnew,8.0.4*%
%TF.CreationDate,2024-07-27T14:27:44+01:00*%
%TF.ProjectId,ESP-SPIDER,4553502d-5350-4494-9445-522e6b696361,rev?*%
%TF.SameCoordinates,Original*%
%TF.FileFunction,Copper,L1,Top*%
%TF.FilePolarity,Positive*%
%FSLAX46Y46*%
G04 Gerber Fmt 4.6, Leading zero omitted, Abs format (unit mm)*
G04 Created by KiCad (PCBNEW 8.0.4) date 2024-07-27 14:27:44*
%MOMM*%
%LPD*%
G01*
G04 APERTURE LIST*
G04 Aperture macros list*
%AMRoundRect*
0 Rectangle with rounded corners*
0 $1 Rounding radius*
0 $2 $3 $4 $5 $6 $7 $8 $9 X,Y pos of 4 corners*
0 Add a 4 corners polygon primitive as box body*
4,1,4,$2,$3,$4,$5,$6,$7,$8,$9,$2,$3,0*
0 Add four circle primitives for the rounded corners*
1,1,$1+$1,$2,$3*
1,1,$1+$1,$4,$5*
1,1,$1+$1,$6,$7*
1,1,$1+$1,$8,$9*
0 Add four rect primitives between the rounded corners*
20,1,$1+$1,$2,$3,$4,$5,0*
20,1,$1+$1,$4,$5,$6,$7,0*
20,1,$1+$1,$6,$7,$8,$9,0*
20,1,$1+$1,$8,$9,$2,$3,0*%
G04 Aperture macros list end*
%TA.AperFunction,SMDPad,CuDef*%
%ADD10RoundRect,0.062500X0.062500X-0.412500X0.062500X0.412500X-0.062500X0.412500X-0.062500X-0.412500X0*%
%TD*%
%TA.AperFunction,SMDPad,CuDef*%
%ADD11RoundRect,0.062500X0.412500X-0.062500X0.412500X0.062500X-0.412500X0.062500X-0.412500X-0.062500X0*%
%TD*%
%TA.AperFunction,HeatsinkPad*%
%ADD12R,3.100000X3.100000*%
%TD*%
%TA.AperFunction,ComponentPad*%
%ADD13R,1.700000X1.700000*%
%TD*%
%TA.AperFunction,ComponentPad*%
%ADD14O,1.700000X1.700000*%
%TD*%
%TA.AperFunction,SMDPad,CuDef*%
%ADD15RoundRect,0.250000X-1.000000X-0.900000X1.000000X-0.900000X1.000000X0.900000X-1.000000X0.900000X0*%
%TD*%
%TA.AperFunction,SMDPad,CuDef*%
%ADD16RoundRect,0.112500X-0.187500X-0.112500X0.187500X-0.112500X0.187500X0.112500X-0.187500X0.112500X0*%
%TD*%
%TA.AperFunction,SMDPad,CuDef*%
%ADD17RoundRect,0.150000X0.150000X-0.587500X0.150000X0.587500X-0.150000X0.587500X-0.150000X-0.587500X0*%
%TD*%
%TA.AperFunction,SMDPad,CuDef*%
%ADD18R,0.900000X1.500000*%
%TD*%
%TA.AperFunction,SMDPad,CuDef*%
%ADD19R,1.500000X0.900000*%
%TD*%
%TA.AperFunction,SMDPad,CuDef*%
%ADD20R,0.900000X0.900000*%
%TD*%
%TA.AperFunction,HeatsinkPad*%
%ADD21C,0.600000*%
%TD*%
%TA.AperFunction,SMDPad,CuDef*%
%ADD22R,3.800000X3.800000*%
%TD*%
%TA.AperFunction,SMDPad,CuDef*%
%ADD23RoundRect,0.237500X0.300000X0.237500X-0.300000X0.237500X-0.300000X-0.237500X0.300000X-0.237500X0*%
%TD*%
%TA.AperFunction,SMDPad,CuDef*%
%ADD24RoundRect,0.237500X-0.237500X0.250000X-0.237500X-0.250000X0.237500X-0.250000X0.237500X0.250000X0*%
%TD*%
%TA.AperFunction,SMDPad,CuDef*%
%ADD25C,1.500000*%
%TD*%
%TA.AperFunction,SMDPad,CuDef*%
%ADD26RoundRect,0.237500X0.237500X-0.250000X0.237500X0.250000X-0.237500X0.250000X-0.237500X-0.250000X0*%
%TD*%
%TA.AperFunction,SMDPad,CuDef*%
%ADD27RoundRect,0.100000X-0.100000X0.637500X-0.100000X-0.637500X0.100000X-0.637500X0.100000X0.637500X0*%
%TD*%
%TA.AperFunction,SMDPad,CuDef*%
%ADD28RoundRect,0.237500X-0.250000X-0.237500X0.250000X-0.237500X0.250000X0.237500X-0.250000X0.237500X0*%
%TD*%
%TA.AperFunction,ComponentPad*%
%ADD29R,2.400000X2.400000*%
%TD*%
%TA.AperFunction,ComponentPad*%
%ADD30C,2.400000*%
%TD*%
%TA.AperFunction,SMDPad,CuDef*%
%ADD31RoundRect,0.237500X-0.300000X-0.237500X0.300000X-0.237500X0.300000X0.237500X-0.300000X0.237500X0*%
%TD*%
%TA.AperFunction,ComponentPad*%
%ADD32R,1.600000X1.600000*%
%TD*%
%TA.AperFunction,ComponentPad*%
%ADD33C,1.600000*%
%TD*%
%TA.AperFunction,SMDPad,CuDef*%
%ADD34RoundRect,0.237500X0.250000X0.237500X-0.250000X0.237500X-0.250000X-0.237500X0.250000X-0.237500X0*%
%TD*%
%TA.AperFunction,SMDPad,CuDef*%
%ADD35R,1.300000X1.550000*%
%TD*%
%TA.AperFunction,SMDPad,CuDef*%
%ADD36RoundRect,0.237500X-0.237500X0.300000X-0.237500X-0.300000X0.237500X-0.300000X0.237500X0.300000X0*%
%TD*%
%TA.AperFunction,ComponentPad*%
%ADD37RoundRect,0.250000X-0.625000X0.350000X-0.625000X-0.350000X0.625000X-0.350000X0.625000X0.350000X0*%
%TD*%
%TA.AperFunction,ComponentPad*%
%ADD38O,1.750000X1.200000*%
%TD*%
%TA.AperFunction,SMDPad,CuDef*%
%ADD39RoundRect,0.237500X0.237500X-0.300000X0.237500X0.300000X-0.237500X0.300000X-0.237500X-0.300000X0*%
%TD*%
%TA.AperFunction,SMDPad,CuDef*%
%ADD40RoundRect,0.375000X-0.625000X-0.375000X0.625000X-0.375000X0.625000X0.375000X-0.625000X0.375000X0*%
%TD*%
%TA.AperFunction,SMDPad,CuDef*%
%ADD41RoundRect,0.500000X-0.500000X-1.400000X0.500000X-1.400000X0.500000X1.400000X-0.500000X1.400000X0*%
%TD*%
%TA.AperFunction,SMDPad,CuDef*%
%ADD42R,0.400000X1.350000*%
%TD*%
%TA.AperFunction,ComponentPad*%
%ADD43O,1.200000X1.900000*%
%TD*%
%TA.AperFunction,SMDPad,CuDef*%
%ADD44R,1.200000X1.900000*%
%TD*%
%TA.AperFunction,ComponentPad*%
%ADD45C,1.450000*%
%TD*%
%TA.AperFunction,SMDPad,CuDef*%
%ADD46R,1.500000X1.900000*%
%TD*%
%TA.AperFunction,SMDPad,CuDef*%
%ADD47RoundRect,0.237500X-0.287500X-0.237500X0.287500X-0.237500X0.287500X0.237500X-0.287500X0.237500X0*%
%TD*%
%TA.AperFunction,SMDPad,CuDef*%
%ADD48R,1.550000X1.300000*%
%TD*%
%TA.AperFunction,ViaPad*%
%ADD49C,0.700000*%
%TD*%
%TA.AperFunction,Conductor*%
%ADD50C,0.500000*%
%TD*%
%TA.AperFunction,Conductor*%
%ADD51C,0.300000*%
%TD*%
%TA.AperFunction,Conductor*%
%ADD52C,0.700000*%
%TD*%
%TA.AperFunction,Conductor*%
%ADD53C,1.000000*%
%TD*%
%TA.AperFunction,Conductor*%
%ADD54C,0.200000*%
%TD*%
G04 APERTURE END LIST*
D10*
%TO.P,U2,1,~{DCD}*%
%TO.N,unconnected-(U2-~{DCD}-Pad1)*%
X159564000Y-119411000D03*
%TO.P,U2,2,~{RI}/CLK*%
%TO.N,unconnected-(U2-~{RI}{slash}CLK-Pad2)*%
X160064000Y-119411000D03*
%TO.P,U2,3,GND*%
%TO.N,GND*%
X160564000Y-119411000D03*
%TO.P,U2,4,D+*%
%TO.N,/USB_D-*%
X161064000Y-119411000D03*
%TO.P,U2,5,D-*%
%TO.N,/USB_D+*%
X161564000Y-119411000D03*
%TO.P,U2,6,VDD*%
%TO.N,+3.3VADC*%
X162064000Y-119411000D03*
%TO.P,U2,7,VREGIN*%
X162564000Y-119411000D03*
D11*
%TO.P,U2,8,VBUS*%
%TO.N,Net-(U2-VBUS)*%
X163439000Y-118536000D03*
%TO.P,U2,9,~{RST}*%
%TO.N,Net-(U2-~{RST})*%
X163439000Y-118036000D03*
%TO.P,U2,10,NC*%
%TO.N,unconnected-(U2-NC-Pad10)*%
X163439000Y-117536000D03*
%TO.P,U2,11,~{SUSPEND}*%
%TO.N,unconnected-(U2-~{SUSPEND}-Pad11)*%
X163439000Y-117036000D03*
%TO.P,U2,12,SUSPEND*%
%TO.N,unconnected-(U2-SUSPEND-Pad12)*%
X163439000Y-116536000D03*
%TO.P,U2,13,CHREN*%
%TO.N,unconnected-(U2-CHREN-Pad13)*%
X163439000Y-116036000D03*
%TO.P,U2,14,CHR1*%
%TO.N,unconnected-(U2-CHR1-Pad14)*%
X163439000Y-115536000D03*
D10*
%TO.P,U2,15,CHR0*%
%TO.N,unconnected-(U2-CHR0-Pad15)*%
X162564000Y-114661000D03*
%TO.P,U2,16,~{WAKEUP}/GPIO.3*%
%TO.N,unconnected-(U2-~{WAKEUP}{slash}GPIO.3-Pad16)*%
X162064000Y-114661000D03*
%TO.P,U2,17,RS485/GPIO.2*%
%TO.N,unconnected-(U2-RS485{slash}GPIO.2-Pad17)*%
X161564000Y-114661000D03*
%TO.P,U2,18,~{RXT}/GPIO.1*%
%TO.N,unconnected-(U2-~{RXT}{slash}GPIO.1-Pad18)*%
X161064000Y-114661000D03*
%TO.P,U2,19,~{TXT}/GPIO.0*%
%TO.N,unconnected-(U2-~{TXT}{slash}GPIO.0-Pad19)*%
X160564000Y-114661000D03*
%TO.P,U2,20,GPIO.6*%
%TO.N,unconnected-(U2-GPIO.6-Pad20)*%
X160064000Y-114661000D03*
%TO.P,U2,21,GPIO.5*%
%TO.N,unconnected-(U2-GPIO.5-Pad21)*%
X159564000Y-114661000D03*
D11*
%TO.P,U2,22,GPIO.4*%
%TO.N,unconnected-(U2-GPIO.4-Pad22)*%
X158689000Y-115536000D03*
%TO.P,U2,23,~{CTS}*%
%TO.N,unconnected-(U2-~{CTS}-Pad23)*%
X158689000Y-116036000D03*
%TO.P,U2,24,~{RTS}*%
%TO.N,unconnected-(U2-~{RTS}-Pad24)*%
X158689000Y-116536000D03*
%TO.P,U2,25,RXD*%
%TO.N,/TXD*%
X158689000Y-117036000D03*
%TO.P,U2,26,TXD*%
%TO.N,/RXD*%
X158689000Y-117536000D03*
%TO.P,U2,27,~{DSR}*%
%TO.N,unconnected-(U2-~{DSR}-Pad27)*%
X158689000Y-118036000D03*
%TO.P,U2,28,~{DTR}*%
%TO.N,unconnected-(U2-~{DTR}-Pad28)*%
X158689000Y-118536000D03*
D12*
%TO.P,U2,29,GND*%
%TO.N,GND*%
X161064000Y-117036000D03*
%TD*%
D13*
%TO.P,J13,1,Pin_1*%
%TO.N,+5V*%
X124709000Y-100008000D03*
D14*
%TO.P,J13,2,Pin_2*%
%TO.N,GND*%
X127249000Y-100008000D03*
%TD*%
D15*
%TO.P,D3,1,A1*%
%TO.N,GND*%
X151520000Y-124138000D03*
%TO.P,D3,2,A2*%
%TO.N,Net-(D3-A2)*%
X155820000Y-124138000D03*
%TD*%
D16*
%TO.P,D5,1,K*%
%TO.N,VBUS*%
X151604000Y-119566000D03*
%TO.P,D5,2,A*%
%TO.N,Net-(D3-A2)*%
X153704000Y-119566000D03*
%TD*%
D17*
%TO.P,D4,3,common*%
%TO.N,GND*%
X161290000Y-123122000D03*
%TO.P,D4,2,A2*%
%TO.N,/USB_D+*%
X162240000Y-124997000D03*
%TO.P,D4,1,A1*%
%TO.N,/USB_D-*%
X160340000Y-124997000D03*
%TD*%
D16*
%TO.P,D1,1,K*%
%TO.N,+3.3V*%
X137126000Y-117534000D03*
%TO.P,D1,2,A*%
%TO.N,+3.3VADC*%
X139226000Y-117534000D03*
%TD*%
D18*
%TO.P,U1,1,GND*%
%TO.N,GND*%
X173584000Y-92863000D03*
%TO.P,U1,2,VDD*%
%TO.N,+3.3V*%
X172314000Y-92863000D03*
%TO.P,U1,3,EN*%
%TO.N,/EN*%
X171044000Y-92863000D03*
%TO.P,U1,4,SENSOR_VP*%
%TO.N,unconnected-(U1-SENSOR_VP-Pad4)*%
X169774000Y-92863000D03*
%TO.P,U1,5,SENSOR_VN*%
%TO.N,unconnected-(U1-SENSOR_VN-Pad5)*%
X168504000Y-92863000D03*
%TO.P,U1,6,IO34*%
%TO.N,unconnected-(U1-IO34-Pad6)*%
X167234000Y-92863000D03*
%TO.P,U1,7,IO35*%
%TO.N,unconnected-(U1-IO35-Pad7)*%
X165964000Y-92863000D03*
%TO.P,U1,8,IO32*%
%TO.N,unconnected-(U1-IO32-Pad8)*%
X164694000Y-92863000D03*
%TO.P,U1,9,IO33*%
%TO.N,unconnected-(U1-IO33-Pad9)*%
X163424000Y-92863000D03*
%TO.P,U1,10,IO25*%
%TO.N,unconnected-(U1-IO25-Pad10)*%
X162154000Y-92863000D03*
%TO.P,U1,11,IO26*%
%TO.N,unconnected-(U1-IO26-Pad11)*%
X160884000Y-92863000D03*
%TO.P,U1,12,IO27*%
%TO.N,unconnected-(U1-IO27-Pad12)*%
X159614000Y-92863000D03*
%TO.P,U1,13,IO14*%
%TO.N,unconnected-(U1-IO14-Pad13)*%
X158344000Y-92863000D03*
%TO.P,U1,14,IO12*%
%TO.N,unconnected-(U1-IO12-Pad14)*%
X157074000Y-92863000D03*
D19*
%TO.P,U1,15,GND*%
%TO.N,GND*%
X155824000Y-95903000D03*
%TO.P,U1,16,IO13*%
%TO.N,unconnected-(U1-IO13-Pad16)*%
X155824000Y-97173000D03*
%TO.P,U1,17,NC*%
%TO.N,unconnected-(U1-NC-Pad17)*%
X155824000Y-98443000D03*
%TO.P,U1,18,NC*%
%TO.N,unconnected-(U1-NC-Pad18)*%
X155824000Y-99713000D03*
%TO.P,U1,19,NC*%
%TO.N,unconnected-(U1-NC-Pad19)*%
X155824000Y-100983000D03*
%TO.P,U1,20,NC*%
%TO.N,unconnected-(U1-NC-Pad20)*%
X155824000Y-102253000D03*
%TO.P,U1,21,NC*%
%TO.N,unconnected-(U1-NC-Pad21)*%
X155824000Y-103523000D03*
%TO.P,U1,22,NC*%
%TO.N,unconnected-(U1-NC-Pad22)*%
X155824000Y-104793000D03*
%TO.P,U1,23,IO15*%
%TO.N,unconnected-(U1-IO15-Pad23)*%
X155824000Y-106063000D03*
%TO.P,U1,24,IO2*%
%TO.N,unconnected-(U1-IO2-Pad24)*%
X155824000Y-107333000D03*
D18*
%TO.P,U1,25,IO0*%
%TO.N,/IO0*%
X157074000Y-110363000D03*
%TO.P,U1,26,IO4*%
%TO.N,unconnected-(U1-IO4-Pad26)*%
X158344000Y-110363000D03*
%TO.P,U1,27,IO16*%
%TO.N,unconnected-(U1-IO16-Pad27)*%
X159614000Y-110363000D03*
%TO.P,U1,28,IO17*%
%TO.N,unconnected-(U1-IO17-Pad28)*%
X160884000Y-110363000D03*
%TO.P,U1,29,IO5*%
%TO.N,unconnected-(U1-IO5-Pad29)*%
X162154000Y-110363000D03*
%TO.P,U1,30,IO18*%
%TO.N,unconnected-(U1-IO18-Pad30)*%
X163424000Y-110363000D03*
%TO.P,U1,31,IO19*%
%TO.N,unconnected-(U1-IO19-Pad31)*%
X164694000Y-110363000D03*
%TO.P,U1,32,NC*%
%TO.N,unconnected-(U1-NC-Pad32)*%
X165964000Y-110363000D03*
%TO.P,U1,33,IO21*%
%TO.N,/SDA*%
X167234000Y-110363000D03*
%TO.P,U1,34,RXD0/IO3*%
%TO.N,/RXD*%
X168504000Y-110363000D03*
%TO.P,U1,35,TXD0/IO1*%
%TO.N,/TXD*%
X169774000Y-110363000D03*
%TO.P,U1,36,IO22*%
%TO.N,/SCL*%
X171044000Y-110363000D03*
%TO.P,U1,37,IO23*%
%TO.N,unconnected-(U1-IO23-Pad37)*%
X172314000Y-110363000D03*
%TO.P,U1,38,GND*%
%TO.N,GND*%
X173584000Y-110363000D03*
D20*
%TO.P,U1,39,GND*%
X167264000Y-98713000D03*
D21*
X166564000Y-98713000D03*
D20*
X165864000Y-98713000D03*
D21*
X165164000Y-98713000D03*
D20*
X164464000Y-98713000D03*
D21*
X167264000Y-99413000D03*
X165864000Y-99413000D03*
X164464000Y-99413000D03*
X166564000Y-100088000D03*
X165164000Y-100088000D03*
D20*
X167264000Y-100113000D03*
X165864000Y-100113000D03*
D22*
X165864000Y-100113000D03*
D20*
X164464000Y-100113000D03*
D21*
X167264000Y-100813000D03*
X165864000Y-100813000D03*
X164464000Y-100813000D03*
D20*
X167264000Y-101513000D03*
D21*
X166564000Y-101513000D03*
D20*
X165864000Y-101513000D03*
D21*
X165164000Y-101513000D03*
D20*
X164464000Y-101513000D03*
%TD*%
D23*
%TO.P,C3,1*%
%TO.N,/EN*%
X169348500Y-90911000D03*
%TO.P,C3,2*%
%TO.N,GND*%
X167623500Y-90911000D03*
%TD*%
D24*
%TO.P,R2,1*%
%TO.N,Net-(U2-VBUS)*%
X170692000Y-122764500D03*
%TO.P,R2,2*%
%TO.N,Net-(D3-A2)*%
X170692000Y-124589500D03*
%TD*%
D25*
%TO.P,TP7,1,1*%
%TO.N,/SDA*%
X147832000Y-98023000D03*
%TD*%
D13*
%TO.P,J9,1,Pin_1*%
%TO.N,GND*%
X149504000Y-64838000D03*
D14*
%TO.P,J9,2,Pin_2*%
%TO.N,+5V*%
X149504000Y-67378000D03*
%TO.P,J9,3,Pin_3*%
%TO.N,Net-(J9-Pin_3)*%
X149504000Y-69918000D03*
%TD*%
D13*
%TO.P,J4,1,Pin_1*%
%TO.N,GND*%
X133504000Y-64863000D03*
D14*
%TO.P,J4,2,Pin_2*%
%TO.N,+5V*%
X133504000Y-67403000D03*
%TO.P,J4,3,Pin_3*%
%TO.N,Net-(J4-Pin_3)*%
X133504000Y-69943000D03*
%TD*%
D13*
%TO.P,J3,1,Pin_1*%
%TO.N,GND*%
X139004000Y-64838000D03*
D14*
%TO.P,J3,2,Pin_2*%
%TO.N,+5V*%
X139004000Y-67378000D03*
%TO.P,J3,3,Pin_3*%
%TO.N,Net-(J3-Pin_3)*%
X139004000Y-69918000D03*
%TD*%
D13*
%TO.P,J5,1,Pin_1*%
%TO.N,GND*%
X169504000Y-64813000D03*
D14*
%TO.P,J5,2,Pin_2*%
%TO.N,+5V*%
X169504000Y-67353000D03*
%TO.P,J5,3,Pin_3*%
%TO.N,Net-(J5-Pin_3)*%
X169504000Y-69893000D03*
%TD*%
D26*
%TO.P,R11,1*%
%TO.N,/PWM6*%
X139004000Y-75483000D03*
%TO.P,R11,2*%
%TO.N,Net-(J3-Pin_3)*%
X139004000Y-73658000D03*
%TD*%
D27*
%TO.P,U5,1,A0*%
%TO.N,GND*%
X146304000Y-88138000D03*
%TO.P,U5,2,A1*%
X145654000Y-88138000D03*
%TO.P,U5,3,A2*%
X145004000Y-88138000D03*
%TO.P,U5,4,A3*%
X144354000Y-88138000D03*
%TO.P,U5,5,A4*%
X143704000Y-88138000D03*
%TO.P,U5,6,LED0*%
%TO.N,/PWM0*%
X143054000Y-88138000D03*
%TO.P,U5,7,LED1*%
%TO.N,/PWM1*%
X142404000Y-88138000D03*
%TO.P,U5,8,LED2*%
%TO.N,/PWM2*%
X141754000Y-88138000D03*
%TO.P,U5,9,LED3*%
%TO.N,/PWM3*%
X141104000Y-88138000D03*
%TO.P,U5,10,LED4*%
%TO.N,/PWM4*%
X140454000Y-88138000D03*
%TO.P,U5,11,LED5*%
%TO.N,/PWM5*%
X139804000Y-88138000D03*
%TO.P,U5,12,LED6*%
%TO.N,/PWM6*%
X139154000Y-88138000D03*
%TO.P,U5,13,LED7*%
%TO.N,/PWM7*%
X138504000Y-88138000D03*
%TO.P,U5,14,VSS*%
%TO.N,GND*%
X137854000Y-88138000D03*
%TO.P,U5,15,LED8*%
%TO.N,unconnected-(U5-LED8-Pad15)*%
X137854000Y-93863000D03*
%TO.P,U5,16,LED9*%
%TO.N,unconnected-(U5-LED9-Pad16)*%
X138504000Y-93863000D03*
%TO.P,U5,17,LED10*%
%TO.N,unconnected-(U5-LED10-Pad17)*%
X139154000Y-93863000D03*
%TO.P,U5,18,LED11*%
%TO.N,unconnected-(U5-LED11-Pad18)*%
X139804000Y-93863000D03*
%TO.P,U5,19,LED12*%
%TO.N,unconnected-(U5-LED12-Pad19)*%
X140454000Y-93863000D03*
%TO.P,U5,20,LED13*%
%TO.N,unconnected-(U5-LED13-Pad20)*%
X141104000Y-93863000D03*
%TO.P,U5,21,LED14*%
%TO.N,unconnected-(U5-LED14-Pad21)*%
X141754000Y-93863000D03*
%TO.P,U5,22,LED15*%
%TO.N,unconnected-(U5-LED15-Pad22)*%
X142404000Y-93863000D03*
%TO.P,U5,23,~{OE}*%
%TO.N,Net-(U5-~{OE})*%
X143054000Y-93863000D03*
%TO.P,U5,24,A5*%
%TO.N,GND*%
X143704000Y-93863000D03*
%TO.P,U5,25,EXTCLK*%
X144354000Y-93863000D03*
%TO.P,U5,26,SCL*%
%TO.N,/SCL*%
X145004000Y-93863000D03*
%TO.P,U5,27,SDA*%
%TO.N,/SDA*%
X145654000Y-93863000D03*
%TO.P,U5,28,VDD*%
%TO.N,+3.3V*%
X146304000Y-93863000D03*
%TD*%
D25*
%TO.P,TXD1,1,1*%
%TO.N,/RXD*%
X166624000Y-114863000D03*
%TD*%
D23*
%TO.P,C6,1*%
%TO.N,+3.3VADC*%
X145504000Y-107363000D03*
%TO.P,C6,2*%
%TO.N,GND*%
X143779000Y-107363000D03*
%TD*%
D26*
%TO.P,R16,1*%
%TO.N,/PWM3*%
X154504000Y-75483000D03*
%TO.P,R16,2*%
%TO.N,Net-(J8-Pin_3)*%
X154504000Y-73658000D03*
%TD*%
D28*
%TO.P,R7,1*%
%TO.N,VBUS*%
X152249500Y-128964000D03*
%TO.P,R7,2*%
%TO.N,Net-(D2-A)*%
X154074500Y-128964000D03*
%TD*%
D29*
%TO.P,J10,1,Pin_1*%
%TO.N,GND*%
X126204000Y-91613000D03*
D30*
%TO.P,J10,2,Pin_2*%
%TO.N,+5V*%
X126204000Y-95113000D03*
%TD*%
D13*
%TO.P,J8,1,Pin_1*%
%TO.N,GND*%
X154504000Y-64838000D03*
D14*
%TO.P,J8,2,Pin_2*%
%TO.N,+5V*%
X154504000Y-67378000D03*
%TO.P,J8,3,Pin_3*%
%TO.N,Net-(J8-Pin_3)*%
X154504000Y-69918000D03*
%TD*%
D31*
%TO.P,C2,1*%
%TO.N,+3.3V*%
X171761000Y-87911000D03*
%TO.P,C2,2*%
%TO.N,GND*%
X173486000Y-87911000D03*
%TD*%
D29*
%TO.P,J11,1,Pin_1*%
%TO.N,GND*%
X126204000Y-118550000D03*
D30*
%TO.P,J11,2,Pin_2*%
%TO.N,+3.3V*%
X126204000Y-122050000D03*
%TD*%
D32*
%TO.P,C11,1*%
%TO.N,+5V*%
X127504000Y-80210349D03*
D33*
%TO.P,C11,2*%
%TO.N,GND*%
X127504000Y-83710349D03*
%TD*%
D13*
%TO.P,J2,1,Pin_1*%
%TO.N,GND*%
X144504000Y-64853000D03*
D14*
%TO.P,J2,2,Pin_2*%
%TO.N,+5V*%
X144504000Y-67393000D03*
%TO.P,J2,3,Pin_3*%
%TO.N,Net-(J2-Pin_3)*%
X144504000Y-69933000D03*
%TD*%
D34*
%TO.P,R1,1*%
%TO.N,+3.3V*%
X169948500Y-87911000D03*
%TO.P,R1,2*%
%TO.N,/EN*%
X168123500Y-87911000D03*
%TD*%
D35*
%TO.P,SW2,1,1*%
%TO.N,GND*%
X142530000Y-127838000D03*
X142530000Y-119888000D03*
%TO.P,SW2,2,2*%
%TO.N,/IO0*%
X147030000Y-127838000D03*
X147030000Y-119888000D03*
%TD*%
D25*
%TO.P,RXD1,1,1*%
%TO.N,/TXD*%
X170504000Y-114863000D03*
%TD*%
D26*
%TO.P,R15,1*%
%TO.N,/PWM2*%
X159504000Y-75483000D03*
%TO.P,R15,2*%
%TO.N,Net-(J7-Pin_3)*%
X159504000Y-73658000D03*
%TD*%
%TO.P,R14,1*%
%TO.N,/PWM1*%
X164504000Y-75308000D03*
%TO.P,R14,2*%
%TO.N,Net-(J6-Pin_3)*%
X164504000Y-73483000D03*
%TD*%
D25*
%TO.P,TP6,1,1*%
%TO.N,/SCL*%
X139196000Y-98531000D03*
%TD*%
D36*
%TO.P,C8,1*%
%TO.N,/EN*%
X155363000Y-83952500D03*
%TO.P,C8,2*%
%TO.N,GND*%
X155363000Y-85677500D03*
%TD*%
D26*
%TO.P,R10,1*%
%TO.N,/PWM5*%
X144504000Y-75483000D03*
%TO.P,R10,2*%
%TO.N,Net-(J2-Pin_3)*%
X144504000Y-73658000D03*
%TD*%
%TO.P,R12,1*%
%TO.N,/PWM7*%
X133504000Y-75483000D03*
%TO.P,R12,2*%
%TO.N,Net-(J4-Pin_3)*%
X133504000Y-73658000D03*
%TD*%
D37*
%TO.P,J12,1,Pin_1*%
%TO.N,+5V*%
X127954000Y-105390000D03*
D38*
%TO.P,J12,2,Pin_2*%
%TO.N,GND*%
X127954000Y-107390000D03*
%TO.P,J12,3,Pin_3*%
%TO.N,/SCL*%
X127954000Y-109390000D03*
%TO.P,J12,4,Pin_4*%
%TO.N,/SDA*%
X127954000Y-111390000D03*
%TD*%
D28*
%TO.P,R5,1*%
%TO.N,+3.3V*%
X141181000Y-104627000D03*
%TO.P,R5,2*%
%TO.N,/SDA*%
X143006000Y-104627000D03*
%TD*%
D26*
%TO.P,R9,1*%
%TO.N,/PWM4*%
X149504000Y-75483000D03*
%TO.P,R9,2*%
%TO.N,Net-(J9-Pin_3)*%
X149504000Y-73658000D03*
%TD*%
D28*
%TO.P,R17,1*%
%TO.N,+3.3V*%
X141181000Y-101325000D03*
%TO.P,R17,2*%
%TO.N,/SCL*%
X143006000Y-101325000D03*
%TD*%
D39*
%TO.P,C7,1*%
%TO.N,VBUS*%
X139504000Y-112363000D03*
%TO.P,C7,2*%
%TO.N,GND*%
X139504000Y-110638000D03*
%TD*%
D26*
%TO.P,R13,1*%
%TO.N,/PWM0*%
X169504000Y-75308000D03*
%TO.P,R13,2*%
%TO.N,Net-(J5-Pin_3)*%
X169504000Y-73483000D03*
%TD*%
D31*
%TO.P,C5,1*%
%TO.N,+3.3VADC*%
X164391000Y-120936000D03*
%TO.P,C5,2*%
%TO.N,GND*%
X166116000Y-120936000D03*
%TD*%
D25*
%TO.P,+5V1,1,1*%
%TO.N,+5V*%
X132504000Y-99363000D03*
%TD*%
D40*
%TO.P,U4,1,GND*%
%TO.N,GND*%
X141704000Y-109563000D03*
%TO.P,U4,2,VO*%
%TO.N,+3.3VADC*%
X141704000Y-111863000D03*
D41*
X148004000Y-111863000D03*
D40*
%TO.P,U4,3,VI*%
%TO.N,VBUS*%
X141704000Y-114163000D03*
%TD*%
D31*
%TO.P,C1,1*%
%TO.N,+3.3V*%
X171761000Y-90911000D03*
%TO.P,C1,2*%
%TO.N,GND*%
X173486000Y-90911000D03*
%TD*%
D13*
%TO.P,J7,1,Pin_1*%
%TO.N,GND*%
X159504000Y-64853000D03*
D14*
%TO.P,J7,2,Pin_2*%
%TO.N,+5V*%
X159504000Y-67393000D03*
%TO.P,J7,3,Pin_3*%
%TO.N,Net-(J7-Pin_3)*%
X159504000Y-69933000D03*
%TD*%
D25*
%TO.P,GND1,1,1*%
%TO.N,GND*%
X133354000Y-88625000D03*
%TD*%
D26*
%TO.P,R4,1*%
%TO.N,+3.3VADC*%
X166117000Y-119155000D03*
%TO.P,R4,2*%
%TO.N,Net-(U2-~{RST})*%
X166117000Y-117330000D03*
%TD*%
D42*
%TO.P,J1,1,VBUS*%
%TO.N,Net-(D3-A2)*%
X160415000Y-128884000D03*
%TO.P,J1,2,D-*%
%TO.N,/USB_D-*%
X161065000Y-128884000D03*
%TO.P,J1,3,D+*%
%TO.N,/USB_D+*%
X161715000Y-128884000D03*
%TO.P,J1,4,ID*%
%TO.N,unconnected-(J1-ID-Pad4)*%
X162365000Y-128884000D03*
%TO.P,J1,5,GND*%
%TO.N,GND*%
X163015000Y-128884000D03*
D43*
%TO.P,J1,6,Shield*%
%TO.N,unconnected-(J1-Shield-Pad6)_7*%
X158215000Y-131584000D03*
D44*
%TO.N,unconnected-(J1-Shield-Pad6)_6*%
X158815000Y-131584000D03*
D45*
%TO.N,unconnected-(J1-Shield-Pad6)_5*%
X159215000Y-128884000D03*
D46*
%TO.N,unconnected-(J1-Shield-Pad6)_2*%
X160715000Y-131584000D03*
%TO.N,unconnected-(J1-Shield-Pad6)*%
X162715000Y-131584000D03*
D45*
%TO.N,unconnected-(J1-Shield-Pad6)_1*%
X164215000Y-128884000D03*
D44*
%TO.N,unconnected-(J1-Shield-Pad6)_4*%
X164615000Y-131584000D03*
D43*
%TO.N,unconnected-(J1-Shield-Pad6)_3*%
X165215000Y-131584000D03*
%TD*%
D47*
%TO.P,D2,1,K*%
%TO.N,GND*%
X152412000Y-131964000D03*
%TO.P,D2,2,A*%
%TO.N,Net-(D2-A)*%
X154162000Y-131964000D03*
%TD*%
D39*
%TO.P,C10,1*%
%TO.N,+3.3V*%
X148340000Y-94313500D03*
%TO.P,C10,2*%
%TO.N,GND*%
X148340000Y-92588500D03*
%TD*%
D48*
%TO.P,SW1,1,1*%
%TO.N,GND*%
X165269000Y-87101000D03*
X157319000Y-87101000D03*
%TO.P,SW1,2,2*%
%TO.N,/EN*%
X165269000Y-82601000D03*
X157319000Y-82601000D03*
%TD*%
D34*
%TO.P,R8,1*%
%TO.N,Net-(U5-~{OE})*%
X142991500Y-96000500D03*
%TO.P,R8,2*%
%TO.N,GND*%
X141166500Y-96000500D03*
%TD*%
D31*
%TO.P,C4,1*%
%TO.N,+3.3VADC*%
X164391000Y-122936000D03*
%TO.P,C4,2*%
%TO.N,GND*%
X166116000Y-122936000D03*
%TD*%
D13*
%TO.P,J6,1,Pin_1*%
%TO.N,GND*%
X164504000Y-64853000D03*
D14*
%TO.P,J6,2,Pin_2*%
%TO.N,+5V*%
X164504000Y-67393000D03*
%TO.P,J6,3,Pin_3*%
%TO.N,Net-(J6-Pin_3)*%
X164504000Y-69933000D03*
%TD*%
D26*
%TO.P,R3,1*%
%TO.N,Net-(U2-VBUS)*%
X170692000Y-120264500D03*
%TO.P,R3,2*%
%TO.N,GND*%
X170692000Y-118439500D03*
%TD*%
D23*
%TO.P,C9,1*%
%TO.N,/IO0*%
X146004000Y-117773000D03*
%TO.P,C9,2*%
%TO.N,GND*%
X144279000Y-117773000D03*
%TD*%
D49*
%TO.N,GND*%
X129540000Y-100008000D03*
X149352000Y-124138000D03*
X163068000Y-127440000D03*
%TO.N,Net-(D3-A2)*%
X159004000Y-126424000D03*
X169064500Y-126217000D03*
%TO.N,GND*%
X141224000Y-127762000D03*
X173486000Y-111739000D03*
X144780000Y-85598000D03*
X173482000Y-94234000D03*
X154432000Y-96012000D03*
X147574000Y-86360000D03*
X151192500Y-131863000D03*
X166374000Y-124012000D03*
X159516000Y-120629000D03*
X143510000Y-108966000D03*
X155448000Y-86868000D03*
X142752000Y-117835000D03*
X143510000Y-109982000D03*
X142240000Y-107442000D03*
X139954000Y-109220000D03*
X138938000Y-109220000D03*
X170692000Y-117327000D03*
X167406000Y-120964000D03*
X148340000Y-91419000D03*
X139954000Y-96012000D03*
X161234000Y-121197000D03*
X166370000Y-90932000D03*
%TO.N,+3.3V*%
X150876000Y-103378000D03*
X167132000Y-89408000D03*
X148336000Y-105918000D03*
X170942000Y-86868000D03*
%TO.N,/IO0*%
X152933500Y-113241500D03*
X149377500Y-116797500D03*
%TO.N,/SDA*%
X137926000Y-104881000D03*
X144784000Y-100309000D03*
X145800000Y-99293000D03*
X144784000Y-102849000D03*
%TO.N,/SCL*%
X137926000Y-101579000D03*
X143751000Y-99022000D03*
%TO.N,Net-(U2-VBUS)*%
X164596000Y-118597000D03*
X168660000Y-118597000D03*
%TO.N,/RXD*%
X165100000Y-112501000D03*
X165100000Y-114046000D03*
%TO.N,+3.3VADC*%
X157988000Y-121920000D03*
X164338000Y-124460000D03*
X145034000Y-112014000D03*
X141224000Y-116840000D03*
%TD*%
D50*
%TO.N,GND*%
X127249000Y-100008000D02*
X129540000Y-100008000D01*
%TO.N,+5V*%
X124709000Y-96608000D02*
X126204000Y-95113000D01*
X124709000Y-100008000D02*
X124709000Y-96608000D01*
X130804000Y-105390000D02*
X130814000Y-105400000D01*
X127954000Y-105390000D02*
X130804000Y-105390000D01*
X132504000Y-103710000D02*
X130814000Y-105400000D01*
X132504000Y-99363000D02*
X132504000Y-103710000D01*
D51*
%TO.N,/SCL*%
X130115000Y-109390000D02*
X137926000Y-101579000D01*
X127954000Y-109390000D02*
X130115000Y-109390000D01*
%TO.N,/SDA*%
X131417000Y-111390000D02*
X137926000Y-104881000D01*
X127954000Y-111390000D02*
X131417000Y-111390000D01*
D50*
%TO.N,+3.3VADC*%
X140462000Y-117534000D02*
X139226000Y-117534000D01*
X141156000Y-116840000D02*
X140462000Y-117534000D01*
X141224000Y-116840000D02*
X141156000Y-116840000D01*
%TO.N,+3.3V*%
X136449000Y-117534000D02*
X137126000Y-117534000D01*
X132970000Y-121013000D02*
X136449000Y-117534000D01*
D52*
%TO.N,GND*%
X151520000Y-124138000D02*
X149352000Y-124138000D01*
D51*
%TO.N,VBUS*%
X152249500Y-128352500D02*
X152249500Y-128964000D01*
X153670000Y-121632000D02*
X153670000Y-126932000D01*
X153670000Y-126932000D02*
X152249500Y-128352500D01*
X151604000Y-119566000D02*
X153670000Y-121632000D01*
D50*
%TO.N,GND*%
X163015000Y-127493000D02*
X163068000Y-127440000D01*
X163015000Y-128884000D02*
X163015000Y-127493000D01*
%TO.N,Net-(D3-A2)*%
X158924701Y-126503299D02*
X159004000Y-126424000D01*
X158924701Y-126932000D02*
X158924701Y-126503299D01*
X155820000Y-125018000D02*
X155820000Y-124138000D01*
X157734000Y-126932000D02*
X155820000Y-125018000D01*
X158924701Y-126932000D02*
X157734000Y-126932000D01*
X160415000Y-128422299D02*
X158924701Y-126932000D01*
X160415000Y-128884000D02*
X160415000Y-128422299D01*
D51*
%TO.N,/IO0*%
X155558000Y-110363000D02*
X157074000Y-110363000D01*
X152933500Y-112987500D02*
X155558000Y-110363000D01*
X152933500Y-113241500D02*
X152933500Y-112987500D01*
X147254000Y-118921000D02*
X147254000Y-119888000D01*
X149377500Y-116797500D02*
X147254000Y-118921000D01*
D50*
%TO.N,VBUS*%
X150622000Y-115248000D02*
X147828000Y-115248000D01*
X151604000Y-119566000D02*
X151604000Y-116230000D01*
X151604000Y-116230000D02*
X150622000Y-115248000D01*
%TO.N,Net-(D3-A2)*%
X155820000Y-121682000D02*
X153704000Y-119566000D01*
X155820000Y-124138000D02*
X155820000Y-121682000D01*
D51*
%TO.N,/USB_D+*%
X162240000Y-122543500D02*
X162240000Y-124997000D01*
X162244000Y-122539500D02*
X162240000Y-122543500D01*
%TO.N,/USB_D-*%
X160340000Y-122543500D02*
X160340000Y-124997000D01*
X160344000Y-122539500D02*
X160340000Y-122543500D01*
%TO.N,/USB_D+*%
X161715000Y-127269000D02*
X162240000Y-126744000D01*
X162240000Y-126744000D02*
X162240000Y-124997000D01*
X161715000Y-128884000D02*
X161715000Y-127269000D01*
%TO.N,/USB_D-*%
X161065000Y-127469000D02*
X160340000Y-126744000D01*
X160340000Y-126744000D02*
X160340000Y-124997000D01*
X161065000Y-128884000D02*
X161065000Y-127469000D01*
%TO.N,/SDA*%
X166879000Y-108958000D02*
X167234000Y-109313000D01*
X153433000Y-108958000D02*
X166879000Y-108958000D01*
X167234000Y-109313000D02*
X167234000Y-110363000D01*
X144784000Y-100309000D02*
X153433000Y-108958000D01*
%TO.N,/SCL*%
X145004000Y-99513000D02*
X145004000Y-97769000D01*
X170189000Y-108458000D02*
X153949000Y-108458000D01*
X171044000Y-109313000D02*
X170189000Y-108458000D01*
X171044000Y-110363000D02*
X171044000Y-109313000D01*
X153949000Y-108458000D02*
X145004000Y-99513000D01*
D53*
%TO.N,GND*%
X126204000Y-91613000D02*
X126204000Y-85010349D01*
D50*
X142754000Y-119888000D02*
X142754000Y-119298000D01*
X141300000Y-127838000D02*
X141224000Y-127762000D01*
X148340000Y-92588500D02*
X148340000Y-91419000D01*
X166116000Y-123992000D02*
X166136000Y-124012000D01*
X167623500Y-90911000D02*
X167619000Y-90911000D01*
D51*
X144787251Y-92692251D02*
X144891001Y-92588500D01*
X144018000Y-86360000D02*
X144780000Y-86360000D01*
X173584000Y-91009000D02*
X173486000Y-90911000D01*
D50*
X142754000Y-127838000D02*
X141300000Y-127838000D01*
D53*
X133354000Y-86847000D02*
X133354000Y-88625000D01*
D50*
X173584000Y-94132000D02*
X173482000Y-94234000D01*
X155363000Y-86783000D02*
X155448000Y-86868000D01*
D51*
X165269000Y-87101000D02*
X157319000Y-87101000D01*
D50*
X155363000Y-85677500D02*
X155363000Y-86783000D01*
X133841000Y-88138000D02*
X133354000Y-88625000D01*
D51*
X146304000Y-88138000D02*
X146304000Y-87122000D01*
X145004000Y-86898000D02*
X145542000Y-86360000D01*
D50*
X142754000Y-119298000D02*
X144279000Y-117773000D01*
X170692000Y-118439500D02*
X170692000Y-117327000D01*
X161294000Y-122539500D02*
X161294000Y-121257000D01*
X154541000Y-95903000D02*
X154432000Y-96012000D01*
X173584000Y-92863000D02*
X173584000Y-91009000D01*
D51*
X146304000Y-87122000D02*
X147066000Y-86360000D01*
X147066000Y-86360000D02*
X147574000Y-86360000D01*
D53*
X126204000Y-85010349D02*
X127504000Y-83710349D01*
D50*
X152412000Y-131964000D02*
X151293500Y-131964000D01*
X144279000Y-117773000D02*
X142814000Y-117773000D01*
X167623500Y-90911000D02*
X166391000Y-90911000D01*
D51*
X159906096Y-120629000D02*
X159516000Y-120629000D01*
D50*
X166116000Y-122936000D02*
X166116000Y-123992000D01*
D51*
X144354000Y-86786000D02*
X144780000Y-86360000D01*
X143704000Y-93775502D02*
X144787251Y-92692251D01*
D50*
X139965500Y-96000500D02*
X139954000Y-96012000D01*
D51*
X146304000Y-86360000D02*
X147066000Y-86360000D01*
X145542000Y-86360000D02*
X146304000Y-86360000D01*
X143704000Y-88138000D02*
X143704000Y-86674000D01*
X155363000Y-85677500D02*
X155895500Y-85677500D01*
X145004000Y-88138000D02*
X145004000Y-86898000D01*
D50*
X167378000Y-120936000D02*
X167406000Y-120964000D01*
D51*
X160564000Y-117536000D02*
X161064000Y-117036000D01*
D50*
X173486000Y-90911000D02*
X173486000Y-87911000D01*
X166116000Y-120936000D02*
X167378000Y-120936000D01*
X142814000Y-117773000D02*
X142752000Y-117835000D01*
D51*
X160564000Y-119486000D02*
X160564000Y-119971096D01*
D50*
X155824000Y-95903000D02*
X154541000Y-95903000D01*
X166391000Y-90911000D02*
X166370000Y-90932000D01*
X151293500Y-131964000D02*
X151192500Y-131863000D01*
D51*
X145654000Y-87010000D02*
X146304000Y-86360000D01*
D50*
X173584000Y-110363000D02*
X173584000Y-111641000D01*
D51*
X160564000Y-119971096D02*
X159906096Y-120629000D01*
X144891001Y-92588500D02*
X148340000Y-92588500D01*
X144354000Y-93125501D02*
X144787251Y-92692251D01*
X143704000Y-93863000D02*
X143704000Y-93775502D01*
X145654000Y-88138000D02*
X145654000Y-87010000D01*
X142754000Y-127838000D02*
X142754000Y-119888000D01*
X155895500Y-85677500D02*
X157319000Y-87101000D01*
D50*
X142754000Y-117837000D02*
X142752000Y-117835000D01*
D53*
X127504000Y-83710349D02*
X130217349Y-83710349D01*
D50*
X173584000Y-92863000D02*
X173584000Y-94132000D01*
X141166500Y-96000500D02*
X139965500Y-96000500D01*
X137854000Y-88138000D02*
X133841000Y-88138000D01*
D51*
X144018000Y-86360000D02*
X144780000Y-85598000D01*
D53*
X130217349Y-83710349D02*
X133354000Y-86847000D01*
D50*
X173584000Y-111641000D02*
X173486000Y-111739000D01*
X161294000Y-121257000D02*
X161234000Y-121197000D01*
D51*
X160564000Y-119486000D02*
X160564000Y-117536000D01*
X143704000Y-86674000D02*
X144018000Y-86360000D01*
X144354000Y-93863000D02*
X144354000Y-93125501D01*
X144780000Y-86360000D02*
X145542000Y-86360000D01*
X144354000Y-88138000D02*
X144354000Y-86786000D01*
D50*
%TO.N,+3.3V*%
X170942000Y-86868000D02*
X170942000Y-86917500D01*
X150876000Y-93980000D02*
X154940000Y-89916000D01*
X150876000Y-96849500D02*
X150876000Y-93980000D01*
X171761000Y-87911000D02*
X171761000Y-90911000D01*
X141181000Y-101325000D02*
X141181000Y-104627000D01*
X172314000Y-92863000D02*
X172314000Y-91464000D01*
X132970000Y-112838000D02*
X132970000Y-121013000D01*
X154940000Y-89916000D02*
X155448000Y-89408000D01*
X126204000Y-123113000D02*
X130870000Y-123113000D01*
X132970000Y-112838000D02*
X139287000Y-106521000D01*
X155448000Y-89408000D02*
X167132000Y-89408000D01*
X172314000Y-91464000D02*
X171761000Y-90911000D01*
X150876000Y-96849500D02*
X148340000Y-94313500D01*
X132970000Y-121013000D02*
X130870000Y-123113000D01*
X171761000Y-87911000D02*
X169948500Y-87911000D01*
X139890000Y-105918000D02*
X148336000Y-105918000D01*
X171761000Y-86925000D02*
X171761000Y-87911000D01*
D51*
X147889500Y-93863000D02*
X148340000Y-94313500D01*
X146304000Y-93863000D02*
X147889500Y-93863000D01*
D50*
X171704000Y-86868000D02*
X171761000Y-86925000D01*
X170942000Y-86868000D02*
X171704000Y-86868000D01*
X139287000Y-106521000D02*
X141181000Y-104627000D01*
X139287000Y-106521000D02*
X139890000Y-105918000D01*
X150876000Y-103378000D02*
X150876000Y-96849500D01*
D51*
%TO.N,/EN*%
X170574000Y-91580000D02*
X169905000Y-90911000D01*
X155967500Y-83952500D02*
X157319000Y-82601000D01*
X170574000Y-92393000D02*
X170574000Y-91580000D01*
X165269000Y-82601000D02*
X157319000Y-82601000D01*
X166954000Y-82601000D02*
X168123500Y-83770500D01*
X168123500Y-83770500D02*
X168123500Y-87911000D01*
X169348500Y-89136000D02*
X168123500Y-87911000D01*
X165269000Y-82601000D02*
X166954000Y-82601000D01*
X155363000Y-83952500D02*
X155967500Y-83952500D01*
X171044000Y-92863000D02*
X170574000Y-92393000D01*
X169348500Y-90911000D02*
X169348500Y-89136000D01*
X169905000Y-90911000D02*
X169348500Y-90911000D01*
D52*
%TO.N,VBUS*%
X141704000Y-114163000D02*
X141304000Y-114163000D01*
D51*
%TO.N,/IO0*%
X147254000Y-127838000D02*
X147254000Y-119888000D01*
X147254000Y-119023000D02*
X146004000Y-117773000D01*
X147254000Y-119888000D02*
X147254000Y-119023000D01*
D53*
%TO.N,+5V*%
X126204000Y-95113000D02*
X125085000Y-95113000D01*
X126204000Y-95113000D02*
X128254000Y-95113000D01*
X123444000Y-93472000D02*
X123444000Y-83312000D01*
X130750000Y-67353000D02*
X169504000Y-67353000D01*
X128254000Y-95113000D02*
X132504000Y-99363000D01*
X127504000Y-70599000D02*
X130750000Y-67353000D01*
X125085000Y-95113000D02*
X123444000Y-93472000D01*
X123444000Y-83312000D02*
X126545651Y-80210349D01*
X127504000Y-80210349D02*
X127504000Y-70599000D01*
D51*
X126545651Y-80210349D02*
X127504000Y-80210349D01*
%TO.N,Net-(D3-A2)*%
X169064500Y-126217000D02*
X170692000Y-124589500D01*
%TO.N,Net-(D2-A)*%
X154162000Y-131964000D02*
X154162000Y-129051500D01*
X154162000Y-129051500D02*
X154074500Y-128964000D01*
%TO.N,Net-(J2-Pin_3)*%
X144504000Y-73658000D02*
X144504000Y-69933000D01*
%TO.N,Net-(J3-Pin_3)*%
X139004000Y-73658000D02*
X139004000Y-69918000D01*
%TO.N,Net-(J4-Pin_3)*%
X133504000Y-73658000D02*
X133504000Y-69943000D01*
%TO.N,Net-(J5-Pin_3)*%
X169504000Y-73483000D02*
X169504000Y-69893000D01*
%TO.N,Net-(J6-Pin_3)*%
X164504000Y-73483000D02*
X164504000Y-69933000D01*
%TO.N,Net-(J7-Pin_3)*%
X159504000Y-73658000D02*
X159504000Y-69933000D01*
%TO.N,Net-(J8-Pin_3)*%
X154504000Y-73658000D02*
X154504000Y-69918000D01*
%TO.N,Net-(J9-Pin_3)*%
X149504000Y-73658000D02*
X149504000Y-69918000D01*
%TO.N,/SDA*%
X146562000Y-99293000D02*
X147832000Y-98023000D01*
X144784000Y-102849000D02*
X144784000Y-100309000D01*
X145800000Y-99293000D02*
X145654000Y-99147000D01*
X145800000Y-99293000D02*
X146562000Y-99293000D01*
X143006000Y-104627000D02*
X144784000Y-102849000D01*
X145654000Y-99147000D02*
X145654000Y-93863000D01*
%TO.N,/SCL*%
X145004000Y-97769000D02*
X145004000Y-93863000D01*
X143751000Y-99022000D02*
X145004000Y-97769000D01*
X143006000Y-99801000D02*
X141736000Y-98531000D01*
X143006000Y-101325000D02*
X143006000Y-99767000D01*
X143006000Y-101325000D02*
X143006000Y-99801000D01*
X141736000Y-98531000D02*
X139196000Y-98531000D01*
X143006000Y-99767000D02*
X143751000Y-99022000D01*
%TO.N,Net-(U2-VBUS)*%
X168660000Y-118597000D02*
X170327500Y-120264500D01*
X170692000Y-122764500D02*
X170692000Y-120264500D01*
X164535000Y-118536000D02*
X164596000Y-118597000D01*
X163514000Y-118536000D02*
X164535000Y-118536000D01*
X170327500Y-120264500D02*
X170692000Y-120264500D01*
%TO.N,Net-(U2-~{RST})*%
X164873050Y-117330000D02*
X166117000Y-117330000D01*
X163514000Y-118036000D02*
X164167050Y-118036000D01*
X164167050Y-118036000D02*
X164873050Y-117330000D01*
%TO.N,Net-(U5-~{OE})*%
X143054000Y-95938000D02*
X142991500Y-96000500D01*
X143054000Y-93863000D02*
X143054000Y-95938000D01*
%TO.N,/PWM4*%
X149290000Y-75483000D02*
X149504000Y-75483000D01*
X140454000Y-88138000D02*
X140454000Y-81017000D01*
X144276000Y-77195000D02*
X147578000Y-77195000D01*
X140454000Y-81017000D02*
X144276000Y-77195000D01*
X147578000Y-77195000D02*
X149290000Y-75483000D01*
%TO.N,/PWM5*%
X139804000Y-88138000D02*
X139804000Y-80183000D01*
X139804000Y-80183000D02*
X144504000Y-75483000D01*
%TO.N,/PWM6*%
X139154000Y-88138000D02*
X139154000Y-75633000D01*
X139154000Y-75633000D02*
X139004000Y-75483000D01*
%TO.N,/PWM7*%
X138504000Y-79551000D02*
X134436000Y-75483000D01*
X134436000Y-75483000D02*
X133504000Y-75483000D01*
X138504000Y-88138000D02*
X138504000Y-79551000D01*
%TO.N,/PWM0*%
X146308000Y-80497000D02*
X164315000Y-80497000D01*
X143054000Y-88138000D02*
X143054000Y-83751000D01*
X143054000Y-83751000D02*
X146308000Y-80497000D01*
X164315000Y-80497000D02*
X169504000Y-75308000D01*
%TO.N,/PWM1*%
X142404000Y-88138000D02*
X142404000Y-83131000D01*
X159516000Y-79481000D02*
X163689000Y-75308000D01*
X142404000Y-83131000D02*
X146054000Y-79481000D01*
X146054000Y-79481000D02*
X159516000Y-79481000D01*
X163689000Y-75308000D02*
X164504000Y-75308000D01*
%TO.N,/PWM2*%
X141754000Y-88138000D02*
X141754000Y-82511000D01*
X141754000Y-82511000D02*
X145546000Y-78719000D01*
X145546000Y-78719000D02*
X156268000Y-78719000D01*
X156268000Y-78719000D02*
X159504000Y-75483000D01*
%TO.N,/PWM3*%
X141104000Y-81891000D02*
X145038000Y-77957000D01*
X154370000Y-75483000D02*
X154504000Y-75483000D01*
X145038000Y-77957000D02*
X151896000Y-77957000D01*
X141104000Y-88138000D02*
X141104000Y-81891000D01*
X151896000Y-77957000D02*
X154370000Y-75483000D01*
D54*
X154504000Y-75863000D02*
X154504000Y-75483000D01*
D51*
%TO.N,/TXD*%
X157992000Y-113263000D02*
X169168000Y-113263000D01*
X158614000Y-117036000D02*
X158128904Y-117036000D01*
X158128904Y-117036000D02*
X157230000Y-116137096D01*
X157230000Y-116137096D02*
X157230000Y-114025000D01*
X169168000Y-113527000D02*
X169168000Y-113263000D01*
X169168000Y-113263000D02*
X169774000Y-112657000D01*
X169774000Y-112657000D02*
X169774000Y-110363000D01*
X157230000Y-114025000D02*
X157992000Y-113263000D01*
X170504000Y-114863000D02*
X169168000Y-113527000D01*
%TO.N,/RXD*%
X167898000Y-112501000D02*
X168504000Y-111895000D01*
X165100000Y-112501000D02*
X157484000Y-112501000D01*
X157439000Y-117536000D02*
X158614000Y-117536000D01*
X156214000Y-113771000D02*
X156214000Y-116311000D01*
X156214000Y-116311000D02*
X157439000Y-117536000D01*
X165807000Y-114046000D02*
X166624000Y-114863000D01*
X168504000Y-111895000D02*
X168504000Y-110363000D01*
X165100000Y-114046000D02*
X165807000Y-114046000D01*
X157484000Y-112501000D02*
X156214000Y-113771000D01*
X165100000Y-112501000D02*
X167898000Y-112501000D01*
%TO.N,/USB_D-*%
X161064000Y-120377050D02*
X161064000Y-119486000D01*
X160344000Y-122539500D02*
X160344000Y-121097050D01*
X160344000Y-121097050D02*
X161064000Y-120377050D01*
%TO.N,/USB_D+*%
X162244000Y-121137000D02*
X161564000Y-120457000D01*
X162244000Y-122539500D02*
X162244000Y-121137000D01*
X161564000Y-120457000D02*
X161564000Y-119486000D01*
D50*
%TO.N,+3.3VADC*%
X164014000Y-120936000D02*
X162564000Y-119486000D01*
D51*
X162064000Y-119486000D02*
X165786000Y-119486000D01*
D50*
X157988000Y-121920000D02*
X156210000Y-120142000D01*
X149709000Y-111863000D02*
X148004000Y-111863000D01*
X164338000Y-122989000D02*
X164391000Y-122936000D01*
X156210000Y-118364000D02*
X149709000Y-111863000D01*
X164338000Y-124460000D02*
X164338000Y-122989000D01*
X164391000Y-120936000D02*
X164014000Y-120936000D01*
D51*
X165786000Y-119486000D02*
X166117000Y-119155000D01*
D50*
X156210000Y-120142000D02*
X156210000Y-118364000D01*
D51*
X162691000Y-119613000D02*
X162564000Y-119486000D01*
D50*
X164391000Y-122936000D02*
X164391000Y-120936000D01*
D51*
X164391000Y-120936000D02*
X164203000Y-120936000D01*
%TD*%
%TA.AperFunction,Conductor*%
%TO.N,VBUS*%
G36*
X138811520Y-111524460D02*
G01*
X138952484Y-111611408D01*
X139116247Y-111665674D01*
X139217323Y-111676000D01*
X139790676Y-111675999D01*
X139790684Y-111675998D01*
X139790687Y-111675998D01*
X139846030Y-111670344D01*
X139891753Y-111665674D01*
X139985838Y-111634496D01*
X140055664Y-111632095D01*
X140112522Y-111664522D01*
X140167181Y-111719181D01*
X140200666Y-111780504D01*
X140203500Y-111806862D01*
X140203500Y-112314121D01*
X140203501Y-112314128D01*
X140206399Y-112356883D01*
X140206498Y-112357513D01*
X140208000Y-112376754D01*
X140208000Y-112522000D01*
X140262252Y-112576252D01*
X140285659Y-112608838D01*
X140336969Y-112712295D01*
X140378598Y-112764083D01*
X140456278Y-112860722D01*
X140604704Y-112980030D01*
X140708163Y-113031341D01*
X140740745Y-113054745D01*
X140970000Y-113284000D01*
X145750129Y-113284000D01*
X145817168Y-113303685D01*
X145830827Y-113313852D01*
X147574000Y-114808000D01*
X149228000Y-114808000D01*
X149295039Y-114827685D01*
X149340794Y-114880489D01*
X149352000Y-114932000D01*
X149352000Y-115446000D01*
X149332315Y-115513039D01*
X149279511Y-115558794D01*
X149228000Y-115570000D01*
X141021362Y-115570000D01*
X140954323Y-115550315D01*
X140933681Y-115533681D01*
X138466319Y-113066319D01*
X138432834Y-113004996D01*
X138430000Y-112978638D01*
X138430000Y-111811362D01*
X138449685Y-111744323D01*
X138466319Y-111723681D01*
X138647681Y-111542319D01*
X138709004Y-111508834D01*
X138735362Y-111506000D01*
X138746424Y-111506000D01*
X138811520Y-111524460D01*
G37*
%TD.AperFunction*%
%TD*%
%TA.AperFunction,Conductor*%
%TO.N,+3.3VADC*%
G36*
X147954693Y-106679219D02*
G01*
X148071733Y-106731329D01*
X148246609Y-106768500D01*
X148246610Y-106768500D01*
X148425389Y-106768500D01*
X148425391Y-106768500D01*
X148600267Y-106731329D01*
X148623343Y-106721054D01*
X148692592Y-106711769D01*
X148748179Y-106735134D01*
X149302400Y-107150800D01*
X149344221Y-107206771D01*
X149352000Y-107250000D01*
X149352000Y-113486638D01*
X149332315Y-113553677D01*
X149315681Y-113574319D01*
X148880319Y-114009681D01*
X148818996Y-114043166D01*
X148792638Y-114046000D01*
X147507617Y-114046000D01*
X147440578Y-114026315D01*
X147426919Y-114016148D01*
X146159796Y-112930043D01*
X146132656Y-112908353D01*
X146119005Y-112898192D01*
X146090466Y-112878433D01*
X145959591Y-112818663D01*
X145892546Y-112798976D01*
X145845073Y-112792150D01*
X145750129Y-112778500D01*
X145750127Y-112778500D01*
X141230746Y-112778500D01*
X141163707Y-112758815D01*
X141143065Y-112742181D01*
X141098201Y-112697317D01*
X141098187Y-112697303D01*
X141035654Y-112644186D01*
X141035643Y-112644178D01*
X141003083Y-112620789D01*
X141003079Y-112620787D01*
X141003078Y-112620786D01*
X141003072Y-112620782D01*
X140957028Y-112593078D01*
X140932772Y-112578483D01*
X140932768Y-112578481D01*
X140932763Y-112578478D01*
X140890635Y-112557584D01*
X140868048Y-112543146D01*
X140826338Y-112509619D01*
X140807377Y-112490657D01*
X140773852Y-112448949D01*
X140759412Y-112426358D01*
X140753903Y-112415251D01*
X140738522Y-112384238D01*
X140727356Y-112365681D01*
X140709889Y-112310123D01*
X140709282Y-112301172D01*
X140709000Y-112292806D01*
X140709000Y-111806859D01*
X140706102Y-111752811D01*
X140706102Y-111752810D01*
X140703270Y-111726477D01*
X140703267Y-111726450D01*
X140694614Y-111673054D01*
X140694614Y-111673052D01*
X140644333Y-111538247D01*
X140644332Y-111538243D01*
X140610847Y-111476920D01*
X140524623Y-111361739D01*
X140524618Y-111361734D01*
X140524613Y-111361728D01*
X140498319Y-111335434D01*
X140464834Y-111274111D01*
X140462000Y-111247753D01*
X140462000Y-111129912D01*
X140468292Y-111090913D01*
X140469174Y-111088253D01*
X140475776Y-111023623D01*
X140502171Y-110958933D01*
X140511427Y-110948572D01*
X140661712Y-110798287D01*
X140723031Y-110764806D01*
X140779311Y-110765636D01*
X140960111Y-110810600D01*
X141002877Y-110813500D01*
X142405122Y-110813499D01*
X142447889Y-110810600D01*
X142632693Y-110764641D01*
X142648277Y-110756911D01*
X142703371Y-110744000D01*
X143104088Y-110744000D01*
X143154523Y-110754720D01*
X143176802Y-110764639D01*
X143245733Y-110795329D01*
X143420609Y-110832500D01*
X143420610Y-110832500D01*
X143599389Y-110832500D01*
X143599391Y-110832500D01*
X143774267Y-110795329D01*
X143852523Y-110760486D01*
X143865477Y-110754720D01*
X143915912Y-110744000D01*
X144272000Y-110744000D01*
X144780000Y-110236000D01*
X144780000Y-107851258D01*
X144786294Y-107812254D01*
X144793723Y-107789835D01*
X144806674Y-107750753D01*
X144817000Y-107649677D01*
X144816999Y-107076324D01*
X144806674Y-106975247D01*
X144794774Y-106939335D01*
X144786294Y-106913743D01*
X144780000Y-106874739D01*
X144780000Y-106792500D01*
X144799685Y-106725461D01*
X144852489Y-106679706D01*
X144904000Y-106668500D01*
X147904259Y-106668500D01*
X147954693Y-106679219D01*
G37*
%TD.AperFunction*%
%TD*%
%TA.AperFunction,Conductor*%
%TO.N,GND*%
G36*
X144217539Y-106688185D02*
G01*
X144263294Y-106740989D01*
X144274500Y-106792500D01*
X144274500Y-106874748D01*
X144280954Y-106955252D01*
X144280955Y-106955263D01*
X144280956Y-106955269D01*
X144287250Y-106994273D01*
X144296125Y-107030542D01*
X144306456Y-107072766D01*
X144306579Y-107073191D01*
X144306647Y-107073544D01*
X144307040Y-107075149D01*
X144306961Y-107075168D01*
X144310750Y-107094749D01*
X144310849Y-107095712D01*
X144311499Y-107108393D01*
X144311499Y-107617603D01*
X144310856Y-107630207D01*
X144310757Y-107631187D01*
X144306962Y-107650823D01*
X144307042Y-107650843D01*
X144306643Y-107652469D01*
X144306577Y-107652816D01*
X144306456Y-107653233D01*
X144287251Y-107731718D01*
X144287249Y-107731727D01*
X144280958Y-107770715D01*
X144280954Y-107770744D01*
X144274500Y-107851248D01*
X144274500Y-109975254D01*
X144254815Y-110042293D01*
X144238181Y-110062935D01*
X144098935Y-110202181D01*
X144037612Y-110235666D01*
X144011254Y-110238500D01*
X143915912Y-110238500D01*
X143853979Y-110245009D01*
X143810802Y-110249547D01*
X143760388Y-110260263D01*
X143760380Y-110260265D01*
X143659916Y-110292902D01*
X143650042Y-110297297D01*
X143647209Y-110298558D01*
X143647155Y-110298583D01*
X143629095Y-110306623D01*
X143604448Y-110314631D01*
X143583140Y-110319160D01*
X143559006Y-110324290D01*
X143533227Y-110327000D01*
X143486774Y-110327000D01*
X143460992Y-110324290D01*
X143415543Y-110314629D01*
X143390896Y-110306621D01*
X143382407Y-110302842D01*
X143382406Y-110302841D01*
X143382406Y-110302840D01*
X143382401Y-110302839D01*
X143373035Y-110298669D01*
X143360128Y-110292922D01*
X143259632Y-110260269D01*
X143259623Y-110260267D01*
X143259620Y-110260266D01*
X143245794Y-110257327D01*
X143209195Y-110249547D01*
X143199891Y-110248569D01*
X143104088Y-110238500D01*
X142703371Y-110238500D01*
X142641266Y-110245679D01*
X142588028Y-110251834D01*
X142532942Y-110264744D01*
X142504603Y-110274938D01*
X142492559Y-110278591D01*
X142389054Y-110304333D01*
X142359127Y-110307999D01*
X141048874Y-110307999D01*
X141018948Y-110304334D01*
X140901313Y-110275079D01*
X140786766Y-110260191D01*
X140730485Y-110259361D01*
X140730483Y-110259361D01*
X140615593Y-110270855D01*
X140615590Y-110270855D01*
X140615590Y-110270856D01*
X140480780Y-110321134D01*
X140480772Y-110321137D01*
X140419481Y-110354603D01*
X140419456Y-110354617D01*
X140419451Y-110354620D01*
X140304271Y-110440844D01*
X140304259Y-110440854D01*
X140291433Y-110453681D01*
X140230110Y-110487166D01*
X140208511Y-110489488D01*
X140206234Y-110491765D01*
X140188315Y-110552792D01*
X140171681Y-110573434D01*
X140153989Y-110591125D01*
X140134450Y-110611795D01*
X140125187Y-110622164D01*
X140106892Y-110643837D01*
X140034132Y-110767959D01*
X140007740Y-110832643D01*
X140007734Y-110832659D01*
X139972893Y-110972249D01*
X139968932Y-111011018D01*
X139967991Y-111018162D01*
X139963520Y-111045876D01*
X139933410Y-111108925D01*
X139873993Y-111145686D01*
X139862961Y-111148185D01*
X139826830Y-111154655D01*
X139826827Y-111154655D01*
X139798190Y-111164145D01*
X139771839Y-111169792D01*
X139771254Y-111169852D01*
X139758602Y-111170499D01*
X139249393Y-111170499D01*
X139236732Y-111169850D01*
X139236133Y-111169789D01*
X139209804Y-111164145D01*
X139181329Y-111154709D01*
X139155238Y-111142542D01*
X139076902Y-111094224D01*
X139076894Y-111094220D01*
X138949431Y-111038136D01*
X138949428Y-111038135D01*
X138884335Y-111019676D01*
X138746428Y-111000500D01*
X138746424Y-111000500D01*
X138735362Y-111000500D01*
X138735360Y-111000500D01*
X138681311Y-111003397D01*
X138681310Y-111003397D01*
X138654977Y-111006229D01*
X138654950Y-111006232D01*
X138601554Y-111014885D01*
X138601550Y-111014886D01*
X138597331Y-111016460D01*
X138527640Y-111021443D01*
X138466317Y-110987957D01*
X138432833Y-110926633D01*
X138430000Y-110900277D01*
X138430000Y-108763362D01*
X138449685Y-108696323D01*
X138466319Y-108675681D01*
X138901681Y-108240319D01*
X138963004Y-108206834D01*
X138989362Y-108204000D01*
X141224000Y-108204000D01*
X141732000Y-107696000D01*
X141732000Y-106985362D01*
X141751685Y-106918323D01*
X141768319Y-106897681D01*
X141961181Y-106704819D01*
X142022504Y-106671334D01*
X142048862Y-106668500D01*
X144150500Y-106668500D01*
X144217539Y-106688185D01*
G37*
%TD.AperFunction*%
%TD*%
M02*
